<svg width="1440" height="4277" viewBox="0 0 1440 4277" fill="none" xmlns="http://www.w3.org/2000/svg">
<g clip-path="url(#clip0_1_666)">
<rect width="1440" height="4277" fill="white"/>
<g opacity="0.8" filter="url(#filter0_f_1_666)">
<ellipse cx="441" cy="389.5" rx="720" ry="389.5" fill="#D0F6E2"/>
</g>
<g opacity="0.35" filter="url(#filter1_f_1_666)">
<ellipse cx="441" cy="3473.5" rx="720" ry="389.5" fill="#D0F6E2"/>
</g>
<g opacity="0.35" filter="url(#filter2_f_1_666)">
<ellipse cx="441" cy="4769.5" rx="720" ry="389.5" fill="#D0F6E2"/>
</g>
<g opacity="0.3" filter="url(#filter3_f_1_666)">
<ellipse cx="1217.5" cy="389.5" rx="407.5" ry="389.5" fill="#F7B941" fill-opacity="0.5"/>
</g>
<g opacity="0.3" filter="url(#filter4_f_1_666)">
<ellipse cx="1217.5" cy="1568.5" rx="407.5" ry="389.5" fill="#F7B941" fill-opacity="0.5"/>
</g>
<g opacity="0.3" filter="url(#filter5_f_1_666)">
<ellipse cx="1217.5" cy="3473.5" rx="407.5" ry="389.5" fill="#F7B941" fill-opacity="0.35"/>
</g>
<g opacity="0.3" filter="url(#filter6_f_1_666)">
<ellipse cx="1217.5" cy="4769.5" rx="407.5" ry="389.5" fill="#F7B941" fill-opacity="0.35"/>
</g>
<g opacity="0.3" filter="url(#filter7_f_1_666)">
<ellipse cx="-113.5" cy="1385.5" rx="407.5" ry="389.5" fill="#F7B941" fill-opacity="0.5"/>
</g>
<g opacity="0.17" filter="url(#filter8_f_1_666)">
<ellipse cx="1472.5" cy="1940.5" rx="407.5" ry="389.5" fill="#059B49"/>
</g>
<path fill-rule="evenodd" clip-rule="evenodd" d="M950.038 2058.42L957.314 2052.99L957.912 2053.62L952.197 2060.67C945.526 2068.91 945.069 2080.55 951.075 2089.29L952.56 2091.45L951.941 2092.04L949.842 2090.47C941.352 2084.12 929.698 2084.11 921.204 2090.45L913.928 2095.88L913.33 2095.26L919.045 2088.21C925.717 2079.97 926.174 2068.33 920.168 2059.59L918.683 2057.43L919.302 2056.84L921.401 2058.41C929.891 2064.75 941.544 2064.76 950.038 2058.42ZM955.046 2055.77L950.559 2059.12C941.761 2065.69 929.693 2065.68 920.896 2059.11C927.108 2068.17 926.631 2080.22 919.721 2088.75L916.196 2093.1L920.684 2089.76C929.481 2083.19 941.549 2083.19 950.347 2089.76C944.134 2080.71 944.611 2068.65 951.521 2060.12L955.046 2055.77Z" fill="#145A34"/>
<path fill-rule="evenodd" clip-rule="evenodd" d="M954.064 2068.18C956.748 2065.6 961.017 2065.69 963.598 2068.37C966.178 2071.06 966.094 2075.33 963.409 2077.91C960.724 2080.49 956.456 2080.4 953.875 2077.71C951.295 2075.03 951.379 2070.76 954.064 2068.18ZM962.97 2068.97C960.723 2066.64 957.005 2066.56 954.667 2068.81C952.328 2071.05 952.255 2074.77 954.503 2077.11C956.75 2079.45 960.468 2079.53 962.806 2077.28C965.144 2075.03 965.218 2071.31 962.97 2068.97Z" fill="#145A34"/>
<path fill-rule="evenodd" clip-rule="evenodd" d="M917.838 2069.5C915.257 2066.82 910.989 2066.73 908.304 2069.31C905.619 2071.89 905.535 2076.16 908.116 2078.85C910.696 2081.53 914.965 2081.62 917.649 2079.04C920.334 2076.46 920.418 2072.19 917.838 2069.5ZM908.907 2069.94C911.245 2067.69 914.963 2067.77 917.21 2070.11C919.458 2072.44 919.385 2076.16 917.046 2078.41C914.708 2080.66 910.99 2080.58 908.743 2078.24C906.495 2075.9 906.569 2072.19 908.907 2069.94Z" fill="#145A34"/>
<path fill-rule="evenodd" clip-rule="evenodd" d="M1184.27 2601.85L1175.52 2598.65L1182.45 2604.23C1165.97 2614.89 1155.16 2625.91 1157.6 2630.06C1159.65 2633.55 1170.45 2631.2 1184.08 2624.88L1183.34 2626.91L1185.52 2624.2C1185.85 2624.04 1186.19 2623.88 1186.53 2623.71C1188.35 2627.94 1190.91 2630.57 1193.73 2630.54C1198.01 2630.5 1201.59 2624.36 1202.84 2615.84L1211.59 2619.05L1204.66 2613.46C1221.14 2602.81 1231.95 2591.78 1229.51 2587.63C1227.46 2584.15 1216.66 2586.49 1203.03 2592.82L1203.77 2590.78L1201.59 2593.49C1201.25 2593.65 1200.92 2593.82 1200.57 2593.98C1198.76 2589.75 1196.2 2587.12 1193.38 2587.15C1189.1 2587.19 1185.52 2593.33 1184.27 2601.85ZM1171.41 2629.08C1175.25 2627.88 1179.68 2626.12 1184.45 2623.87L1185.52 2620.95C1184.46 2617.52 1183.83 2613.39 1183.79 2608.94C1183.78 2607.73 1183.82 2606.55 1183.89 2605.39L1183.07 2604.73C1175.76 2609.44 1169.56 2614.23 1165.15 2618.44C1162.37 2621.1 1160.33 2623.51 1159.15 2625.5C1158.56 2626.5 1158.21 2627.36 1158.08 2628.08C1157.94 2628.78 1158.03 2629.3 1158.25 2629.68C1158.48 2630.06 1158.89 2630.39 1159.57 2630.61C1160.26 2630.84 1161.18 2630.95 1162.34 2630.92C1164.65 2630.85 1167.74 2630.23 1171.41 2629.08ZM1184.61 2605.97C1184.56 2606.94 1184.54 2607.93 1184.55 2608.93C1184.58 2612.91 1185.1 2616.61 1185.96 2619.76L1189.56 2609.96L1184.61 2605.97ZM1186.93 2622.68C1186.91 2622.63 1186.89 2622.58 1186.87 2622.53L1194.66 2612.84L1200.7 2615.06C1199.86 2615.58 1198.99 2616.1 1198.12 2616.61C1194.3 2618.87 1190.53 2620.9 1186.93 2622.68ZM1187.21 2623.38C1187.29 2623.57 1187.38 2623.76 1187.46 2623.94C1189.24 2627.8 1191.51 2629.81 1193.72 2629.79C1195.94 2629.77 1198.18 2627.72 1199.89 2623.82C1200.89 2621.54 1201.67 2618.73 1202.12 2615.58L1201.61 2615.39C1200.59 2616.02 1199.56 2616.64 1198.5 2617.26C1194.65 2619.54 1190.85 2621.59 1187.21 2623.38ZM1203.22 2612.3L1204.04 2612.96C1211.35 2608.25 1217.54 2603.47 1221.96 2599.25C1224.74 2596.59 1226.78 2594.19 1227.96 2592.19C1228.55 2591.19 1228.9 2590.33 1229.03 2589.62C1229.17 2588.91 1229.08 2588.39 1228.86 2588.01C1228.63 2587.63 1228.22 2587.31 1227.54 2587.08C1226.85 2586.85 1225.93 2586.74 1224.77 2586.78C1222.46 2586.84 1219.37 2587.47 1215.7 2588.61C1211.86 2589.82 1207.43 2591.58 1202.66 2593.82L1201.58 2596.74C1202.65 2600.18 1203.28 2604.31 1203.32 2608.75C1203.33 2609.96 1203.29 2611.15 1203.22 2612.3ZM1201.15 2597.94C1202.01 2601.09 1202.53 2604.79 1202.56 2608.76C1202.57 2609.77 1202.55 2610.75 1202.5 2611.72L1197.55 2607.74L1201.15 2597.94ZM1200.18 2595.01C1200.2 2595.07 1200.22 2595.12 1200.24 2595.17L1192.45 2604.85L1186.4 2602.64C1187.25 2602.12 1188.11 2601.6 1188.99 2601.08C1192.81 2598.82 1196.58 2596.79 1200.18 2595.01ZM1199.9 2594.31C1196.26 2596.11 1192.46 2598.16 1188.6 2600.43C1187.55 2601.05 1186.52 2601.68 1185.5 2602.3L1184.99 2602.12C1185.44 2598.97 1186.21 2596.15 1187.22 2593.87C1188.93 2589.98 1191.17 2587.93 1193.38 2587.9C1195.6 2587.88 1197.87 2589.89 1199.65 2593.76C1199.73 2593.94 1199.82 2594.12 1199.9 2594.31Z" fill="#145A34"/>
<path fill-rule="evenodd" clip-rule="evenodd" d="M805.549 3064.48C814.526 3072.24 817.881 3084.76 813.984 3095.96C821.737 3086.98 834.259 3083.63 845.462 3087.53C836.486 3079.77 833.131 3067.25 837.027 3056.05C829.274 3065.02 816.752 3068.38 805.549 3064.48ZM801.924 3061.81C814.917 3068.7 831.026 3064.39 838.832 3051.92L839.697 3052.42C832.805 3065.41 837.122 3081.52 849.587 3089.33L849.087 3090.19C836.095 3083.3 819.985 3087.62 812.179 3100.08L811.314 3099.58C818.206 3086.59 813.889 3070.48 801.425 3062.68L801.924 3061.81Z" fill="#145A34"/>
<path fill-rule="evenodd" clip-rule="evenodd" d="M839.563 3052.34L844 3043.96L838.955 3051.99L838.821 3051.92L833.498 3060.41C828.034 3067.17 818.767 3069.63 810.668 3066.45L801.913 3061.81L801.845 3061.92L793.024 3057.25L801.481 3062.55L801.413 3062.67L809.813 3067.93C816.615 3073.36 819.123 3082.61 816.002 3090.72L811.303 3099.58L811.437 3099.66L807 3108.04L812.045 3100.01L812.168 3100.08L817.432 3091.67C822.889 3084.85 832.201 3082.36 840.335 3085.55L849.076 3090.19L849.143 3090.07L857.976 3094.75L849.508 3089.44L849.575 3089.32L841.19 3084.07C834.356 3078.62 831.856 3069.32 835.038 3061.18L839.686 3052.42L839.563 3052.34ZM839.563 3052.34L838.955 3051.99L834.895 3058.46C834.464 3059.15 833.997 3059.8 833.498 3060.41L824.969 3074.04L810.668 3066.45C809.968 3066.17 809.276 3065.86 808.597 3065.5L801.845 3061.92L801.481 3062.55L807.953 3066.61C808.604 3067.02 809.225 3067.46 809.813 3067.93L823.533 3076.52L816.002 3090.72C815.717 3091.46 815.385 3092.19 815.006 3092.91L811.437 3099.66L812.045 3100.01L816.104 3093.54C816.516 3092.89 816.96 3092.26 817.432 3091.67L826.02 3077.96L840.335 3085.55C841.034 3085.83 841.725 3086.14 842.403 3086.5L849.143 3090.07L849.508 3089.44L843.047 3085.39C842.396 3084.98 841.777 3084.54 841.19 3084.07L827.456 3075.47L835.038 3061.18C835.314 3060.47 835.632 3059.78 835.994 3059.09L839.563 3052.34ZM825.322 3075.35L832.274 3064.25L826.136 3075.82L837.238 3082.78L825.666 3076.64L818.714 3087.74L824.852 3076.17L813.751 3069.22L825.322 3075.35Z" fill="#145A34"/>
<g clip-path="url(#clip1_1_666)">
<path d="M120.641 567.724C120.641 567.724 158.224 563.214 171.378 556.073C184.533 548.932 282.248 545.549 282.248 567.724C282.248 589.899 169.875 599.671 169.875 599.671L110.87 596.288L120.641 567.724Z" fill="#FBBEBE"/>
<path opacity="0.1" d="M120.641 567.724C120.641 567.724 158.224 563.214 171.378 556.073C184.533 548.932 282.248 545.549 282.248 567.724C282.248 589.899 169.875 599.671 169.875 599.671L110.87 596.288L120.641 567.724Z" fill="black"/>
<path d="M131.541 563.59L123.648 586.516L0 588.02V554.194C0 554.194 47.3546 543.294 84.9376 566.596C84.9376 566.596 129.286 561.335 131.541 563.59Z" fill="#059B49"/>
<path opacity="0.1" d="M131.541 563.553L123.648 586.479L0 587.983V554.157C0 554.157 47.3546 543.257 84.9376 566.559C84.9376 566.559 129.286 561.298 131.541 563.553Z" fill="black"/>
<path d="M272.908 554.006C272.908 555.287 270.035 556.238 269.753 557.473C269.473 558.699 271.18 560.563 270.64 561.733C270.081 562.93 269.422 564.077 268.668 565.161C267.961 566.174 265.775 566.026 264.879 566.976C264.002 567.839 263.073 568.647 262.096 569.397C261.146 570.187 259.857 570.353 258.776 571.081C257.748 571.773 257.872 574.312 256.735 574.943C255.649 575.545 253.985 575.061 252.806 575.602C251.675 576.122 251.078 578.001 249.869 578.461C248.702 578.904 247.258 578.713 246.025 579.097C244.831 579.469 243.496 579.408 242.245 579.721C241.03 580.025 240.103 581.846 238.839 582.091C237.608 582.33 236.166 581.692 234.893 581.874C233.65 582.05 232.204 580.477 230.925 580.596C229.674 580.713 228.494 581.441 227.212 581.5C225.956 581.558 224.713 582.111 223.431 582.111C222.149 582.111 220.826 583.314 219.57 583.256C218.288 583.197 217.127 581.374 215.876 581.258C214.597 581.139 213.072 583.043 211.828 582.866C210.556 582.685 209.547 580.821 208.316 580.582C207.053 580.336 205.42 581.668 204.206 581.365C202.955 581.052 202.212 578.883 201.018 578.512C199.785 578.128 198.256 578.648 197.09 578.205C195.88 577.745 194.406 577.819 193.275 577.299C192.096 576.758 191.25 575.476 190.163 574.874C189.026 574.244 188.501 572.68 187.473 571.988C186.392 571.26 184.745 571.353 183.794 570.562C182.79 569.727 180.909 569.684 180.062 568.785C179.166 567.835 178.803 566.24 178.096 565.227C177.351 564.16 178.813 561.904 178.293 560.776C177.753 559.606 175.496 559.13 175.216 557.905C174.927 556.625 174.779 555.318 174.774 554.006C174.774 552.725 176.704 551.746 176.987 550.51C177.267 549.284 175.846 547.524 176.386 546.354C176.906 545.226 176.84 543.492 177.585 542.425C178.293 541.412 180.058 541.015 180.954 540.065C181.801 539.167 183.318 538.916 184.322 538.081C185.273 537.29 185.151 534.906 186.233 534.178C187.261 533.485 188.696 533.17 189.833 532.539C190.92 531.937 192.458 532.038 193.637 531.497C194.768 530.977 196.54 532.001 197.75 531.542C198.916 531.098 199.863 530.13 201.096 529.746C202.289 529.374 202.85 526.54 204.101 526.228C205.316 525.924 206.81 526.428 208.074 526.183C209.305 525.943 210.961 528.179 212.234 527.998C213.477 527.821 214.407 524.836 215.685 524.717C216.937 524.601 218.348 526.147 219.63 526.088C220.887 526.03 222.149 526.936 223.431 526.936C224.713 526.936 225.99 525.693 227.247 525.75C228.528 525.809 229.659 527.452 230.91 527.569C232.189 527.688 233.759 525.189 235.002 525.366C236.275 525.547 237.258 527.479 238.489 527.718C239.753 527.963 241.336 526.764 242.551 527.068C243.802 527.381 244.555 529.434 245.748 529.805C246.982 530.189 247.741 531.638 248.908 532.081C250.118 532.541 252.365 530.39 253.497 530.91C254.675 531.451 255.694 532.388 256.78 532.99C257.918 533.621 259.725 533.304 260.753 533.996C261.835 534.724 262.101 536.678 263.052 537.469C264.055 538.304 265.711 538.556 266.559 539.454C267.455 540.404 267.579 542.106 268.287 543.12C269.032 544.187 269.008 545.665 269.528 546.793C270.068 547.963 271.509 548.848 271.789 550.074C272.072 551.309 272.908 552.725 272.908 554.006Z" fill="#3F3D56"/>
<path d="M137.554 577.496C137.554 577.496 180.023 555.697 207.458 563.965C234.894 572.234 273.228 557.952 277.738 562.838C282.248 567.724 288.638 620.342 234.518 623.349C180.398 626.356 134.171 614.329 134.171 614.329L137.554 577.496Z" fill="#FBBEBE"/>
<path d="M127.552 575.174C127.552 575.174 144.319 574.113 143.567 580.127C142.815 586.14 142.064 632.745 137.554 633.872C133.044 635 97.34 635 82.6826 635H0V562.946C0 562.946 58.6295 559.455 87.9442 574.113C87.9442 574.113 123.189 573.604 127.552 575.174Z" fill="#059B49"/>
<path d="M206.098 462.472C204.496 462.562 202.951 463.097 201.636 464.017C200.321 464.936 199.288 466.204 198.653 467.677C196.791 472.178 199.188 477.464 202.786 480.746C206.385 484.027 211.007 485.903 215.207 488.369C220.848 491.68 225.917 496.277 228.739 502.179C231.562 508.08 231.862 515.39 228.544 521.027C225.465 526.26 219.866 529.392 214.525 532.28" stroke="#3F3D56" stroke-miterlimit="10"/>
<path d="M221.131 435.035C219.529 435.126 217.984 435.661 216.669 436.58C215.354 437.5 214.321 438.767 213.686 440.241C211.824 444.741 214.221 450.027 217.82 453.309C221.418 456.591 226.04 458.466 230.24 460.932C235.881 464.244 240.95 468.841 243.773 474.742C246.595 480.643 246.895 487.953 243.578 493.59C240.498 498.823 234.899 501.955 229.558 504.843" stroke="#3F3D56" stroke-miterlimit="10"/>
<path d="M270.559 441.345C269.237 440.436 267.688 439.913 266.085 439.835C264.482 439.757 262.889 440.127 261.485 440.904C257.258 443.322 255.918 448.97 256.754 453.768C257.591 458.565 260.097 462.879 261.909 467.399C264.342 473.471 265.536 480.209 264.156 486.604C262.775 492.998 258.538 498.961 252.463 501.388C246.825 503.64 240.48 502.689 234.49 501.703" stroke="#3F3D56" stroke-miterlimit="10"/>
<path d="M227.001 498.064C231.983 498.064 236.021 496.102 236.021 493.683C236.021 491.263 231.983 489.302 227.001 489.302C222.02 489.302 217.981 491.263 217.981 493.683C217.981 496.102 222.02 498.064 227.001 498.064Z" fill="#57B894"/>
<path d="M225.874 497.312C230.855 497.312 234.894 495.351 234.894 492.931C234.894 490.511 230.855 488.55 225.874 488.55C220.892 488.55 216.854 490.511 216.854 492.931C216.854 495.351 220.892 497.312 225.874 497.312Z" stroke="#3F3D56" stroke-miterlimit="10"/>
<path d="M246.545 494.306C251.526 494.306 255.564 492.344 255.564 489.924C255.564 487.505 251.526 485.543 246.545 485.543C241.563 485.543 237.525 487.505 237.525 489.924C237.525 492.344 241.563 494.306 246.545 494.306Z" fill="#57B894"/>
<path d="M245.417 493.554C250.398 493.554 254.437 491.592 254.437 489.173C254.437 486.753 250.398 484.791 245.417 484.791C240.435 484.791 236.397 486.753 236.397 489.173C236.397 491.592 240.435 493.554 245.417 493.554Z" stroke="#3F3D56" stroke-miterlimit="10"/>
<path d="M249.551 510.843C254.533 510.843 258.571 508.881 258.571 506.461C258.571 504.042 254.533 502.08 249.551 502.08C244.57 502.08 240.531 504.042 240.531 506.461C240.531 508.881 244.57 510.843 249.551 510.843Z" fill="#57B894"/>
<path d="M248.424 510.091C253.405 510.091 257.444 508.129 257.444 505.71C257.444 503.29 253.405 501.328 248.424 501.328C243.442 501.328 239.404 503.29 239.404 505.71C239.404 508.129 243.442 510.091 248.424 510.091Z" stroke="#3F3D56" stroke-miterlimit="10"/>
<path d="M247.672 469.5C252.654 469.5 256.692 467.538 256.692 465.119C256.692 462.699 252.654 460.737 247.672 460.737C242.69 460.737 238.652 462.699 238.652 465.119C238.652 467.538 242.69 469.5 247.672 469.5Z" fill="#57B894"/>
<path d="M246.545 468.748C251.526 468.748 255.564 466.787 255.564 464.367C255.564 461.947 251.526 459.986 246.545 459.986C241.563 459.986 237.525 461.947 237.525 464.367C237.525 466.787 241.563 468.748 246.545 468.748Z" stroke="#3F3D56" stroke-miterlimit="10"/>
<path d="M225.122 466.869C230.104 466.869 234.142 464.907 234.142 462.488C234.142 460.068 230.104 458.106 225.122 458.106C220.141 458.106 216.102 460.068 216.102 462.488C216.102 464.907 220.141 466.869 225.122 466.869Z" fill="#57B894"/>
<path d="M223.995 466.117C228.976 466.117 233.015 464.156 233.015 461.736C233.015 459.316 228.976 457.355 223.995 457.355C219.013 457.355 214.975 459.316 214.975 461.736C214.975 464.156 219.013 466.117 223.995 466.117Z" stroke="#3F3D56" stroke-miterlimit="10"/>
<path d="M235.27 457.473C240.251 457.473 244.29 455.511 244.29 453.092C244.29 450.672 240.251 448.71 235.27 448.71C230.288 448.71 226.25 450.672 226.25 453.092C226.25 455.511 230.288 457.473 235.27 457.473Z" fill="#57B894"/>
<path d="M234.142 456.721C239.124 456.721 243.162 454.76 243.162 452.34C243.162 449.92 239.124 447.959 234.142 447.959C229.16 447.959 225.122 449.92 225.122 452.34C225.122 454.76 229.16 456.721 234.142 456.721Z" stroke="#3F3D56" stroke-miterlimit="10"/>
<path d="M257.443 459.352C262.425 459.352 266.463 457.391 266.463 454.971C266.463 452.551 262.425 450.59 257.443 450.59C252.462 450.59 248.424 452.551 248.424 454.971C248.424 457.391 252.462 459.352 257.443 459.352Z" fill="#57B894"/>
<path d="M256.316 458.6C261.298 458.6 265.336 456.639 265.336 454.219C265.336 451.799 261.298 449.838 256.316 449.838C251.334 449.838 247.296 451.799 247.296 454.219C247.296 456.639 251.334 458.6 256.316 458.6Z" stroke="#3F3D56" stroke-miterlimit="10"/>
<path d="M273.98 471.755C278.962 471.755 283 469.793 283 467.374C283 464.954 278.962 462.992 273.98 462.992C268.999 462.992 264.96 464.954 264.96 467.374C264.96 469.793 268.999 471.755 273.98 471.755Z" fill="#57B894"/>
<path d="M272.853 471.003C277.834 471.003 281.873 469.042 281.873 466.622C281.873 464.202 277.834 462.241 272.853 462.241C267.871 462.241 263.833 464.202 263.833 466.622C263.833 469.042 267.871 471.003 272.853 471.003Z" stroke="#3F3D56" stroke-miterlimit="10"/>
<path d="M215.726 449.956C220.708 449.956 224.746 447.994 224.746 445.575C224.746 443.155 220.708 441.193 215.726 441.193C210.745 441.193 206.707 443.155 206.707 445.575C206.707 447.994 210.745 449.956 215.726 449.956Z" fill="#57B894"/>
<path d="M214.599 449.204C219.581 449.204 223.619 447.243 223.619 444.823C223.619 442.403 219.581 440.442 214.599 440.442C209.617 440.442 205.579 442.403 205.579 444.823C205.579 447.243 209.617 449.204 214.599 449.204Z" stroke="#3F3D56" stroke-miterlimit="10"/>
<path d="M221.364 435.674C226.345 435.674 230.384 433.712 230.384 431.293C230.384 428.873 226.345 426.911 221.364 426.911C216.382 426.911 212.344 428.873 212.344 431.293C212.344 433.712 216.382 435.674 221.364 435.674Z" fill="#57B894"/>
<path d="M220.236 434.922C225.218 434.922 229.256 432.961 229.256 430.541C229.256 428.121 225.218 426.16 220.236 426.16C215.255 426.16 211.217 428.121 211.217 430.541C211.217 432.961 215.255 434.922 220.236 434.922Z" stroke="#3F3D56" stroke-miterlimit="10"/>
<path d="M273.604 446.198C278.586 446.198 282.624 444.236 282.624 441.816C282.624 439.397 278.586 437.435 273.604 437.435C268.623 437.435 264.584 439.397 264.584 441.816C264.584 444.236 268.623 446.198 273.604 446.198Z" fill="#57B894"/>
<path d="M272.477 445.446C277.458 445.446 281.497 443.484 281.497 441.065C281.497 438.645 277.458 436.683 272.477 436.683C267.495 436.683 263.457 438.645 263.457 441.065C263.457 443.484 267.495 445.446 272.477 445.446Z" stroke="#3F3D56" stroke-miterlimit="10"/>
<path d="M190.546 480.775C195.527 480.775 199.566 478.814 199.566 476.394C199.566 473.974 195.527 472.013 190.546 472.013C185.564 472.013 181.526 473.974 181.526 476.394C181.526 478.814 185.564 480.775 190.546 480.775Z" fill="#57B894"/>
<path d="M189.418 480.024C194.4 480.024 198.438 478.062 198.438 475.642C198.438 473.223 194.4 471.261 189.418 471.261C184.437 471.261 180.398 473.223 180.398 475.642C180.398 478.062 184.437 480.024 189.418 480.024Z" stroke="#3F3D56" stroke-miterlimit="10"/>
<path d="M221.74 478.52C226.721 478.52 230.76 476.559 230.76 474.139C230.76 471.719 226.721 469.758 221.74 469.758C216.758 469.758 212.72 471.719 212.72 474.139C212.72 476.559 216.758 478.52 221.74 478.52Z" fill="#57B894"/>
<path d="M220.612 477.768C225.594 477.768 229.632 475.807 229.632 473.387C229.632 470.967 225.594 469.006 220.612 469.006C215.631 469.006 211.592 470.967 211.592 473.387C211.592 475.807 215.631 477.768 220.612 477.768Z" stroke="#3F3D56" stroke-miterlimit="10"/>
<path d="M262.705 481.903C267.687 481.903 271.725 479.941 271.725 477.521C271.725 475.102 267.687 473.14 262.705 473.14C257.724 473.14 253.685 475.102 253.685 477.521C253.685 479.941 257.724 481.903 262.705 481.903Z" fill="#57B894"/>
<path d="M261.578 481.151C266.559 481.151 270.598 479.19 270.598 476.77C270.598 474.35 266.559 472.389 261.578 472.389C256.596 472.389 252.558 474.35 252.558 476.77C252.558 479.19 256.596 481.151 261.578 481.151Z" stroke="#3F3D56" stroke-miterlimit="10"/>
<path d="M240.907 483.406C245.889 483.406 249.927 481.445 249.927 479.025C249.927 476.605 245.889 474.644 240.907 474.644C235.926 474.644 231.887 476.605 231.887 479.025C231.887 481.445 235.926 483.406 240.907 483.406Z" fill="#57B894"/>
<path d="M239.779 482.654C244.761 482.654 248.799 480.693 248.799 478.273C248.799 475.853 244.761 473.892 239.779 473.892C234.798 473.892 230.76 475.853 230.76 478.273C230.76 480.693 234.798 482.654 239.779 482.654Z" stroke="#3F3D56" stroke-miterlimit="10"/>
<path d="M242.41 445.822C247.392 445.822 251.43 443.86 251.43 441.44C251.43 439.021 247.392 437.059 242.41 437.059C237.429 437.059 233.39 439.021 233.39 441.44C233.39 443.86 237.429 445.822 242.41 445.822Z" fill="#57B894"/>
<path d="M241.283 445.07C246.264 445.07 250.303 443.108 250.303 440.689C250.303 438.269 246.264 436.307 241.283 436.307C236.301 436.307 232.263 438.269 232.263 440.689C232.263 443.108 236.301 445.07 241.283 445.07Z" stroke="#3F3D56" stroke-miterlimit="10"/>
<path d="M203.7 469.124C208.681 469.124 212.72 467.162 212.72 464.743C212.72 462.323 208.681 460.361 203.7 460.361C198.718 460.361 194.68 462.323 194.68 464.743C194.68 467.162 198.718 469.124 203.7 469.124Z" fill="#57B894"/>
<path d="M202.572 468.372C207.554 468.372 211.592 466.411 211.592 463.991C211.592 461.571 207.554 459.61 202.572 459.61C197.591 459.61 193.552 461.571 193.552 463.991C193.552 466.411 197.591 468.372 202.572 468.372Z" stroke="#3F3D56" stroke-miterlimit="10"/>
<path d="M208.962 486.037C213.943 486.037 217.981 484.075 217.981 481.656C217.981 479.236 213.943 477.274 208.962 477.274C203.98 477.274 199.942 479.236 199.942 481.656C199.942 484.075 203.98 486.037 208.962 486.037Z" fill="#57B894"/>
<path d="M207.834 485.285C212.815 485.285 216.854 483.324 216.854 480.904C216.854 478.484 212.815 476.523 207.834 476.523C202.852 476.523 198.814 478.484 198.814 480.904C198.814 483.324 202.852 485.285 207.834 485.285Z" stroke="#3F3D56" stroke-miterlimit="10"/>
<g opacity="0.3">
<path d="M209.171 511.571C210.445 509.293 210.677 506.999 209.69 506.448C208.704 505.896 206.872 507.296 205.599 509.574C204.325 511.852 204.093 514.146 205.08 514.698C206.066 515.249 207.898 513.849 209.171 511.571Z" fill="#57B894"/>
<path d="M208.577 511.915C209.85 509.637 210.082 507.343 209.096 506.792C208.109 506.241 206.277 507.64 205.004 509.919C203.731 512.197 203.498 514.491 204.485 515.042C205.471 515.594 207.303 514.194 208.577 511.915Z" stroke="#3F3D56" stroke-miterlimit="10"/>
</g>
<g opacity="0.3">
<path d="M256.187 522.493C256.941 521.65 255.975 519.557 254.031 517.816C252.086 516.076 249.899 515.347 249.145 516.19C248.391 517.032 249.357 519.126 251.301 520.866C253.246 522.607 255.433 523.335 256.187 522.493Z" fill="#57B894"/>
<path d="M255.981 521.837C256.735 520.995 255.769 518.901 253.825 517.161C251.88 515.42 249.692 514.692 248.939 515.534C248.185 516.376 249.15 518.47 251.095 520.211C253.04 521.951 255.227 522.679 255.981 521.837Z" stroke="#3F3D56" stroke-miterlimit="10"/>
</g>
<g opacity="0.3">
<path d="M214.094 498.815C214.848 497.972 213.883 495.879 211.938 494.138C209.993 492.398 207.806 491.669 207.052 492.512C206.298 493.354 207.264 495.447 209.208 497.188C211.153 498.929 213.341 499.657 214.094 498.815Z" fill="#57B894"/>
<path d="M213.888 498.159C214.642 497.317 213.677 495.223 211.732 493.483C209.787 491.742 207.6 491.014 206.846 491.856C206.092 492.698 207.058 494.792 209.002 496.532C210.947 498.273 213.135 499.001 213.888 498.159Z" stroke="#3F3D56" stroke-miterlimit="10"/>
</g>
</g>
<g clip-path="url(#clip2_1_666)">
<path d="M1330.43 545.961C1330.46 544.84 1330.28 543.723 1329.88 542.674C1329.49 541.624 1328.89 540.663 1328.12 539.846C1327.35 539.029 1326.43 538.371 1325.41 537.911C1324.39 537.45 1323.29 537.196 1322.17 537.162L1298.64 536.459L1278.69 519.785C1278.61 518.901 1278.28 518.058 1277.75 517.352C1277.21 516.646 1276.49 516.104 1275.66 515.79C1274.83 515.475 1273.93 515.4 1273.06 515.573C1272.19 515.745 1271.39 516.159 1270.74 516.766C1270.09 517.374 1269.63 518.151 1269.4 519.009C1269.18 519.867 1269.19 520.771 1269.45 521.619C1269.72 522.467 1270.21 523.225 1270.88 523.806C1271.55 524.387 1272.37 524.768 1273.24 524.906L1294.15 548.753L1320.22 554.049C1321.43 554.296 1322.69 554.275 1323.89 553.986C1325.1 553.698 1326.23 553.149 1327.2 552.379C1328.17 551.609 1328.96 550.636 1329.52 549.527C1330.08 548.419 1330.39 547.202 1330.43 545.961Z" fill="#9E616A"/>
<path d="M1298.47 551.862L1301.55 535.897L1301.66 535.819C1302.31 535.309 1303.1 535.008 1303.93 534.956C1304.76 534.903 1305.58 535.101 1306.29 535.525L1306.47 535.63L1327.24 536.19L1329.68 537.622L1331.08 537.279C1335.32 536.243 1339.61 535.54 1342.22 537.399C1343.7 538.448 1344.54 540.196 1344.78 542.739C1344.96 544.565 1344.72 546.408 1344.09 548.13C1343.46 549.853 1342.45 551.411 1341.14 552.69C1339.83 553.97 1338.24 554.937 1336.51 555.521C1334.77 556.104 1332.92 556.289 1331.1 556.062L1330.06 555.921L1326.64 554.537L1321.35 555.166L1318.18 553.864L1298.47 551.862Z" fill="#3F3D56"/>
<path d="M1218.04 728.357C1218.11 731.672 1217.65 734.977 1216.68 738.149C1216.65 738.264 1216.61 738.379 1216.57 738.494H1196.64C1196.93 737.09 1197.38 735.725 1197.99 734.429C1199.65 730.905 1202.36 727.89 1205.03 724.894C1208.71 720.768 1212.31 716.675 1212.87 711.308C1214.33 713.536 1215.5 715.943 1216.34 718.471C1215.31 718.853 1214.36 719.433 1213.56 720.178C1213.33 720.388 1213.1 720.693 1213.21 720.985C1213.32 721.229 1213.62 721.31 1213.88 721.364C1214.52 721.486 1215.15 721.608 1215.79 721.723C1216.29 721.825 1216.8 721.92 1217.31 722.015C1217.75 724.1 1218 726.224 1218.04 728.357Z" fill="#E6E6E6"/>
<path d="M1234.78 726.162C1231.58 728.106 1229.55 731.115 1227.89 734.483C1226.45 734.812 1225.12 735.513 1224.03 736.516C1223.8 736.726 1223.56 737.031 1223.68 737.322C1223.78 737.566 1224.09 737.647 1224.35 737.701C1224.98 737.823 1225.63 737.945 1226.25 738.061C1226.19 738.203 1226.13 738.352 1226.07 738.494H1204.95C1205.91 737.2 1206.97 735.985 1208.13 734.862C1208.38 734.611 1208.64 734.374 1208.9 734.13C1211.59 731.695 1214.68 729.742 1218.04 728.357C1223.32 726.145 1229.1 725.387 1234.78 726.162Z" fill="#E6E6E6"/>
<path d="M1208.47 738.494H1189.67C1189.57 736.987 1189.58 735.474 1189.7 733.968C1190.11 729.306 1191.52 724.788 1193.84 720.725C1196.16 716.662 1199.33 713.151 1203.13 710.434C1202.16 713.91 1202.66 717.366 1203.68 720.836C1203.53 720.883 1203.39 720.924 1203.26 720.978C1202.23 721.36 1201.29 721.94 1200.48 722.685C1200.26 722.896 1200.02 723.2 1200.14 723.492C1200.24 723.736 1200.54 723.817 1200.81 723.871C1201.44 723.993 1202.08 724.115 1202.71 724.23C1203.22 724.332 1203.72 724.427 1204.23 724.529C1204.47 724.569 1204.7 724.617 1204.94 724.664C1204.97 724.745 1205 724.82 1205.03 724.895C1206.22 728.181 1207.52 731.495 1208.13 734.862C1208.28 735.707 1208.38 736.56 1208.44 737.417C1208.46 737.776 1208.47 738.135 1208.47 738.494Z" fill="#E6E6E6"/>
<path d="M1126.85 709.205C1127.06 718.784 1125.74 728.333 1122.94 737.496C1122.85 737.829 1122.73 738.161 1122.61 738.494H1065.04C1065.86 734.437 1067.17 730.493 1068.93 726.747C1073.72 716.567 1081.54 707.855 1089.27 699.201C1099.91 687.278 1110.29 675.453 1111.93 659.947C1116.15 666.383 1119.52 673.339 1121.95 680.641C1118.97 681.744 1116.24 683.421 1113.91 685.575C1113.26 686.182 1112.58 687.063 1112.91 687.904C1113.22 688.609 1114.08 688.844 1114.85 689.001C1116.69 689.353 1118.52 689.706 1120.36 690.039C1121.81 690.332 1123.28 690.606 1124.74 690.88C1126.03 696.907 1126.74 703.043 1126.85 709.205Z" fill="#E6E6E6"/>
<path d="M1175.21 702.862C1165.98 708.481 1160.12 717.174 1155.33 726.904C1151.16 727.855 1147.31 729.88 1144.16 732.777C1143.5 733.384 1142.81 734.265 1143.16 735.107C1143.46 735.812 1144.34 736.047 1145.1 736.204C1146.92 736.556 1148.78 736.908 1150.59 737.241C1150.42 737.652 1150.24 738.083 1150.07 738.494H1089.05C1091.82 734.755 1094.89 731.245 1098.22 728C1098.95 727.276 1099.69 726.591 1100.45 725.886C1108.23 718.849 1117.16 713.206 1126.85 709.205C1142.12 702.815 1158.82 700.625 1175.21 702.862Z" fill="#E6E6E6"/>
<path d="M1099.22 738.494H1044.9C1044.6 734.139 1044.63 729.768 1044.98 725.416C1047.15 698.535 1061.75 672.927 1083.79 657.421C1080.98 667.465 1082.42 677.45 1085.36 687.474C1084.95 687.611 1084.54 687.728 1084.16 687.885C1081.19 688.988 1078.46 690.664 1076.13 692.819C1075.48 693.426 1074.8 694.307 1075.13 695.148C1075.42 695.853 1076.3 696.088 1077.07 696.245C1078.9 696.597 1080.74 696.95 1082.56 697.282C1084.03 697.576 1085.49 697.85 1086.96 698.144C1087.65 698.261 1088.33 698.398 1089.01 698.535C1089.11 698.77 1089.17 698.986 1089.27 699.201C1092.71 708.696 1096.46 718.27 1098.22 728.001C1098.66 730.442 1098.96 732.906 1099.12 735.381C1099.18 736.419 1099.22 737.457 1099.22 738.494Z" fill="#E6E6E6"/>
<path d="M1335.32 709.205C1335.52 718.784 1334.2 728.333 1331.41 737.496C1331.31 737.829 1331.19 738.161 1331.08 738.494H1273.5C1274.33 734.437 1275.63 730.493 1277.4 726.747C1282.19 716.567 1290.01 707.855 1297.73 699.201C1308.37 687.278 1318.76 675.453 1320.4 659.947C1324.62 666.383 1327.98 673.339 1330.41 680.641C1327.44 681.744 1324.71 683.421 1322.37 685.575C1321.73 686.182 1321.04 687.063 1321.38 687.904C1321.69 688.609 1322.55 688.844 1323.31 689.001C1325.15 689.353 1326.99 689.706 1328.83 690.039C1330.27 690.332 1331.74 690.606 1333.21 690.88C1334.5 696.907 1335.2 703.043 1335.32 709.205Z" fill="#E6E6E6"/>
<path d="M1383.68 702.862C1374.45 708.481 1368.58 717.174 1363.79 726.904C1359.62 727.855 1355.77 729.88 1352.63 732.777C1351.96 733.384 1351.28 734.265 1351.63 735.107C1351.92 735.812 1352.8 736.047 1353.56 736.204C1355.38 736.556 1357.24 736.908 1359.06 737.241C1358.88 737.652 1358.71 738.083 1358.53 738.494H1297.52C1300.29 734.755 1303.36 731.245 1306.69 728C1307.41 727.276 1308.16 726.591 1308.92 725.886C1316.7 718.849 1325.63 713.206 1335.32 709.205C1350.59 702.815 1367.28 700.625 1383.68 702.862Z" fill="#E6E6E6"/>
<path d="M1307.69 738.494H1253.36C1253.07 734.139 1253.09 729.768 1253.44 725.416C1255.61 698.535 1270.22 672.927 1292.26 657.421C1289.44 667.465 1290.89 677.45 1293.82 687.474C1293.41 687.611 1293 687.728 1292.63 687.885C1289.65 688.988 1286.92 690.664 1284.59 692.819C1283.95 693.426 1283.26 694.307 1283.6 695.148C1283.89 695.853 1284.77 696.088 1285.53 696.245C1287.37 696.597 1289.21 696.95 1291.03 697.282C1292.49 697.576 1293.96 697.85 1295.43 698.144C1296.11 698.261 1296.8 698.398 1297.48 698.535C1297.58 698.77 1297.64 698.986 1297.73 699.201C1301.18 708.696 1304.93 718.27 1306.69 728.001C1307.13 730.442 1307.43 732.906 1307.59 735.381C1307.65 736.419 1307.69 737.457 1307.69 738.494Z" fill="#E6E6E6"/>
<path d="M1215.26 550.794C1215.25 561.212 1211.5 571.279 1204.69 579.154C1197.87 587.029 1188.45 592.183 1178.16 593.675C1167.86 595.166 1157.37 592.894 1148.6 587.275C1139.84 581.655 1133.39 573.065 1130.44 563.075C1127.49 553.085 1128.23 542.365 1132.52 532.877C1136.82 523.388 1144.39 515.766 1153.84 511.405C1163.29 507.045 1173.99 506.238 1183.99 509.132C1193.98 512.026 1202.6 518.428 1208.27 527.165C1207.62 527.743 1207.01 528.366 1206.44 529.028C1206.29 529.198 1206.15 529.381 1206 529.557C1205.79 529.814 1205.6 530.072 1205.41 530.336C1205.18 530.641 1204.97 530.953 1204.77 531.271C1203.77 532.832 1203 534.533 1202.5 536.32C1203.81 534.74 1205.36 533.367 1207.08 532.247C1207.12 532.223 1207.15 532.202 1207.19 532.186C1207.36 532.078 1207.53 531.969 1207.71 531.861C1208.46 531.402 1209.24 530.99 1210.04 530.628C1210.11 530.601 1210.18 530.567 1210.25 530.54C1213.55 536.778 1215.27 543.733 1215.26 550.794Z" fill="#059B49"/>
<path d="M1192.14 738.521C1191.24 737.776 1190.36 737.01 1189.5 736.211C1182.64 729.751 1177.25 721.886 1173.69 713.151C1170.78 706.105 1169.08 698.619 1168.66 691.007C1168.55 689.204 1168.53 687.409 1168.58 685.613C1168.7 680.929 1169.35 676.274 1170.51 671.735C1171.87 666.463 1173.91 661.401 1176.05 656.401C1177.11 653.927 1178.21 651.447 1179.26 648.947C1182.48 641.344 1185.38 633.558 1185.83 625.257C1186.38 614.562 1183.26 603.999 1176.98 595.327C1176.22 594.27 1177.98 593.253 1178.73 594.304C1179.51 595.367 1180.24 596.465 1180.93 597.597C1186.42 606.703 1188.77 617.359 1187.63 627.934C1186.81 635.137 1184.38 641.906 1181.6 648.547C1180.17 651.989 1178.65 655.391 1177.22 658.813C1176.78 659.843 1176.36 660.873 1175.94 661.916C1174.33 665.831 1173.03 669.867 1172.05 673.985C1171.03 678.539 1170.54 683.196 1170.58 687.863C1170.6 689.096 1170.64 690.322 1170.72 691.549C1171.25 699.671 1173.28 707.624 1176.7 715.008C1180.62 723.532 1186.39 731.075 1193.58 737.085C1194.59 737.918 1193.14 739.348 1192.14 738.521Z" fill="#3F3D56"/>
<path d="M1190.48 552.339C1187.7 549.276 1182.91 549.316 1179.08 549.391C1178.08 549.411 1177.08 549.466 1176.09 549.54C1176.49 549.371 1176.89 549.208 1177.28 549.039C1179.28 548.199 1181.22 547.225 1183.09 546.125C1184.41 545.312 1185.86 544.343 1186.64 542.96C1189.1 538.617 1188.61 532.2 1184.49 529.056C1181.65 526.88 1178.1 526.698 1174.56 527.097C1174.57 526.966 1174.55 526.835 1174.51 526.711C1173.13 522.696 1172.66 518.422 1173.14 514.202C1173.14 513.933 1173.03 513.675 1172.84 513.484C1172.65 513.294 1172.4 513.187 1172.13 513.186C1171.86 513.191 1171.6 513.3 1171.42 513.489C1171.23 513.679 1171.12 513.934 1171.11 514.202C1170.62 518.605 1171.11 523.063 1172.55 527.253C1172.57 527.301 1172.59 527.335 1172.61 527.375C1170.9 527.66 1169.22 528.026 1167.67 528.31C1165.62 528.69 1163.57 529.069 1161.53 529.449C1160.53 524.922 1159.48 520.409 1158.37 515.91C1158.06 514.643 1156.1 515.178 1156.42 516.452C1157.52 520.897 1158.56 525.354 1159.54 529.821C1154.25 530.797 1148.95 531.777 1143.67 532.762C1142.38 532.999 1142.93 534.958 1144.21 534.721C1149.46 533.752 1154.71 532.778 1159.96 531.8C1162.85 545.19 1165.19 558.681 1166.98 572.274C1167.11 573.209 1167.21 574.144 1167.33 575.086C1162.28 575.889 1157.18 576.27 1152.07 576.225C1150.76 576.211 1150.76 578.244 1152.07 578.258C1157.26 578.302 1162.45 577.914 1167.58 577.099C1168.03 580.839 1168.46 584.587 1168.83 588.341C1168.96 589.628 1170.99 589.642 1170.86 588.341C1170.48 584.478 1170.04 580.616 1169.57 576.76C1171.25 576.462 1172.92 576.116 1174.57 575.723C1176.84 575.21 1179.08 574.582 1181.29 573.84C1182.23 578.237 1183.18 582.635 1184.12 587.033C1184.4 588.307 1186.35 587.765 1186.08 586.491C1185.12 582.032 1184.16 577.573 1183.21 573.115C1186.08 571.908 1188.74 570.289 1190.71 567.917C1192.55 565.726 1193.54 562.945 1193.5 560.084C1193.45 557.222 1192.38 554.473 1190.48 552.339ZM1162.02 531.671C1162 531.59 1161.98 531.509 1161.97 531.427C1162.68 531.299 1163.39 531.163 1164.1 531.034C1167.21 530.458 1170.32 529.808 1173.45 529.327C1175.99 528.94 1178.71 528.724 1181.18 529.557C1186.08 531.21 1187.09 537.133 1185.14 541.422C1184.56 542.703 1183.44 543.516 1182.22 544.275C1180.52 545.294 1178.76 546.197 1176.94 546.979C1174.81 547.934 1172.64 548.801 1170.48 549.703C1169.16 550.258 1167.79 550.807 1166.51 551.485C1166.3 551.582 1166.1 551.691 1165.91 551.81C1164.74 545.075 1163.45 538.362 1162.02 531.671ZM1189.7 565.938C1186.52 570.424 1180.49 572.125 1175.44 573.413C1173.42 573.934 1171.38 574.375 1169.33 574.748C1168.45 567.754 1167.42 560.786 1166.25 553.843C1166.41 553.83 1166.57 553.779 1166.71 553.694C1166.92 553.565 1167.13 553.457 1167.34 553.342C1168.47 552.847 1169.65 552.494 1170.85 552.291C1172.89 551.877 1174.96 551.614 1177.04 551.505C1179.17 551.359 1181.3 551.38 1183.42 551.566C1184.89 551.708 1186.52 551.939 1187.78 552.65C1189.61 553.687 1190.94 556.411 1191.36 558.593C1191.59 559.866 1191.56 561.173 1191.28 562.436C1190.99 563.698 1190.46 564.89 1189.7 565.938Z" fill="#2F2E41"/>
<path d="M1177.21 719.717C1176.11 719.413 1175.02 719.076 1173.93 718.708C1165.12 715.648 1157.06 710.739 1150.3 704.308C1143.54 697.935 1138.16 690.238 1134.49 681.696C1132.66 677.417 1131.3 672.946 1130.46 668.367C1130 665.766 1129.68 663.142 1129.49 660.507C1129.26 657.302 1129.18 654.076 1129.13 650.864C1129.05 643.587 1129.16 636.147 1128.06 628.937C1127.47 624.757 1126.34 620.673 1124.69 616.787C1120.72 607.651 1113.95 600.018 1105.35 594.995C1104.22 594.337 1105.24 592.582 1106.37 593.24C1107.42 593.85 1108.45 594.493 1109.45 595.184C1117.61 600.814 1123.86 608.789 1127.39 618.054C1128.64 621.427 1129.53 624.922 1130.06 628.483C1131.28 636.418 1131.05 644.603 1131.19 652.606C1131.24 655.33 1131.33 658.061 1131.55 660.785C1131.76 663.717 1132.16 666.633 1132.75 669.513C1133.7 674.014 1135.16 678.395 1137.09 682.57C1141.01 690.988 1146.65 698.492 1153.64 704.6C1160.6 710.722 1168.83 715.217 1177.75 717.759C1179 718.111 1178.47 720.077 1177.21 719.717Z" fill="#3F3D56"/>
<path d="M1100.19 595.923C1093.89 598.72 1087.01 599.971 1080.13 599.573C1073.25 599.176 1066.56 597.14 1060.63 593.636C1054.69 590.131 1049.67 585.26 1046 579.425C1042.32 573.59 1040.08 566.961 1039.48 560.088C1038.87 553.215 1039.91 546.296 1042.52 539.907C1045.12 533.518 1049.2 527.842 1054.44 523.352C1059.67 518.862 1065.9 515.686 1072.6 514.089C1079.3 512.491 1086.29 512.519 1092.98 514.168C1092.79 514.439 1092.6 514.724 1092.42 515.009C1091.41 516.569 1090.65 518.271 1090.14 520.057C1091.46 518.477 1093 517.104 1094.72 515.984C1094.76 515.96 1094.8 515.94 1094.84 515.923C1095.01 515.815 1095.18 515.706 1095.35 515.598C1095.64 515.422 1095.92 515.259 1096.21 515.103C1102.37 517.136 1107.99 520.526 1112.67 525.024C1112.02 525.471 1111.39 525.96 1110.81 526.487C1110.15 527.066 1109.54 527.689 1108.98 528.351C1108.83 528.52 1108.68 528.703 1108.54 528.879C1108.33 529.137 1108.13 529.394 1107.94 529.659C1107.92 529.693 1107.9 529.72 1107.88 529.754C1107.68 530.025 1107.49 530.309 1107.31 530.594C1106.3 532.155 1105.54 533.856 1105.03 535.642C1106.35 534.063 1107.89 532.69 1109.61 531.57C1109.65 531.545 1109.69 531.525 1109.73 531.509C1109.9 531.4 1110.07 531.292 1110.24 531.183C1110.53 531.007 1110.81 530.845 1111.1 530.689C1111.58 530.424 1112.08 530.18 1112.58 529.95C1112.65 529.923 1112.71 529.889 1112.78 529.862C1113.85 529.393 1114.96 529.015 1116.09 528.73C1120.33 533.897 1123.31 539.973 1124.82 546.484C1126.32 552.996 1126.31 559.768 1124.77 566.272C1123.23 572.775 1120.21 578.835 1115.94 583.978C1111.68 589.122 1106.29 593.209 1100.19 595.923Z" fill="#059B49"/>
<path d="M1110.01 583.17C1107.33 579.484 1104.64 575.798 1101.96 572.111C1104.11 569.841 1105.88 567.28 1106.72 564.312C1107.52 561.563 1107.29 558.619 1106.09 556.022C1104.89 553.425 1102.8 551.347 1100.19 550.17C1096.42 548.496 1092.06 550.475 1088.59 552.101C1087.68 552.522 1086.79 552.976 1085.91 553.45C1086.2 553.138 1086.51 552.826 1086.8 552.508C1088.28 550.926 1089.66 549.246 1090.93 547.48C1091.81 546.206 1092.74 544.729 1092.89 543.15C1093.38 538.19 1090.34 532.518 1085.3 531.312C1081.82 530.479 1078.49 531.746 1075.43 533.555C1075.38 533.432 1075.31 533.32 1075.22 533.223C1072.33 530.115 1070.17 526.396 1068.91 522.34C1068.8 522.095 1068.6 521.903 1068.35 521.806C1068.09 521.71 1067.82 521.717 1067.57 521.825C1067.33 521.939 1067.14 522.142 1067.04 522.392C1066.95 522.643 1066.95 522.92 1067.06 523.167C1068.38 527.392 1070.63 531.267 1073.65 534.51C1073.68 534.542 1073.72 534.571 1073.76 534.598C1072.31 535.554 1070.92 536.564 1069.62 537.458C1067.9 538.637 1066.18 539.816 1064.46 540.995C1061.72 537.262 1058.94 533.562 1056.1 529.896C1055.3 528.866 1053.73 530.153 1054.53 531.183C1057.34 534.802 1060.09 538.454 1062.8 542.14C1058.36 545.183 1053.92 548.225 1049.48 551.268C1048.4 552.007 1049.69 553.579 1050.76 552.847C1055.17 549.825 1059.58 546.802 1063.99 543.78C1072.04 554.846 1079.64 566.227 1086.79 577.925C1087.29 578.732 1087.76 579.545 1088.25 580.351C1083.96 583.138 1079.45 585.558 1074.76 587.588C1073.56 588.11 1074.38 589.967 1075.58 589.445C1080.35 587.379 1084.93 584.92 1089.29 582.093C1091.22 585.332 1093.13 588.584 1094.99 591.864C1095.62 592.989 1097.49 592.176 1096.84 591.037C1094.93 587.663 1092.97 584.311 1090.97 580.982C1092.38 580.026 1093.77 579.032 1095.13 578C1097 576.609 1098.79 575.126 1100.5 573.555C1103.15 577.187 1105.8 580.821 1108.44 584.458C1109.2 585.515 1110.77 584.227 1110.01 583.17ZM1077.52 559.657C1073.73 553.965 1069.83 548.354 1065.82 542.825C1065.77 542.757 1065.72 542.689 1065.67 542.628C1066.26 542.215 1066.86 541.808 1067.46 541.395C1070.07 539.606 1072.65 537.756 1075.31 536.042C1077.47 534.659 1079.87 533.358 1082.47 533.121C1087.62 532.64 1090.94 537.641 1090.9 542.35C1090.89 543.767 1090.19 544.959 1089.38 546.145C1088.25 547.768 1087 549.31 1085.65 550.76C1084.08 552.501 1082.46 554.175 1080.86 555.876C1079.86 556.919 1078.84 557.976 1077.94 559.115C1077.79 559.291 1077.65 559.467 1077.52 559.657ZM1094.99 575.533C1093.35 576.828 1091.66 578.061 1089.94 579.233C1086.3 573.202 1082.55 567.248 1078.66 561.371C1078.8 561.296 1078.93 561.186 1079.01 561.053C1079.16 560.856 1079.31 560.667 1079.45 560.477C1080.28 559.57 1081.22 558.769 1082.24 558.092C1083.94 556.884 1085.72 555.804 1087.58 554.859C1089.46 553.867 1091.42 553.019 1093.44 552.325C1094.84 551.857 1096.42 551.41 1097.85 551.546C1099.95 551.749 1102.27 553.701 1103.54 555.53C1104.26 556.599 1104.77 557.805 1105.02 559.074C1105.27 560.344 1105.26 561.65 1104.99 562.916C1103.9 568.31 1099.08 572.308 1094.99 575.533Z" fill="#2F2E41"/>
<path d="M1224.84 551.672C1221.96 561.684 1222.78 572.399 1227.15 581.854C1231.52 591.309 1239.15 598.872 1248.63 603.159C1258.11 607.446 1268.82 608.17 1278.8 605.198C1288.77 602.227 1297.34 595.759 1302.94 586.978C1308.54 578.197 1310.79 567.691 1309.29 557.382C1307.78 547.074 1302.62 537.653 1294.74 530.844C1286.87 524.035 1276.81 520.293 1266.4 520.304C1256 520.315 1245.94 524.077 1238.08 530.902C1238.55 531.639 1238.96 532.406 1239.32 533.2C1239.42 533.404 1239.51 533.621 1239.6 533.829C1239.73 534.135 1239.85 534.437 1239.95 534.743C1240.08 535.098 1240.2 535.456 1240.31 535.818C1240.84 537.596 1241.11 539.443 1241.1 541.299C1240.27 539.417 1239.17 537.67 1237.82 536.116C1237.79 536.083 1237.76 536.052 1237.73 536.026C1237.59 535.875 1237.46 535.724 1237.32 535.571C1236.73 534.921 1236.09 534.309 1235.42 533.738C1235.36 533.694 1235.31 533.642 1235.25 533.597C1230.35 538.677 1226.77 544.884 1224.84 551.672Z" fill="#059B49"/>
<path d="M1249.32 605.057C1248.34 605.816 1247.39 606.616 1246.47 607.456C1239.11 614.227 1234.1 623.179 1232.18 633.003C1232.05 633.707 1231.93 634.419 1231.83 635.13C1230.26 646.094 1232.63 657.221 1233.79 668.117C1233.83 668.489 1233.87 668.855 1233.9 669.228C1234.48 674.338 1234.55 679.493 1234.11 684.617C1233.65 689.246 1232.68 693.811 1231.22 698.23C1228.29 707.045 1223.6 715.173 1217.44 722.123C1211.29 729.124 1203.68 734.699 1195.16 738.46C1193.98 738.975 1192.94 737.22 1194.14 736.705C1195.2 736.238 1196.26 735.75 1197.29 735.228C1205.54 731.006 1212.77 725.036 1218.48 717.732C1224.19 710.485 1228.32 702.109 1230.57 693.155C1231.71 688.622 1232.32 683.971 1232.38 679.297C1232.4 676.132 1232.25 672.967 1231.93 669.818C1231.68 667.066 1231.32 664.315 1230.97 661.571C1229.85 652.965 1228.73 644.224 1229.76 635.638C1230.08 632.948 1230.63 630.29 1231.41 627.697C1234.31 618.175 1240.06 609.773 1247.88 603.621C1248.9 602.821 1250.35 604.251 1249.32 605.057Z" fill="#3F3D56"/>
<path d="M1290.65 553.131C1289.42 550.306 1287.31 548.015 1284.88 546.057C1287.03 542.039 1289.19 538.02 1291.35 534.002C1291.95 532.85 1290.23 531.793 1289.61 532.938C1287.49 536.902 1285.37 540.866 1283.24 544.831C1281.33 543.506 1279.35 542.28 1277.31 541.158C1275.83 540.324 1274.32 539.525 1272.79 538.779C1274.31 535.202 1275.8 531.61 1277.23 528.005C1277.71 526.792 1275.76 526.243 1275.28 527.443C1273.88 530.946 1272.43 534.429 1270.97 537.899C1266.26 535.694 1261.39 533.885 1256.39 532.491C1255.12 532.139 1254.56 534.09 1255.82 534.443C1260.74 535.816 1265.54 537.595 1270.17 539.762C1269.8 540.636 1269.44 541.503 1269.06 542.371C1263.6 554.927 1257.62 567.244 1251.13 579.321C1246.35 576.923 1241.57 574.531 1236.79 572.145C1235.63 571.563 1234.56 573.291 1235.73 573.88C1240.54 576.286 1245.35 578.693 1250.17 581.104C1247.99 585.129 1245.76 589.122 1243.47 593.084C1242.82 594.222 1244.56 595.279 1245.21 594.148C1247.52 590.129 1249.77 586.084 1251.98 582.012L1257.57 584.81C1258.98 585.508 1260.48 586.328 1262.05 587.073C1262.02 587.107 1261.99 587.134 1261.96 587.175C1259.42 590.804 1257.71 594.951 1256.97 599.318C1256.9 599.577 1256.94 599.852 1257.07 600.086C1257.2 600.321 1257.41 600.497 1257.67 600.578C1257.93 600.65 1258.2 600.617 1258.44 600.486C1258.67 600.356 1258.85 600.138 1258.92 599.88C1259.62 595.691 1261.25 591.712 1263.7 588.239C1263.77 588.131 1263.83 588.009 1263.85 587.88C1267.14 589.249 1270.6 590.055 1273.94 588.754C1278.77 586.877 1281 580.839 1279.85 575.988C1279.48 574.443 1278.35 573.108 1277.31 571.962C1275.82 570.386 1274.22 568.912 1272.53 567.551C1272.2 567.28 1271.86 567.009 1271.52 566.738C1272.45 567.084 1273.4 567.416 1274.36 567.714C1278.02 568.845 1282.61 570.214 1286.12 568.039C1288.54 566.516 1290.33 564.17 1291.16 561.432C1292 558.694 1291.82 555.747 1290.65 553.131ZM1271.64 569.435C1273.17 570.692 1274.61 572.051 1275.96 573.501C1276.92 574.564 1277.77 575.655 1277.98 577.051C1278.66 581.707 1276.06 587.121 1270.89 587.351C1268.29 587.466 1265.73 586.504 1263.4 585.434C1260.52 584.105 1257.72 582.615 1254.88 581.198C1254.24 580.88 1253.59 580.555 1252.95 580.229C1252.98 580.154 1253.02 580.082 1253.07 580.013C1256.29 573.982 1259.39 567.89 1262.37 561.737C1262.52 561.906 1262.69 562.067 1262.86 562.218C1263.9 563.221 1265.06 564.129 1266.18 565.03C1268.01 566.494 1269.85 567.931 1271.64 569.435ZM1288.7 562.272C1287.7 564.251 1285.67 566.501 1283.62 566.989C1282.21 567.327 1280.58 567.097 1279.14 566.826C1277.04 566.418 1274.99 565.845 1272.98 565.112C1271.02 564.433 1269.1 563.608 1267.26 562.645C1266.15 562.114 1265.11 561.447 1264.17 560.66C1263.99 560.49 1263.83 560.328 1263.66 560.145C1263.55 560.029 1263.41 559.939 1263.26 559.88C1266.31 553.531 1269.22 547.119 1271.99 540.643C1273.87 541.571 1275.71 542.563 1277.5 543.618C1281.99 546.254 1287.32 549.56 1289.14 554.751C1289.58 555.969 1289.76 557.264 1289.69 558.557C1289.61 559.85 1289.28 561.114 1288.7 562.272Z" fill="#2F2E41"/>
<path d="M1178.18 629.942C1175.7 623.954 1171.06 618.911 1166.96 613.735C1161.99 607.428 1151.75 610.338 1151.08 618.342C1155.67 619.853 1156.27 626.493 1151.02 627.402C1152.36 641.889 1161.59 655.249 1174.43 661.963L1180.78 650.087C1181.63 643.326 1180.36 635.189 1178.18 629.942Z" fill="#3F3D56"/>
<path d="M1180.77 650.116C1180.84 649.976 1180.91 649.836 1180.98 649.696L1180.78 650.087L1180.77 650.116Z" fill="#2F2E41"/>
<path d="M1226.24 680.763C1223.76 674.776 1219.11 669.733 1215.02 664.557C1210.04 658.25 1199.8 661.159 1199.13 669.163C1203.73 670.674 1204.32 677.314 1199.07 678.223C1200.41 692.711 1209.65 706.07 1222.48 712.785L1228.83 700.909C1229.69 694.147 1228.41 686.011 1226.24 680.763Z" fill="#3F3D56"/>
<path d="M1242.3 665.053C1247.36 669.099 1253.86 671.27 1259.94 673.826C1267.34 676.945 1274.9 669.448 1271.63 662.115C1266.88 663.01 1263.16 657.483 1267.32 654.149C1259.16 642.109 1244.63 634.872 1230.15 635.195L1230.32 648.664C1232.83 655 1237.87 661.509 1242.3 665.053Z" fill="#3F3D56"/>
<path d="M1119.18 665.731C1114.12 669.777 1107.62 671.947 1101.54 674.503C1094.14 677.622 1086.58 670.125 1089.85 662.792C1094.6 663.688 1098.32 658.161 1094.16 654.827C1102.32 642.787 1116.85 635.549 1131.33 635.872L1131.16 649.341C1128.65 655.677 1123.61 662.186 1119.18 665.731Z" fill="#3F3D56"/>
<path d="M1228.83 700.937C1228.9 700.797 1228.97 700.657 1229.04 700.517L1228.83 700.909L1228.83 700.937Z" fill="#2F2E41"/>
<path d="M1311.37 577.899L1310.01 582.642L1310.69 602.293L1339.12 593.483L1341.97 574.651L1311.37 577.899Z" fill="#9E616A"/>
<path d="M1290.78 725.736L1283.75 724.366L1285.68 696.539L1296.06 698.562L1290.78 725.736Z" fill="#9E616A"/>
<path d="M1293.84 722.722L1291.48 722.118L1284.03 720.198L1282.85 719.892L1281.92 724.668L1269.92 729.918C1269.33 730.177 1268.84 730.619 1268.51 731.179C1268.19 731.739 1268.05 732.389 1268.12 733.033C1268.19 733.677 1268.47 734.281 1268.9 734.758C1269.34 735.234 1269.92 735.558 1270.56 735.681L1283.8 738.261L1287 733.982L1286.98 738.879L1291.97 739.85L1293.84 722.722Z" fill="#2F2E41"/>
<path d="M1381.31 720.971L1374.41 722.91L1363.66 697.179L1373.84 694.317L1381.31 720.971Z" fill="#9E616A"/>
<path d="M1382.69 716.904L1380.32 717.424L1372.8 719.058L1371.6 719.316L1372.92 724L1364.55 734.085C1364.14 734.583 1363.89 735.2 1363.85 735.847C1363.82 736.493 1363.98 737.135 1364.34 737.679C1364.69 738.222 1365.2 738.639 1365.81 738.868C1366.42 739.096 1367.08 739.126 1367.7 738.95L1380.69 735.3L1381.63 730.039L1383.81 734.424L1388.7 733.049L1382.69 716.904Z" fill="#2F2E41"/>
<path d="M1309.34 598.227L1341.45 588.33C1341.45 588.33 1340.47 591.451 1344.51 598.165C1348.72 605.178 1351.11 613.364 1351.21 619.809C1351.4 633.753 1353.27 647.623 1357.44 660.928L1357.8 662.083C1357.8 662.083 1367.53 670.026 1371.6 686.995L1379.99 707.601L1369.57 710.712L1342.3 669.569L1339.71 667.469C1337.82 665.941 1336.29 664.025 1335.2 661.851C1334.12 659.677 1333.52 657.296 1333.44 654.868L1325.24 641.282L1319.15 653.242L1309.31 667.264L1303.3 687.916C1301.49 697.536 1299.98 706.543 1293.77 714.1L1282.52 712.595L1290.38 665.311L1297.43 644.763L1302.71 629.355L1305.95 619.911L1309.34 598.227Z" fill="#2F2E41"/>
<path d="M1307.37 588.335C1306.94 591.043 1307.64 593.549 1307.29 596.748C1307.23 597.278 1305.88 598.518 1305.84 599.045C1305.74 600.3 1306.73 600.819 1306.76 602.009C1306.79 602.938 1305.82 604.558 1305.95 605.412C1307.34 614.418 1315.43 618.416 1345.12 599.379C1345.12 599.379 1347.75 597.8 1345.94 594.566C1345.45 593.703 1347.57 592.699 1347.75 591.487C1347.89 590.566 1346.74 589.368 1346.89 588.33C1347.06 587.106 1347.24 585.806 1347.43 584.445C1349.79 566.692 1352.26 538.575 1345.38 531.532L1341.49 524.366L1326.93 526.847L1326.88 532.994L1316.53 543.801C1316.53 543.801 1306.5 554.144 1309.92 564.129C1312.39 573.727 1311.47 578.031 1307.37 588.335Z" fill="#3F3D56"/>
<path d="M1337.09 546.967C1336.01 546.652 1334.88 546.551 1333.77 546.671C1332.66 546.792 1331.58 547.131 1330.59 547.67C1329.61 548.209 1328.74 548.936 1328.04 549.811C1327.34 550.685 1326.82 551.69 1326.5 552.767L1319.92 575.39L1298.8 590.537C1297.92 590.395 1297.02 590.501 1296.21 590.844C1295.39 591.187 1294.68 591.753 1294.17 592.478C1293.66 593.202 1293.36 594.056 1293.31 594.942C1293.26 595.828 1293.46 596.711 1293.88 597.49C1294.31 598.268 1294.94 598.912 1295.71 599.348C1296.49 599.783 1297.37 599.992 1298.25 599.952C1299.14 599.912 1299.99 599.623 1300.72 599.12C1301.45 598.616 1302.03 597.918 1302.38 597.103L1330.68 582.824L1342.34 558.893C1342.89 557.777 1343.18 556.556 1343.2 555.315C1343.23 554.074 1342.98 552.843 1342.48 551.708C1341.98 550.572 1341.24 549.56 1340.31 548.741C1339.37 547.922 1338.27 547.317 1337.09 546.967Z" fill="#9E616A"/>
<path d="M1334.77 579.416L1320.11 572.425L1320.06 572.308C1319.73 571.546 1319.64 570.703 1319.8 569.888C1319.95 569.073 1320.35 568.324 1320.94 567.739L1321.08 567.592L1326.84 547.602L1328.83 545.605L1328.85 544.159C1328.92 539.788 1329.31 535.457 1331.77 533.39C1333.15 532.221 1335.05 531.848 1337.57 532.247C1339.38 532.534 1341.1 533.225 1342.61 534.268C1344.12 535.311 1345.37 536.68 1346.28 538.274C1347.19 539.868 1347.72 541.645 1347.85 543.475C1347.98 545.305 1347.7 547.141 1347.02 548.846L1346.62 549.823L1344.43 552.791L1343.71 558.077L1341.65 560.819L1334.77 579.416Z" fill="#3F3D56"/>
<path d="M1315.09 526.565L1318.2 526.292C1317.84 525.064 1317.62 523.801 1317.54 522.524C1318.25 523.899 1319.23 525.114 1320.43 526.094L1338.27 524.518L1349.13 502.588C1346.54 494.091 1339.85 489.089 1331.41 491.689C1330.9 491.846 1330.38 492.033 1329.86 492.246C1325.06 492.887 1320.7 495.366 1317.69 499.161C1314.69 502.956 1313.27 507.772 1313.73 512.594C1309.56 520.337 1312.8 523.137 1315.09 526.565Z" fill="#2F2E41"/>
<path d="M1327.37 522.834C1334.14 522.834 1339.63 517.339 1339.63 510.56C1339.63 503.781 1334.14 498.286 1327.37 498.286C1320.6 498.286 1315.11 503.781 1315.11 510.56C1315.11 517.339 1320.6 522.834 1327.37 522.834Z" fill="#9E616A"/>
<path d="M1310.95 507.17C1312.26 508.102 1315.82 508.188 1319.93 507.877C1319.9 507.799 1319.87 507.72 1319.85 507.64C1319.49 506.412 1319.27 505.148 1319.19 503.872C1319.9 505.247 1320.89 506.461 1322.08 507.442C1322.17 507.515 1322.26 507.588 1322.36 507.66C1325.85 507.296 1329.49 506.727 1332.32 506.224C1332.52 513.567 1327.04 521.332 1329.08 525.205L1351.48 523.025C1350.82 521.355 1350.43 519.594 1350.32 517.805C1351.4 519.881 1353.08 521.577 1355.15 522.666L1357.06 522.482L1356.78 519.685C1357.99 507.143 1348.05 497.746 1335.68 495.111C1332.93 492.865 1329.4 491.801 1325.87 492.151L1323.07 492.421C1321.31 492.592 1319.6 493.109 1318.03 493.943C1316.47 494.777 1315.08 495.911 1313.96 497.28C1312.83 498.65 1311.99 500.228 1311.47 501.925C1310.95 503.622 1310.78 505.404 1310.95 507.17Z" fill="#2F2E41"/>
<path d="M1329.9 492.865C1332.7 493.362 1335.24 494.829 1337.08 497.008C1338.92 499.188 1339.93 501.943 1339.95 504.794C1339.96 504.999 1340.04 505.193 1340.19 505.335C1340.34 505.477 1340.53 505.557 1340.74 505.557C1340.94 505.557 1341.14 505.477 1341.29 505.335C1341.43 505.193 1341.52 504.999 1341.53 504.794C1341.51 501.598 1340.38 498.507 1338.33 496.053C1336.29 493.598 1333.45 491.933 1330.32 491.343C1329.32 491.164 1328.9 492.685 1329.9 492.865Z" fill="#FD6584"/>
<path d="M1439.37 739.838L988.626 740C988.46 740 988.301 739.933 988.184 739.816C988.067 739.698 988.002 739.539 988.002 739.374C988.002 739.208 988.067 739.049 988.184 738.931C988.301 738.814 988.46 738.748 988.626 738.747L1439.37 738.585C1439.54 738.585 1439.7 738.651 1439.82 738.769C1439.93 738.886 1440 739.046 1440 739.212C1440 739.378 1439.93 739.537 1439.82 739.655C1439.7 739.772 1439.54 739.838 1439.37 739.838Z" fill="#CACACA"/>
</g>
<path fill-rule="evenodd" clip-rule="evenodd" d="M138.39 153.368L125.578 157.698L117.368 146.951L121.698 159.763L110.951 167.974L123.763 163.644L131.974 174.39L127.644 161.578L138.39 153.368ZM125.807 156.949L140.017 152.146L140.312 152.701L128.393 161.807L133.195 176.017L132.641 176.312L123.535 164.393L109.325 169.195L109.03 168.641L120.949 159.535L116.146 145.325L116.701 145.03L125.807 156.949Z" fill="#145A34"/>
<path d="M423.471 530.596C426.265 539.703 435.62 545.105 444.904 542.971C435.797 545.765 430.395 555.12 432.529 564.404C429.735 555.297 420.38 549.895 411.096 552.029C420.203 549.235 425.604 539.88 423.471 530.596Z" fill="#145A34"/>
<path d="M420.904 2517.53C423.698 2526.64 433.053 2532.04 442.337 2529.9C433.23 2532.7 427.828 2542.05 429.962 2551.34C427.168 2542.23 417.813 2536.83 408.529 2538.96C417.636 2536.17 423.038 2526.81 420.904 2517.53Z" fill="#145A34"/>
<path d="M836.904 120.529C839.698 129.636 849.053 135.038 858.337 132.904C849.23 135.698 843.828 145.053 845.962 154.337C843.168 145.23 833.813 139.828 824.529 141.962C833.636 139.168 839.038 129.813 836.904 120.529Z" fill="#145A34"/>
<path fill-rule="evenodd" clip-rule="evenodd" d="M1272.39 242.368L1259.58 246.698L1251.37 235.951L1255.7 248.763L1244.95 256.974L1257.76 252.644L1265.97 263.39L1261.64 250.578L1272.39 242.368ZM1259.81 245.949L1274.02 241.146L1274.31 241.701L1262.39 250.807L1267.2 265.017L1266.64 265.312L1257.53 253.393L1243.33 258.195L1243.03 257.641L1254.95 248.535L1250.15 234.325L1250.7 234.03L1259.81 245.949Z" fill="#145A34"/>
<path fill-rule="evenodd" clip-rule="evenodd" d="M1205.47 1639.24C1210.66 1642.24 1217.31 1640.46 1220.31 1635.26C1223.3 1630.07 1221.52 1623.43 1216.33 1620.43C1211.14 1617.43 1204.49 1619.21 1201.5 1624.4C1198.5 1629.6 1200.28 1636.24 1205.47 1639.24ZM1205.76 1638.73C1210.68 1641.57 1216.96 1639.89 1219.8 1634.97C1222.64 1630.06 1220.95 1623.77 1216.04 1620.94C1211.12 1618.1 1204.84 1619.78 1202 1624.7C1199.17 1629.61 1200.85 1635.9 1205.76 1638.73Z" fill="#145A34"/>
<path fill-rule="evenodd" clip-rule="evenodd" d="M1222.82 1637.25L1226.51 1632.39L1227.01 1632.68L1224.64 1638.3C1221.87 1644.87 1223.75 1652.48 1229.26 1657L1230.62 1658.12L1230.33 1658.62L1228.68 1657.99C1222.01 1655.48 1214.48 1657.66 1210.18 1663.34L1206.5 1668.21L1205.99 1667.92L1208.37 1662.29C1211.14 1655.72 1209.26 1648.12 1203.75 1643.6L1202.38 1642.48L1202.67 1641.98L1204.32 1642.6C1210.99 1645.11 1218.52 1642.94 1222.82 1637.25ZM1225.56 1634.6L1223.29 1637.61C1218.83 1643.49 1211.04 1645.75 1204.13 1643.15C1209.83 1647.84 1211.78 1655.72 1208.91 1662.52L1207.44 1665.99L1209.72 1662.99C1214.17 1657.1 1221.97 1654.84 1228.88 1657.44C1223.17 1652.76 1221.23 1644.88 1224.1 1638.07L1225.56 1634.6Z" fill="#145A34"/>
<path fill-rule="evenodd" clip-rule="evenodd" d="M1190.4 1665.33C1195.6 1668.33 1202.24 1666.55 1205.24 1661.36C1208.24 1656.17 1206.46 1649.52 1201.26 1646.53C1196.07 1643.53 1189.43 1645.31 1186.43 1650.5C1183.43 1655.69 1185.21 1662.34 1190.4 1665.33ZM1190.7 1664.83C1195.61 1667.67 1201.89 1665.98 1204.73 1661.07C1207.57 1656.15 1205.89 1649.87 1200.97 1647.03C1196.06 1644.2 1189.77 1645.88 1186.94 1650.79C1184.1 1655.71 1185.78 1661.99 1190.7 1664.83Z" fill="#145A34"/>
<path fill-rule="evenodd" clip-rule="evenodd" d="M1231.39 1676.46C1228.39 1681.65 1221.75 1683.43 1216.56 1680.43C1211.36 1677.43 1209.58 1670.79 1212.58 1665.6C1215.58 1660.4 1222.22 1658.63 1227.42 1661.62C1232.61 1664.62 1234.39 1671.26 1231.39 1676.46ZM1230.88 1676.17C1228.05 1681.08 1221.76 1682.76 1216.85 1679.93C1211.93 1677.09 1210.25 1670.81 1213.09 1665.89C1215.92 1660.98 1222.21 1659.29 1227.12 1662.13C1232.04 1664.97 1233.72 1671.25 1230.88 1676.17Z" fill="#145A34"/>
<path fill-rule="evenodd" clip-rule="evenodd" d="M1246.46 1650.36C1243.46 1655.56 1236.82 1657.34 1231.62 1654.34C1226.43 1651.34 1224.65 1644.7 1227.65 1639.5C1230.65 1634.31 1237.29 1632.53 1242.48 1635.53C1247.68 1638.53 1249.46 1645.17 1246.46 1650.36ZM1245.95 1650.07C1243.11 1654.98 1236.83 1656.67 1231.91 1653.83C1227 1650.99 1225.32 1644.71 1228.15 1639.8C1230.99 1634.88 1237.27 1633.2 1242.19 1636.03C1247.1 1638.87 1248.79 1645.16 1245.95 1650.07Z" fill="#145A34"/>
<path fill-rule="evenodd" clip-rule="evenodd" d="M705.382 1274.46L713.066 1294.68L696.664 1308.21L716.583 1300.77L730.249 1317.53L722.565 1297.32L738.967 1283.79L719.048 1291.23L705.382 1274.46ZM711.869 1294.35L703.347 1271.93L704.202 1271.43L719.359 1290.02L741.451 1281.77L741.953 1282.64L723.762 1297.65L732.284 1320.07L731.43 1320.57L716.272 1301.97L694.181 1310.22L693.678 1309.35L711.869 1294.35Z" fill="#145A34"/>
<path fill-rule="evenodd" clip-rule="evenodd" d="M-1.91482 2148.49L13.248 2188.38L-19.117 2215.08L20.1876 2200.4L47.1555 2233.48L31.9927 2193.58L64.3577 2166.88L25.0531 2181.56L-1.91482 2148.49ZM10.8869 2187.72L-5.93004 2143.48L-4.24387 2142.5L25.666 2179.19L69.2583 2162.91L70.2495 2164.63L34.3538 2194.24L51.1708 2238.49L49.4846 2239.46L19.5747 2202.77L-24.0175 2219.05L-25.0088 2217.34L10.8869 2187.72Z" fill="#145A34"/>
<path fill-rule="evenodd" clip-rule="evenodd" d="M87.1432 1078.75L79.4845 1080L86.8039 1081.19C79.2214 1095.48 75.9047 1107.74 79.3783 1109.73C82.2928 1111.39 89.1605 1105.34 96.457 1095.3L96.75 1097.06L97.2201 1094.24C97.3989 1093.99 97.5779 1093.73 97.7569 1093.48C100.809 1095.77 103.746 1096.61 105.779 1095.45C108.864 1093.69 108.943 1087.85 106.357 1081.25L114.015 1080L106.696 1078.81C114.279 1064.52 117.595 1052.26 114.122 1050.27C111.207 1048.61 104.339 1054.66 97.043 1064.7L96.75 1062.94L96.2799 1065.76C96.1011 1066.01 95.9222 1066.27 95.7431 1066.52C92.6907 1064.23 89.754 1063.39 87.7208 1064.55C84.6363 1066.31 84.5571 1072.15 87.1432 1078.75ZM88.9885 1103.44C91.2806 1101.02 93.7722 1097.97 96.3124 1094.43L95.8914 1091.91C93.7137 1089.88 91.5583 1087.18 89.7073 1084.02C89.2047 1083.16 88.7438 1082.3 88.3252 1081.44L87.4566 1081.3C84.0854 1087.63 81.557 1093.56 80.0873 1098.36C79.1601 1101.39 78.6648 1103.94 78.6298 1105.84C78.6123 1106.79 78.7109 1107.55 78.9061 1108.11C79.0995 1108.67 79.3739 1109.01 79.6922 1109.19C80.0106 1109.37 80.4414 1109.44 81.0291 1109.32C81.6221 1109.21 82.3356 1108.91 83.1611 1108.42C84.8115 1107.44 86.7967 1105.74 88.9885 1103.44ZM89.0857 1081.56C89.4442 1082.28 89.8328 1082.99 90.251 1083.71C91.9048 1086.54 93.7987 1088.97 95.7197 1090.88L94.3083 1082.41L89.0857 1081.56ZM97.6181 1092.58C97.5824 1092.55 97.5468 1092.52 97.5111 1092.49L99.1917 1082.41L104.485 1081.55C104.083 1082.27 103.671 1082.99 103.249 1083.71C101.4 1086.87 99.5029 1089.85 97.6181 1092.58ZM98.1126 1092.96C98.2493 1093.07 98.3856 1093.17 98.5215 1093.26C101.395 1095.31 103.868 1095.82 105.465 1094.91C107.063 1094 107.845 1091.63 107.49 1088.15C107.282 1086.11 106.689 1083.79 105.724 1081.35L105.274 1081.42C104.795 1082.28 104.301 1083.15 103.793 1084.02C101.929 1087.21 100.015 1090.21 98.1126 1092.96ZM105.175 1078.56L106.043 1078.7C109.415 1072.37 111.943 1066.44 113.413 1061.64C114.34 1058.61 114.835 1056.06 114.87 1054.16C114.888 1053.21 114.789 1052.45 114.594 1051.89C114.401 1051.33 114.126 1050.99 113.808 1050.81C113.489 1050.63 113.059 1050.56 112.471 1050.68C111.878 1050.79 111.164 1051.09 110.339 1051.58C108.688 1052.56 106.703 1054.26 104.512 1056.56C102.219 1058.98 99.7278 1062.03 97.1876 1065.57L97.6086 1068.09C99.7863 1070.12 101.942 1072.82 103.793 1075.98C104.295 1076.84 104.756 1077.7 105.175 1078.56ZM97.7803 1069.12C99.7013 1071.03 101.595 1073.46 103.249 1076.29C103.667 1077.01 104.056 1077.72 104.414 1078.44L99.1917 1077.59L97.7803 1069.12ZM95.8819 1067.42C95.9176 1067.45 95.9532 1067.48 95.9889 1067.51L94.3083 1077.59L89.0152 1078.45C89.4172 1077.73 89.8292 1077.01 90.251 1076.29C92.0998 1073.13 93.9971 1070.15 95.8819 1067.42ZM95.3874 1067.04C93.4845 1069.79 91.5707 1072.79 89.7073 1075.98C89.1993 1076.85 88.7054 1077.72 88.2258 1078.58L87.7763 1078.65C86.8107 1076.21 86.2178 1073.89 86.0101 1071.85C85.6549 1068.37 86.4369 1066 88.0347 1065.09C89.6325 1064.18 92.1052 1064.69 94.9785 1066.74C95.1144 1066.83 95.2507 1066.93 95.3874 1067.04Z" fill="#145A34"/>
<path fill-rule="evenodd" clip-rule="evenodd" d="M1259.48 891.833L1269.18 905.143C1272.68 897.173 1281.33 888.722 1293.02 882.834C1311.52 873.519 1330.63 874.147 1335.71 884.237C1340.79 894.326 1329.92 910.057 1311.42 919.372C1299.73 925.26 1287.79 927.175 1279.3 925.239L1284.22 940.956L1270.13 921.618L1247.29 928.763L1266.63 914.671L1259.48 891.833ZM1278.63 923.106L1278.55 922.831C1283.28 923.015 1289.07 921.692 1294.77 918.825C1306.05 913.143 1312.69 903.547 1309.59 897.392C1306.49 891.238 1294.83 890.854 1283.54 896.537C1277.85 899.404 1273.34 903.267 1270.67 907.182L1270.5 906.949C1270.98 906.003 1271.55 905.042 1272.22 904.073C1275.67 899.085 1281.48 894.115 1288.85 890.403C1296.22 886.691 1303.67 884.984 1309.74 885.183C1315.84 885.384 1320.27 887.489 1322.09 891.096C1323.91 894.702 1322.96 899.519 1319.48 904.542C1316.04 909.53 1310.23 914.5 1302.86 918.212C1295.48 921.924 1288.03 923.631 1281.97 923.432C1280.8 923.393 1279.68 923.284 1278.63 923.106ZM1278.71 921.836C1278.55 921.831 1278.39 921.824 1278.23 921.815L1278.02 921.152C1280.63 920.849 1283.52 919.985 1286.37 918.549C1294.02 914.699 1298.51 908.197 1296.41 904.026C1294.31 899.856 1286.41 899.596 1278.77 903.447C1275.91 904.883 1273.5 906.688 1271.7 908.604L1271.29 908.043C1271.38 907.91 1271.47 907.777 1271.56 907.644C1274.13 903.928 1278.47 900.21 1283.99 897.43C1289.52 894.649 1295.09 893.377 1299.6 893.525C1304.16 893.675 1307.39 895.245 1308.69 897.842C1310 900.439 1309.34 903.965 1306.75 907.717C1304.18 911.433 1299.84 915.151 1294.32 917.932C1288.8 920.712 1283.23 921.985 1278.71 921.836ZM1295.44 904.33C1294.59 902.808 1292.58 901.825 1289.64 901.728C1286.64 901.63 1282.92 902.475 1279.22 904.34C1276.38 905.767 1274.02 907.559 1272.3 909.427L1273.58 911.172L1295.44 904.33ZM1295.59 904.625C1296.3 906.22 1295.9 908.414 1294.22 910.839C1292.52 913.305 1289.62 915.791 1285.92 917.656C1283.09 919.083 1280.24 919.913 1277.72 920.18L1277.07 918.119L1295.59 904.625ZM1270.02 905.722C1270.73 904.073 1271.67 902.383 1272.85 900.68C1277.14 894.484 1284.34 888.324 1293.47 883.727C1302.6 879.13 1311.83 877.011 1319.36 877.258C1326.93 877.507 1332.52 880.122 1334.82 884.686C1337.12 889.251 1335.89 895.295 1331.58 901.526C1327.3 907.722 1320.1 913.882 1310.97 918.479C1301.84 923.076 1292.6 925.195 1285.07 924.948C1283 924.88 1281.08 924.635 1279.34 924.222C1286.01 925.1 1294.74 923.419 1303.31 919.105C1318.29 911.56 1327.1 898.818 1322.98 890.646C1318.87 882.473 1303.39 881.964 1288.4 889.51C1279.84 893.823 1273.29 899.836 1270.02 905.722Z" fill="#145A34"/>
<path fill-rule="evenodd" clip-rule="evenodd" d="M1106.39 3701.37L1093.58 3705.7L1085.37 3694.95L1089.7 3707.76L1078.95 3715.97L1091.76 3711.64L1099.97 3722.39L1095.64 3709.58L1106.39 3701.37ZM1093.81 3704.95L1108.02 3700.15L1108.31 3700.7L1096.39 3709.81L1101.2 3724.02L1100.64 3724.31L1091.53 3712.39L1077.33 3717.2L1077.03 3716.64L1088.95 3707.53L1084.15 3693.32L1084.7 3693.03L1093.81 3704.95Z" fill="#145A34"/>
<path d="M104.236 3614.88C109.895 3633.33 128.843 3644.27 147.646 3639.95C129.201 3645.61 118.262 3664.55 122.584 3683.36C116.925 3664.91 97.977 3653.97 79.1736 3658.29C97.6188 3652.64 108.558 3633.69 104.236 3614.88Z" fill="#145A34"/>
<path fill-rule="evenodd" clip-rule="evenodd" d="M660.712 2733.35L656.558 2738.41C650.986 2745.21 641.702 2747.7 633.478 2744.6L627.349 2742.29L632.414 2746.44C639.209 2752.01 641.697 2761.3 638.598 2769.52L636.288 2775.65L640.442 2770.59C646.014 2763.79 655.298 2761.3 663.522 2764.4L669.651 2766.71L664.586 2762.56C657.791 2756.99 655.303 2747.7 658.402 2739.48L660.712 2733.35ZM655.785 2737.78L661.863 2730.37L662.718 2730.86L659.338 2739.83C656.39 2747.65 658.757 2756.48 665.22 2761.78L672.633 2767.86L672.139 2768.72L663.169 2765.34C655.347 2762.39 646.516 2764.76 641.215 2771.22L635.137 2778.63L634.282 2778.14L637.662 2769.17C640.61 2761.35 638.243 2752.52 631.78 2747.22L624.367 2741.14L624.861 2740.28L633.831 2743.66C641.653 2746.61 650.484 2744.24 655.785 2737.78Z" fill="#2F2F2F"/>
<path fill-rule="evenodd" clip-rule="evenodd" d="M135.015 3678.21L116.849 3684.35L105.207 3669.11L111.347 3687.28L96.1098 3698.92L114.276 3692.78L125.918 3708.02L119.778 3689.85L135.015 3678.21ZM117.173 3683.29L137.321 3676.48L137.739 3677.26L120.84 3690.17L127.649 3710.32L126.863 3710.74L113.952 3693.84L93.8039 3700.65L93.3856 3699.86L110.285 3686.95L103.476 3666.8L104.262 3666.39L117.173 3683.29Z" fill="#145A34"/>
<path fill-rule="evenodd" clip-rule="evenodd" d="M1117.5 3298.95L1117.41 3301.35C1117.15 3308.45 1111.53 3314.15 1104.52 3314.4L1101.95 3314.5L1104.52 3314.6C1111.53 3314.85 1117.15 3320.55 1117.41 3327.65L1117.5 3330.05L1117.59 3327.65C1117.85 3320.55 1123.47 3314.85 1130.48 3314.6L1133.05 3314.5L1130.48 3314.4C1123.47 3314.15 1117.85 3308.45 1117.59 3301.35L1117.5 3298.95ZM1117.17 3290L1117.83 3290L1118.24 3301.32C1118.49 3308.08 1123.84 3313.5 1130.5 3313.74L1142 3314.17V3314.83L1130.5 3315.26C1123.84 3315.5 1118.49 3320.92 1118.24 3327.68L1117.83 3339H1117.17L1116.76 3327.68C1116.51 3320.92 1111.16 3315.5 1104.5 3315.26L1093 3314.83L1093 3314.17L1104.5 3313.74C1111.16 3313.5 1116.51 3308.08 1116.76 3301.32L1117.17 3290Z" fill="#145A34"/>
</g>
<defs>
<filter id="filter0_f_1_666" x="-779" y="-500" width="2440" height="1779" filterUnits="userSpaceOnUse" color-interpolation-filters="sRGB">
<feFlood flood-opacity="0" result="BackgroundImageFix"/>
<feBlend mode="normal" in="SourceGraphic" in2="BackgroundImageFix" result="shape"/>
<feGaussianBlur stdDeviation="250" result="effect1_foregroundBlur_1_666"/>
</filter>
<filter id="filter1_f_1_666" x="-779" y="2584" width="2440" height="1779" filterUnits="userSpaceOnUse" color-interpolation-filters="sRGB">
<feFlood flood-opacity="0" result="BackgroundImageFix"/>
<feBlend mode="normal" in="SourceGraphic" in2="BackgroundImageFix" result="shape"/>
<feGaussianBlur stdDeviation="250" result="effect1_foregroundBlur_1_666"/>
</filter>
<filter id="filter2_f_1_666" x="-779" y="3880" width="2440" height="1779" filterUnits="userSpaceOnUse" color-interpolation-filters="sRGB">
<feFlood flood-opacity="0" result="BackgroundImageFix"/>
<feBlend mode="normal" in="SourceGraphic" in2="BackgroundImageFix" result="shape"/>
<feGaussianBlur stdDeviation="250" result="effect1_foregroundBlur_1_666"/>
</filter>
<filter id="filter3_f_1_666" x="310" y="-500" width="1815" height="1779" filterUnits="userSpaceOnUse" color-interpolation-filters="sRGB">
<feFlood flood-opacity="0" result="BackgroundImageFix"/>
<feBlend mode="normal" in="SourceGraphic" in2="BackgroundImageFix" result="shape"/>
<feGaussianBlur stdDeviation="250" result="effect1_foregroundBlur_1_666"/>
</filter>
<filter id="filter4_f_1_666" x="310" y="679" width="1815" height="1779" filterUnits="userSpaceOnUse" color-interpolation-filters="sRGB">
<feFlood flood-opacity="0" result="BackgroundImageFix"/>
<feBlend mode="normal" in="SourceGraphic" in2="BackgroundImageFix" result="shape"/>
<feGaussianBlur stdDeviation="250" result="effect1_foregroundBlur_1_666"/>
</filter>
<filter id="filter5_f_1_666" x="310" y="2584" width="1815" height="1779" filterUnits="userSpaceOnUse" color-interpolation-filters="sRGB">
<feFlood flood-opacity="0" result="BackgroundImageFix"/>
<feBlend mode="normal" in="SourceGraphic" in2="BackgroundImageFix" result="shape"/>
<feGaussianBlur stdDeviation="250" result="effect1_foregroundBlur_1_666"/>
</filter>
<filter id="filter6_f_1_666" x="310" y="3880" width="1815" height="1779" filterUnits="userSpaceOnUse" color-interpolation-filters="sRGB">
<feFlood flood-opacity="0" result="BackgroundImageFix"/>
<feBlend mode="normal" in="SourceGraphic" in2="BackgroundImageFix" result="shape"/>
<feGaussianBlur stdDeviation="250" result="effect1_foregroundBlur_1_666"/>
</filter>
<filter id="filter7_f_1_666" x="-1021" y="496" width="1815" height="1779" filterUnits="userSpaceOnUse" color-interpolation-filters="sRGB">
<feFlood flood-opacity="0" result="BackgroundImageFix"/>
<feBlend mode="normal" in="SourceGraphic" in2="BackgroundImageFix" result="shape"/>
<feGaussianBlur stdDeviation="250" result="effect1_foregroundBlur_1_666"/>
</filter>
<filter id="filter8_f_1_666" x="565" y="1051" width="1815" height="1779" filterUnits="userSpaceOnUse" color-interpolation-filters="sRGB">
<feFlood flood-opacity="0" result="BackgroundImageFix"/>
<feBlend mode="normal" in="SourceGraphic" in2="BackgroundImageFix" result="shape"/>
<feGaussianBlur stdDeviation="250" result="effect1_foregroundBlur_1_666"/>
</filter>
<clipPath id="clip0_1_666">
<rect width="1440" height="4277" fill="white"/>
</clipPath>
<clipPath id="clip1_1_666">
<rect width="283" height="209" fill="white" transform="translate(0 426)"/>
</clipPath>
<clipPath id="clip2_1_666">
<rect width="452" height="249" fill="white" transform="translate(988 491)"/>
</clipPath>
</defs>
</svg>
