<svg width="40" height="40" viewBox="0 0 40 40" fill="none" xmlns="http://www.w3.org/2000/svg">
<path opacity="0.966" fill-rule="evenodd" clip-rule="evenodd" d="M23.4766 1.10701C26.0596 1.10701 28.6426 1.10701 31.2257 1.10701C31.238 2.38646 31.2257 3.66567 31.1888 4.94465C30.7939 7.08629 29.6007 8.59919 27.6094 9.48339C27.179 9.65144 26.7362 9.77446 26.281 9.8524C24.4361 9.8893 22.5911 9.90162 20.746 9.8893C20.746 12.3739 20.746 14.8585 20.746 17.3432C25.0119 17.9201 28.0009 20.1834 29.7127 24.1328C31.0848 28.102 30.4944 31.7429 27.9415 35.0553C26.0585 37.196 23.7092 38.4752 20.8936 38.893C20.0325 38.893 19.1716 38.893 18.3105 38.893C13.8722 38.1428 10.8586 35.6582 9.26994 31.4391C8.04069 26.8961 9.1354 23.0215 12.5541 19.8155C14.2547 18.3667 16.2228 17.5426 18.4581 17.3432C18.4581 14.8585 18.4581 12.3739 18.4581 9.8893C17.0803 9.90162 15.7027 9.8893 14.3253 9.8524C12.0828 9.30723 10.7913 7.89274 10.4508 5.60885C10.4139 4.62515 10.4015 3.64114 10.4139 2.65683C12.5296 2.64453 14.6452 2.65683 16.7607 2.69373C17.7257 2.84415 18.562 3.25005 19.2699 3.91144C20.2801 2.38408 21.6823 1.44927 23.4766 1.10701ZM23.698 3.39483C25.4446 3.39483 27.1912 3.39483 28.9378 3.39483C29.0573 5.57423 28.0733 6.96415 25.9858 7.56457C24.2394 7.60147 22.4927 7.61377 20.746 7.60147C20.6622 5.42726 21.6462 4.02505 23.698 3.39483ZM12.7017 4.94465C13.9812 4.93235 15.2603 4.94466 16.5393 4.98155C17.7984 5.39491 18.438 6.26821 18.4581 7.60147C17.1786 7.61377 15.8995 7.60147 14.6205 7.56457C13.3764 7.14325 12.7367 6.26995 12.7017 4.94465ZM18.6057 19.5572C22.3017 19.3446 25.1184 20.7961 27.0559 23.9114C28.6738 27.1709 28.4524 30.2951 26.3917 33.2841C23.9355 36.202 20.8481 37.1983 17.1297 36.2731C12.9036 34.6767 10.8986 31.614 11.115 27.0849C11.9029 22.8652 14.3998 20.356 18.6057 19.5572Z" fill="#059B49"/>
<path opacity="0.96" fill-rule="evenodd" clip-rule="evenodd" d="M18.4581 20.9594C19.2207 20.9594 19.9834 20.9594 20.746 20.9594C20.746 21.4514 20.746 21.9434 20.746 22.4354C22.272 23.0041 23.0592 24.1111 23.1076 25.7565C22.345 25.7565 21.5823 25.7565 20.8198 25.7565C20.7712 24.9699 20.353 24.5517 19.5651 24.5018C18.8517 24.5756 18.4581 24.9692 18.3843 25.6827C18.4 26.1451 18.5969 26.5018 18.9747 26.7528C19.6393 26.886 20.3035 27.0336 20.9674 27.1956C22.8626 28.2059 23.4899 29.7434 22.8493 31.8081C22.4248 32.7493 21.736 33.4135 20.7829 33.8007C20.746 34.2675 20.7337 34.7349 20.746 35.203C19.9834 35.203 19.2207 35.203 18.4581 35.203C18.4704 34.7349 18.4581 34.2675 18.4212 33.8007C16.9324 33.1608 16.1575 32.0292 16.0965 30.4059C16.8591 30.4059 17.6217 30.4059 18.3843 30.4059C18.6088 31.6003 19.273 31.9324 20.3769 31.4022C21.0026 30.6889 20.9533 30.0247 20.2293 29.4096C20.1122 29.346 19.9892 29.2968 19.8603 29.262C17.265 29.0776 16.0227 27.6878 16.1334 25.0923C16.402 23.7541 17.1769 22.8685 18.4581 22.4354C18.4581 21.9434 18.4581 21.4514 18.4581 20.9594Z" fill="#059B49"/>
</svg>
