<svg width="181" height="60" viewBox="0 0 181 60" fill="none" xmlns="http://www.w3.org/2000/svg">
<g clip-path="url(#clip0_0_246)">
<path d="M166.433 0.000195H14.4086C13.8544 0.000195 13.3069 0.000195 12.7542 0.003195C12.2916 0.006195 11.8326 0.01491 11.3655 0.022245C10.3508 0.0340977 9.33847 0.122709 8.3373 0.28731C7.33755 0.455494 6.36911 0.772569 5.46474 1.22781C4.56148 1.6869 3.73615 2.28345 3.01868 2.9958C2.29744 3.70615 1.69624 4.52722 1.23818 5.42743C0.77886 6.32586 0.460365 7.2886 0.293697 8.28241C0.125444 9.27497 0.0349057 10.279 0.0228943 11.2854C0.0088706 11.7453 0.00738964 12.2067 0 12.6667V47.3381C0.00738964 47.8038 0.0088706 48.255 0.0228943 48.7209C0.0349094 49.7273 0.125448 50.7313 0.293697 51.7238C0.459905 52.7182 0.778418 53.6815 1.23818 54.5802C1.69603 55.4775 2.29732 56.2953 3.01868 57.0017C3.73343 57.7172 4.55929 58.3142 5.46474 58.7697C6.3691 59.2262 7.33743 59.5452 8.3373 59.7159C9.33864 59.8792 10.3509 59.9679 11.3655 59.9811C11.8326 59.9913 12.2916 59.9972 12.7542 59.9972C13.3069 60.0002 13.8545 60.0002 14.4086 60.0002H166.433C166.976 60.0002 167.528 60.0002 168.071 59.9972C168.531 59.9972 169.004 59.9913 169.464 59.9811C170.477 59.9686 171.487 59.8799 172.487 59.7159C173.49 59.544 174.461 59.2251 175.37 58.7697C176.275 58.3139 177.1 57.717 177.814 57.0017C178.533 56.2925 179.136 55.4754 179.6 54.5802C180.056 53.6808 180.371 52.7176 180.535 51.7238C180.704 50.7311 180.797 49.7274 180.816 48.7209C180.822 48.255 180.822 47.8038 180.822 47.3381C180.833 46.7931 180.833 46.2512 180.833 45.6974V14.3044C180.833 13.7551 180.833 13.2102 180.822 12.6667C180.822 12.2067 180.822 11.7453 180.816 11.2854C180.797 10.2788 180.704 9.27505 180.535 8.28235C180.371 7.28912 180.055 6.32645 179.6 5.42737C178.667 3.62299 177.188 2.15423 175.37 1.22767C174.461 0.773546 173.489 0.456556 172.487 0.287175C171.487 0.121849 170.477 0.0332066 169.464 0.022035C169.004 0.014715 168.531 0.005925 168.071 0.003C167.528 0 166.976 0 166.433 0V0.000195Z" fill="#A6A6A6"/>
<path d="M12.7607 58.6875C12.3003 58.6875 11.851 58.6816 11.3942 58.6714C10.4478 58.6592 9.50372 58.5774 8.56956 58.4268C7.69851 58.2779 6.85469 58.0009 6.06594 57.605C5.28442 57.2123 4.57162 56.6974 3.95483 56.08C3.32911 55.47 2.80818 54.7624 2.41266 53.9853C2.01279 53.2032 1.73605 52.3648 1.59209 51.4995C1.43663 50.5697 1.35252 49.6295 1.34048 48.687C1.3309 48.3707 1.31836 47.3174 1.31836 47.3174V12.6665C1.31836 12.6665 1.33172 11.6294 1.34056 11.3247C1.35208 10.3837 1.43571 9.44498 1.5907 8.5166C1.73493 7.64888 2.01188 6.80812 2.41197 6.02344C2.80603 5.24692 3.32407 4.53879 3.94602 3.92652C4.56727 3.30843 5.28235 2.79091 6.0652 2.39281C6.85214 1.99814 7.69436 1.7231 8.56366 1.57691C9.50088 1.42475 10.4483 1.34249 11.3979 1.33082L12.7614 1.3125H168.063L169.443 1.33155C170.383 1.34265 171.322 1.42417 172.251 1.57543C173.129 1.72346 173.98 2.00042 174.776 2.39721C176.344 3.19948 177.62 4.46874 178.425 6.02711C178.819 6.80637 179.092 7.64026 179.234 8.50048C179.391 9.43649 179.479 10.3826 179.497 11.3313C179.501 11.7561 179.501 12.2124 179.501 12.6665C179.513 13.229 179.513 13.7644 179.513 14.3042V45.6972C179.513 46.2421 179.513 46.7739 179.501 47.31C179.501 47.7978 179.501 48.2446 179.495 48.7045C179.478 49.6363 179.391 50.5655 179.237 51.4848C179.096 52.3564 178.821 53.2013 178.421 53.9898C178.023 54.7584 177.505 55.4599 176.886 56.0683C176.269 56.689 175.555 57.2069 174.772 57.6021C173.978 58.0011 173.128 58.2791 172.251 58.4268C171.317 58.5782 170.373 58.66 169.426 58.6714C168.984 58.6816 168.52 58.6875 168.07 58.6875L166.432 58.6905L12.7607 58.6875Z" fill="black"/>
<path d="M50.3863 31.1129C50.4033 29.7714 50.7537 28.4561 51.4049 27.2892C52.0561 26.1224 52.9869 25.1421 54.1107 24.4394C53.3968 23.4025 52.4549 22.5491 51.3599 21.9471C50.265 21.3451 49.047 21.011 47.8029 20.9715C45.149 20.6882 42.5761 22.5865 41.2237 22.5865C39.8451 22.5865 37.7629 20.9996 35.5207 21.0465C34.0703 21.0941 32.6569 21.5231 31.418 22.2914C30.1791 23.0598 29.1571 24.1414 28.4515 25.4309C25.3949 30.8128 27.6748 38.7223 30.6028 43.0725C32.0677 45.2027 33.7797 47.5822 36.0199 47.4978C38.2121 47.4054 39.0308 46.0762 41.677 46.0762C44.2986 46.0762 45.0667 47.4978 47.3523 47.4442C49.7046 47.4054 51.1867 45.3045 52.6002 43.1541C53.6528 41.6363 54.4627 39.9587 55 38.1836C53.6334 37.5958 52.4671 36.6119 51.6467 35.3545C50.8263 34.0971 50.3879 32.622 50.3863 31.1129V31.1129Z" fill="white"/>
<path d="M46.0691 18.1104C47.3517 16.5446 47.9836 14.532 47.8306 12.5C45.8711 12.7093 44.0611 13.6617 42.7612 15.1675C42.1256 15.903 41.6388 16.7588 41.3287 17.6858C41.0185 18.6129 40.8911 19.593 40.9536 20.5701C41.9337 20.5804 42.9033 20.3644 43.7894 19.9383C44.6755 19.5122 45.455 18.8872 46.0691 18.1104Z" fill="white"/>
<path d="M69.4342 14.8552C69.8742 14.8239 70.3158 14.8899 70.727 15.0484C71.1383 15.207 71.5089 15.4542 71.8123 15.7721C72.1156 16.0901 72.3441 16.4709 72.4812 16.8871C72.6183 17.3034 72.6607 17.7446 72.6052 18.179C72.6052 20.3161 71.4416 21.5445 69.4342 21.5445H67V14.8552H69.4342ZM68.0467 20.5985H69.3173C69.6317 20.6171 69.9464 20.566 70.2384 20.4487C70.5304 20.3314 70.7924 20.151 71.0053 19.9205C71.2182 19.6901 71.3766 19.4154 71.469 19.1165C71.5615 18.8176 71.5856 18.502 71.5397 18.1927C71.5823 17.8846 71.5557 17.5709 71.4618 17.2742C71.368 16.9775 71.2091 16.7051 70.9967 16.4765C70.7843 16.2478 70.5236 16.0687 70.2333 15.9518C69.9429 15.835 69.6301 15.7833 69.3173 15.8005H68.0467V20.5985Z" fill="white"/>
<path d="M73.7872 19.0184C73.7553 18.6867 73.7935 18.352 73.8995 18.0357C74.0055 17.7195 74.1769 17.4288 74.4027 17.1822C74.6285 16.9355 74.9038 16.7385 75.2108 16.6037C75.5178 16.4688 75.8499 16.3992 76.1856 16.3992C76.5213 16.3992 76.8534 16.4688 77.1604 16.6037C77.4674 16.7385 77.7427 16.9355 77.9685 17.1822C78.1943 17.4288 78.3657 17.7195 78.4717 18.0357C78.5777 18.352 78.6159 18.6867 78.584 19.0184C78.6165 19.3505 78.5788 19.6857 78.4731 20.0024C78.3674 20.3191 78.1961 20.6104 77.9702 20.8575C77.7443 21.1046 77.4688 21.3021 77.1615 21.4372C76.8542 21.5723 76.5217 21.6421 76.1856 21.6421C75.8495 21.6421 75.517 21.5723 75.2097 21.4372C74.9023 21.3021 74.6269 21.1046 74.401 20.8575C74.1751 20.6104 74.0038 20.3191 73.8981 20.0024C73.7924 19.6857 73.7547 19.3505 73.7872 19.0184V19.0184ZM77.5516 19.0184C77.5516 17.9242 77.0564 17.2843 76.1873 17.2843C75.3148 17.2843 74.824 17.9242 74.824 19.0184C74.824 20.1214 75.3149 20.7564 76.1873 20.7564C77.0564 20.7564 77.5516 20.117 77.5516 19.0184H77.5516Z" fill="white"/>
<path d="M84.9607 21.5444H83.9195L82.8684 17.8265H82.789L81.7423 21.5444H80.7111L79.3092 16.4963H80.3272L81.2383 20.3483H81.3133L82.3589 16.4963H83.3218L84.3674 20.3483H84.4468L85.3534 16.4963H86.3571L84.9607 21.5444Z" fill="white"/>
<path d="M87.5358 16.4958H88.502V17.2978H88.577C88.7042 17.0098 88.9188 16.7683 89.1909 16.6071C89.4629 16.4459 89.7788 16.3729 90.0946 16.3984C90.3421 16.3799 90.5906 16.417 90.8216 16.5068C91.0527 16.5966 91.2605 16.7368 91.4295 16.9171C91.5986 17.0974 91.7246 17.3132 91.7982 17.5484C91.8719 17.7836 91.8913 18.0323 91.8549 18.276V21.5439H90.8513V18.5261C90.8513 17.7149 90.4961 17.3115 89.7538 17.3115C89.5858 17.3037 89.4181 17.3321 89.2622 17.3947C89.1062 17.4573 88.9658 17.5526 88.8505 17.6741C88.7351 17.7956 88.6476 17.9404 88.5939 18.0986C88.5403 18.2569 88.5217 18.4247 88.5395 18.5907V21.5439H87.5358L87.5358 16.4958Z" fill="white"/>
<path d="M93.4541 14.5258H94.4578V21.5445H93.4541V14.5258Z" fill="white"/>
<path d="M95.853 19.0183C95.8211 18.6865 95.8593 18.3518 95.9653 18.0355C96.0714 17.7193 96.2428 17.4285 96.4686 17.1819C96.6945 16.9353 96.9697 16.7383 97.2768 16.6034C97.5839 16.4686 97.9159 16.3989 98.2517 16.3989C98.5874 16.3989 98.9195 16.4686 99.2265 16.6034C99.5336 16.7383 99.8089 16.9353 100.035 17.1819C100.261 17.4285 100.432 17.7193 100.538 18.0355C100.644 18.3518 100.682 18.6865 100.65 19.0183C100.683 19.3504 100.645 19.6855 100.539 20.0023C100.434 20.319 100.262 20.6103 100.036 20.8574C99.8104 21.1045 99.535 21.3019 99.2276 21.437C98.9203 21.5721 98.5878 21.6419 98.2517 21.6419C97.9155 21.6419 97.5831 21.5721 97.2757 21.437C96.9684 21.3019 96.6929 21.1045 96.467 20.8574C96.2411 20.6103 96.0698 20.319 95.964 20.0023C95.8583 19.6855 95.8205 19.3504 95.853 19.0183V19.0183ZM99.6174 19.0183C99.6174 17.924 99.1222 17.2841 98.253 17.2841C97.3806 17.2841 96.8898 17.924 96.8898 19.0183C96.8898 20.1213 97.3807 20.7563 98.253 20.7563C99.1222 20.7562 99.6174 20.1169 99.6174 19.0183H99.6174Z" fill="white"/>
<path d="M101.707 20.1168C101.707 19.2082 102.389 18.6843 103.599 18.6099L104.976 18.531V18.0953C104.976 17.5621 104.621 17.2611 103.935 17.2611C103.375 17.2611 102.987 17.4653 102.875 17.8222H101.903C102.006 16.9551 102.828 16.3989 103.981 16.3989C105.256 16.3989 105.976 17.029 105.976 18.0953V21.5445H105.009V20.835H104.93C104.769 21.0895 104.542 21.297 104.274 21.4362C104.006 21.5755 103.705 21.6415 103.402 21.6276C103.189 21.6497 102.973 21.6271 102.769 21.5613C102.565 21.4954 102.377 21.3879 102.217 21.2456C102.057 21.1032 101.929 20.9292 101.842 20.7348C101.754 20.5404 101.708 20.3299 101.707 20.1168V20.1168ZM104.976 19.6855V19.2634L103.734 19.3423C103.034 19.3888 102.716 19.6253 102.716 20.0703C102.716 20.5246 103.113 20.789 103.659 20.789C103.819 20.8051 103.981 20.7891 104.135 20.7419C104.288 20.6947 104.431 20.6173 104.553 20.5144C104.676 20.4114 104.777 20.285 104.85 20.1426C104.922 20.0002 104.965 19.8447 104.976 19.6855V19.6855Z" fill="white"/>
<path d="M107.295 19.0183C107.295 17.4231 108.121 16.4126 109.406 16.4126C109.724 16.3981 110.039 16.4737 110.315 16.6305C110.591 16.7873 110.817 17.019 110.965 17.2983H111.04V14.5258H112.044V21.5445H111.082V20.7469H111.003C110.843 21.0244 110.61 21.2531 110.328 21.4084C110.047 21.5636 109.728 21.6394 109.406 21.6277C108.112 21.6277 107.295 20.6172 107.295 19.0183ZM108.332 19.0183C108.332 20.089 108.84 20.7333 109.69 20.7333C110.536 20.7333 111.059 20.0797 111.059 19.0226C111.059 17.9705 110.531 17.3076 109.69 17.3076C108.845 17.3076 108.332 17.9563 108.332 19.0183H108.332Z" fill="white"/>
<path d="M116.197 19.0184C116.165 18.6867 116.203 18.352 116.309 18.0357C116.415 17.7195 116.586 17.4288 116.812 17.1822C117.038 16.9355 117.313 16.7385 117.62 16.6037C117.927 16.4688 118.259 16.3992 118.595 16.3992C118.931 16.3992 119.263 16.4688 119.57 16.6037C119.877 16.7385 120.152 16.9355 120.378 17.1822C120.604 17.4288 120.775 17.7195 120.881 18.0357C120.987 18.352 121.025 18.6867 120.993 19.0184C121.026 19.3505 120.988 19.6857 120.883 20.0024C120.777 20.3191 120.606 20.6104 120.38 20.8575C120.154 21.1046 119.878 21.3021 119.571 21.4372C119.264 21.5723 118.931 21.6421 118.595 21.6421C118.259 21.6421 117.927 21.5723 117.619 21.4372C117.312 21.3021 117.036 21.1046 116.81 20.8575C116.585 20.6104 116.413 20.3191 116.308 20.0024C116.202 19.6857 116.164 19.3505 116.197 19.0184V19.0184ZM119.961 19.0184C119.961 17.9242 119.466 17.2843 118.597 17.2843C117.724 17.2843 117.234 17.9242 117.234 19.0184C117.234 20.1214 117.724 20.7564 118.597 20.7564C119.466 20.7564 119.961 20.117 119.961 19.0184Z" fill="white"/>
<path d="M122.34 16.4958H123.306V17.2978H123.381C123.508 17.0098 123.723 16.7683 123.995 16.6071C124.267 16.4459 124.583 16.3729 124.898 16.3984C125.146 16.3799 125.394 16.417 125.625 16.5068C125.857 16.5966 126.064 16.7368 126.233 16.9171C126.402 17.0974 126.528 17.3132 126.602 17.5484C126.676 17.7836 126.695 18.0323 126.659 18.276V21.5439H125.655V18.5261C125.655 17.7149 125.3 17.3115 124.558 17.3115C124.39 17.3037 124.222 17.3321 124.066 17.3947C123.91 17.4573 123.77 17.5526 123.654 17.6741C123.539 17.7956 123.451 17.9404 123.398 18.0986C123.344 18.2569 123.326 18.4247 123.343 18.5907V21.5439H122.34V16.4958Z" fill="white"/>
<path d="M132.33 15.2395V16.5193H133.432V17.3585H132.33V19.9542C132.33 20.483 132.55 20.7146 133.049 20.7146C133.177 20.7142 133.305 20.7065 133.432 20.6916V21.5214C133.252 21.5534 133.069 21.5705 132.886 21.5723C131.77 21.5723 131.326 21.1826 131.326 20.2093V17.3584H130.518V16.5193H131.326V15.2395H132.33Z" fill="white"/>
<path d="M134.803 14.5258H135.798V17.3076H135.878C136.011 17.0169 136.232 16.7741 136.509 16.6123C136.787 16.4505 137.108 16.3775 137.428 16.4033C137.675 16.39 137.921 16.4308 138.149 16.5228C138.378 16.6148 138.583 16.7557 138.75 16.9354C138.917 17.1152 139.043 17.3294 139.117 17.5627C139.191 17.796 139.213 18.0428 139.18 18.2853V21.5445H138.175V18.5311C138.175 17.7247 137.797 17.3164 137.088 17.3164C136.915 17.3023 136.742 17.3259 136.579 17.3854C136.417 17.4448 136.27 17.5388 136.148 17.6607C136.026 17.7826 135.932 17.9295 135.873 18.0911C135.814 18.2527 135.792 18.4251 135.807 18.5962V21.5445H134.803L134.803 14.5258Z" fill="white"/>
<path d="M145.032 20.1815C144.895 20.6429 144.6 21.042 144.197 21.3089C143.794 21.5759 143.31 21.6938 142.828 21.642C142.493 21.6507 142.16 21.587 141.852 21.4553C141.545 21.3235 141.269 21.1269 141.046 20.879C140.822 20.6311 140.656 20.3378 140.558 20.0196C140.46 19.7015 140.433 19.3659 140.479 19.0364C140.434 18.7058 140.462 18.3695 140.559 18.0504C140.657 17.7313 140.823 17.4367 141.045 17.1866C141.267 16.9365 141.541 16.7368 141.848 16.6009C142.155 16.465 142.488 16.3962 142.824 16.399C144.239 16.399 145.092 17.3586 145.092 18.9438V19.2915H141.501V19.3473C141.486 19.5325 141.509 19.719 141.57 19.8947C141.631 20.0705 141.729 20.2316 141.856 20.3677C141.984 20.5039 142.139 20.6121 142.311 20.6854C142.483 20.7587 142.668 20.7955 142.856 20.7935C143.096 20.8221 143.339 20.7792 143.554 20.6702C143.77 20.5612 143.948 20.3911 144.066 20.1815L145.032 20.1815ZM141.501 18.5547H144.07C144.083 18.3852 144.059 18.2151 144.002 18.0551C143.944 17.8951 143.854 17.7488 143.736 17.6256C143.618 17.5025 143.475 17.4052 143.317 17.3399C143.159 17.2747 142.989 17.243 142.818 17.2469C142.645 17.2448 142.472 17.2771 142.312 17.3421C142.151 17.407 142.005 17.5033 141.882 17.6252C141.759 17.747 141.662 17.8921 141.597 18.0517C141.532 18.2113 141.499 18.3824 141.501 18.5547H141.501Z" fill="white"/>
<path d="M76.0513 38.2284H70.6109L69.3044 42.0577H67L72.1531 27.8903H74.5473L79.7004 42.0577H77.3567L76.0513 38.2284ZM71.1743 36.4613H75.4868L73.3609 30.2467H73.3014L71.1743 36.4613Z" fill="white"/>
<path d="M90.8295 36.8932C90.8295 40.103 89.0987 42.1653 86.4868 42.1653C85.8251 42.1996 85.1671 42.0483 84.5881 41.7287C84.009 41.4091 83.5323 40.9341 83.2126 40.3581H83.1632V45.4742H81.0272V31.728H83.0948V33.446H83.1341C83.4685 32.8728 83.9532 32.4002 84.5367 32.0787C85.1201 31.7571 85.7805 31.5986 86.4475 31.6199C89.0885 31.62 90.8295 33.6922 90.8295 36.8932ZM88.634 36.8932C88.634 34.8019 87.5452 33.4271 85.884 33.4271C84.252 33.4271 83.1543 34.8309 83.1543 36.8932C83.1543 38.9744 84.252 40.3682 85.884 40.3682C87.5452 40.3682 88.634 39.0033 88.634 36.8932Z" fill="white"/>
<path d="M102.282 36.8932C102.282 40.103 100.552 42.1652 97.9398 42.1652C97.2781 42.1996 96.6201 42.0483 96.0411 41.7287C95.462 41.4091 94.9854 40.9341 94.6656 40.3581H94.6162V45.4742H92.4802V31.728H94.5477V33.446H94.587C94.9214 32.8728 95.4062 32.4002 95.9896 32.0787C96.5731 31.7571 97.2335 31.5986 97.9005 31.6199C100.542 31.6199 102.282 33.6922 102.282 36.8932ZM100.087 36.8932C100.087 34.8019 98.9982 33.4271 97.337 33.4271C95.705 33.4271 94.6073 34.8309 94.6073 36.8932C94.6073 38.9744 95.705 40.3682 97.337 40.3682C98.9983 40.3682 100.087 39.0033 100.087 36.8932H100.087Z" fill="white"/>
<path d="M109.852 38.1102C110.011 39.5151 111.386 40.4375 113.265 40.4375C115.065 40.4375 116.36 39.515 116.36 38.2483C116.36 37.1486 115.579 36.4902 113.729 36.0389L111.879 35.5966C109.259 34.9682 108.042 33.7516 108.042 31.7774C108.042 29.3329 110.188 27.6539 113.235 27.6539C116.251 27.6539 118.319 29.3329 118.388 31.7774H116.232C116.103 30.3635 114.926 29.5101 113.205 29.5101C111.484 29.5101 110.307 30.3735 110.307 31.6303C110.307 32.6319 111.059 33.2213 112.899 33.6725L114.471 34.0557C117.4 34.7432 118.616 35.9108 118.616 37.9831C118.616 40.6336 116.489 42.2936 113.106 42.2936C109.941 42.2936 107.804 40.6726 107.666 38.1101L109.852 38.1102Z" fill="white"/>
<path d="M123.226 29.2839V31.7284H125.205V33.4074H123.226V39.1017C123.226 39.9863 123.622 40.3986 124.492 40.3986C124.727 40.3945 124.962 40.3781 125.195 40.3495V42.0185C124.804 42.091 124.406 42.1239 124.009 42.1165C121.902 42.1165 121.08 41.3311 121.08 39.3278V33.4074H119.567V31.7284H121.08V29.2839H123.226Z" fill="white"/>
<path d="M126.351 36.8935C126.351 33.6435 128.28 31.6013 131.287 31.6013C134.304 31.6013 136.223 33.6435 136.223 36.8935C136.223 40.1523 134.314 42.1856 131.287 42.1856C128.261 42.1856 126.351 40.1523 126.351 36.8935ZM134.047 36.8935C134.047 34.6641 133.017 33.3483 131.287 33.3483C129.556 33.3483 128.528 34.6741 128.528 36.8935C128.528 39.1318 129.556 40.4375 131.287 40.4375C133.017 40.4375 134.047 39.1318 134.047 36.8935H134.047Z" fill="white"/>
<path d="M137.984 31.7279H140.021V33.486H140.071C140.208 32.9369 140.532 32.4517 140.988 32.1118C141.444 31.772 142.004 31.5982 142.574 31.6198C142.82 31.619 143.065 31.6455 143.305 31.6989V33.6821C142.995 33.5879 142.671 33.5446 142.346 33.554C142.035 33.5415 141.726 33.5958 141.439 33.7132C141.152 33.8306 140.894 34.0082 140.682 34.234C140.471 34.4598 140.311 34.7283 140.214 35.0211C140.117 35.3139 140.085 35.6241 140.12 35.9304V42.0571H137.984L137.984 31.7279Z" fill="white"/>
<path d="M153.154 39.0237C152.867 40.8988 151.027 42.1856 148.673 42.1856C145.646 42.1856 143.767 40.1724 143.767 36.9425C143.767 33.7026 145.656 31.6013 148.584 31.6013C151.463 31.6013 153.273 33.5644 153.273 36.6963V37.4227H145.923V37.5508C145.889 37.9309 145.937 38.3139 146.064 38.6742C146.191 39.0346 146.393 39.364 146.658 39.6408C146.923 39.9175 147.244 40.1351 147.6 40.2792C147.956 40.4233 148.339 40.4906 148.723 40.4765C149.227 40.5235 149.734 40.4074 150.167 40.1457C150.6 39.8839 150.936 39.4904 151.126 39.0237L153.154 39.0237ZM145.933 35.9409H151.136C151.155 35.5991 151.103 35.257 150.983 34.9362C150.862 34.6154 150.676 34.3227 150.437 34.0765C150.197 33.8304 149.909 33.636 149.59 33.5057C149.271 33.3754 148.928 33.312 148.584 33.3193C148.236 33.3173 147.891 33.3836 147.569 33.5145C147.247 33.6454 146.955 33.8383 146.708 34.082C146.462 34.3257 146.267 34.6155 146.134 34.9345C146.001 35.2536 145.933 35.5956 145.933 35.9409V35.9409Z" fill="white"/>
</g>
<defs>
<clipPath id="clip0_0_246">
<rect width="180.833" height="60" fill="white"/>
</clipPath>
</defs>
</svg>
