<svg width="935" height="310" viewBox="0 0 935 310" fill="none" xmlns="http://www.w3.org/2000/svg">
<g clip-path="url(#clip0_0_353)">
<rect width="935" height="310" rx="8" fill="#D0F6E2"/>
<path fill-rule="evenodd" clip-rule="evenodd" d="M37.3684 -26.7524C60.1948 -26.167 86.8097 -27.7452 101.076 -9.94382C114.871 7.26801 104.195 31.7514 101.821 53.6679C99.8478 71.8782 98.4953 89.4131 88.6392 104.861C75.3185 125.739 61.9807 151.71 37.3684 154.688C11.7236 157.79 -9.75687 137.199 -28.0403 118.978C-46.3461 100.734 -63.6708 79.4909 -63.9945 53.6679C-64.3211 27.6069 -50.1348 2.91661 -29.6984 -13.2975C-11.1393 -28.022 13.6716 -27.3601 37.3684 -26.7524Z" stroke="#145A34" stroke-width="0.5"/>
<path fill-rule="evenodd" clip-rule="evenodd" d="M433.368 249.248C456.195 249.833 482.81 248.255 497.076 266.056C510.871 283.268 500.195 307.751 497.821 329.668C495.848 347.878 494.495 365.413 484.639 380.861C471.319 401.739 457.981 427.71 433.368 430.688C407.724 433.79 386.243 413.199 367.96 394.978C349.654 376.734 332.329 355.491 332.006 329.668C331.679 303.607 345.865 278.917 366.302 262.703C384.861 247.978 409.672 248.64 433.368 249.248Z" stroke="#145A34" stroke-width="0.5"/>
<path fill-rule="evenodd" clip-rule="evenodd" d="M930.368 -37.7524C953.195 -37.167 979.81 -38.7452 994.076 -20.9438C1007.87 -3.73199 997.195 20.7514 994.821 42.6679C992.848 60.8782 991.495 78.4131 981.639 93.8612C968.319 114.739 954.981 140.71 930.368 143.688C904.724 146.79 883.243 126.199 864.96 107.978C846.654 89.7339 829.329 68.4909 829.006 42.6679C828.679 16.6069 842.865 -8.08339 863.302 -24.2975C881.861 -39.022 906.672 -38.3601 930.368 -37.7524Z" stroke="#145A34" stroke-width="0.5"/>
</g>
<defs>
<clipPath id="clip0_0_353">
<rect width="935" height="310" rx="8" fill="white"/>
</clipPath>
</defs>
</svg>
