<svg width="182" height="60" viewBox="0 0 182 60" fill="none" xmlns="http://www.w3.org/2000/svg">
<g clip-path="url(#clip0_0_247)">
<path fill-rule="evenodd" clip-rule="evenodd" d="M174.94 60.417H7.5598C3.85256 60.417 0.833328 57.0354 0.833328 52.917V7.91699C0.833328 3.78358 3.85256 0.416992 7.5598 0.416992H174.94C178.644 0.416992 181.667 3.78358 181.667 7.91699V52.917C181.667 57.0354 178.644 60.417 174.94 60.417Z" fill="black"/>
<path fill-rule="evenodd" clip-rule="evenodd" d="M174.94 1.61774C178.05 1.61774 180.595 4.44941 180.595 7.91699V52.917C180.595 56.3846 178.066 59.2162 174.94 59.2162H7.5598C4.4504 59.2162 1.90542 56.3846 1.90542 52.917V7.91699C1.90542 4.44941 4.4337 1.61774 7.5598 1.61774H174.94ZM174.94 0.416992H7.5598C3.85256 0.416992 0.833328 3.79854 0.833328 7.91699V52.917C0.833328 57.0504 3.85256 60.417 7.5598 60.417H174.94C178.644 60.417 181.667 57.0504 181.667 52.917V7.91699C181.667 3.79854 178.644 0.416992 174.94 0.416992Z" fill="#A6A6A6"/>
<path d="M31.6294 13.0411C31.2334 13.4602 30.9993 14.1106 30.9993 14.9529V45.0462C30.9993 45.8899 31.2334 46.5389 31.6294 46.958L31.73 47.056L48.5878 30.1982V29.9996V29.8009L31.73 12.9418L31.6294 13.0411Z" fill="url(#paint0_linear_0_247)"/>
<path d="M54.2075 35.8206L48.5892 30.1995V30.0009V29.8022L54.2089 24.1825L54.3354 24.2546L60.9934 28.0374C62.8956 29.1178 62.8956 30.8853 60.9934 31.9671L54.3354 35.7498L54.2075 35.8206Z" fill="url(#paint1_linear_0_247)"/>
<path d="M54.3355 35.7473L48.5892 29.9996L31.6294 46.9581C32.2567 47.6221 33.2908 47.7038 34.4569 47.0411L54.3355 35.7473Z" fill="url(#paint2_linear_0_247)"/>
<path d="M54.3355 24.2519L34.4583 12.9581C33.2922 12.2954 32.258 12.3784 31.6307 13.0411L48.5892 29.9995L54.3355 24.2519Z" fill="url(#paint3_linear_0_247)"/>
<path opacity="0.2" d="M54.2089 35.6206L34.4583 46.8423C33.3534 47.4696 32.3655 47.4288 31.7314 46.8573L31.6294 46.9594L31.7301 47.0573C32.3641 47.6288 33.352 47.671 34.4569 47.0424L54.3341 35.7485L54.2089 35.6206Z" fill="black"/>
<path opacity="0.12" d="M31.6294 46.7593C31.2334 46.3402 30.9993 45.6898 30.9993 44.8475V45.0462C30.9993 45.8885 31.2334 46.5389 31.6294 46.958L31.7314 46.8559L31.6294 46.7593Z" fill="black"/>
<path opacity="0.12" d="M60.9934 31.7658L54.2089 35.6207L54.3354 35.7472L60.9934 31.9645C61.9445 31.4243 62.4194 30.7126 62.4194 30.001C62.3391 30.6446 61.8547 31.276 60.9934 31.7658Z" fill="black"/>
<path opacity="0.25" d="M34.4569 13.1568L60.992 28.2334C61.8547 28.7232 62.3377 29.3546 62.418 29.9996C62.418 29.2879 61.9431 28.5749 60.992 28.0347L34.4569 12.9581C32.5546 11.8777 30.9993 12.7744 30.9993 14.9529V15.1529C30.9993 12.9744 32.556 12.0764 34.4569 13.1568Z" fill="white"/>
<path fill-rule="evenodd" clip-rule="evenodd" d="M109.143 19.6292C108.581 20.21 107.883 20.499 107.047 20.499C106.212 20.499 105.514 20.2091 104.953 19.6292C104.391 19.0493 104.111 18.3392 104.111 17.5C104.111 16.6608 104.391 15.9507 104.953 15.3708C105.514 14.79 106.212 14.5 107.047 14.5C107.878 14.5 108.575 14.7919 109.139 15.3746C109.703 15.9574 109.985 16.6656 109.985 17.5C109.985 18.3402 109.704 19.0502 109.143 19.6292ZM105.495 19.1488C105.918 19.5794 106.435 19.7938 107.047 19.7938C107.66 19.7938 108.177 19.5785 108.6 19.1488C109.023 18.7182 109.235 18.1689 109.235 17.501C109.235 16.833 109.023 16.2828 108.6 15.8531C108.178 15.4225 107.66 15.2081 107.047 15.2081C106.435 15.2081 105.918 15.4234 105.495 15.8531C105.073 16.2837 104.86 16.833 104.86 17.501C104.86 18.1689 105.073 18.7182 105.495 19.1488Z" fill="white"/>
<path d="M84.1975 17.7335C84.1975 18.5354 83.9613 19.1737 83.4879 19.6502C82.9508 20.2167 82.2498 20.5 81.3888 20.5C80.564 20.5 79.862 20.2129 79.2858 19.6388C78.7086 19.0636 78.4201 18.3517 78.4201 17.5019C78.4201 16.6512 78.7086 15.9392 79.2858 15.3651C79.862 14.79 80.564 14.5029 81.3888 14.5029C81.7983 14.5029 82.1898 14.5833 82.5612 14.7431C82.9336 14.9038 83.2317 15.1172 83.4546 15.3842L82.9527 15.8895C82.5746 15.4349 82.0536 15.2081 81.3878 15.2081C80.7859 15.2081 80.2659 15.4206 79.8268 15.8455C79.3887 16.2703 79.1696 16.8215 79.1696 17.501C79.1696 18.1804 79.3887 18.7316 79.8278 19.1574C80.2668 19.5823 80.7868 19.7947 81.3888 19.7947C82.0269 19.7947 82.5593 19.5813 82.9851 19.1536C83.2613 18.8751 83.4213 18.4876 83.4641 17.9909H81.3888V17.3H84.1575C84.1851 17.4502 84.1975 17.5947 84.1975 17.7335Z" fill="white"/>
<path d="M88.5882 15.3354H85.9862V17.1555H88.333V17.8455H85.9862V19.6656H88.5882V20.3718H85.2518V14.6301H88.5882V15.3354Z" fill="white"/>
<path d="M90.9493 20.3718H91.6836V15.3354H93.2799V14.6301H89.353V15.3354H90.9493V20.3718Z" fill="white"/>
<path d="M96.1219 20.3718V14.6301H96.8562V20.3718H96.1219Z" fill="white"/>
<path d="M99.3773 20.3718H100.112V15.3354H101.708V14.6301H97.7811V15.3354H99.3773V20.3718Z" fill="white"/>
<path d="M111.015 14.6301V20.3718H111.747V16.7947L111.716 15.6885H111.747L114.653 20.3718H115.42V14.6301H114.686V17.9909L114.717 19.0971H114.686L111.908 14.6301H111.015Z" fill="white"/>
<path fill-rule="evenodd" clip-rule="evenodd" d="M109.143 19.6292C108.581 20.21 107.883 20.499 107.047 20.499C106.212 20.499 105.514 20.2091 104.953 19.6292C104.391 19.0493 104.111 18.3392 104.111 17.5C104.111 16.6608 104.391 15.9507 104.953 15.3708C105.514 14.79 106.212 14.5 107.047 14.5C107.878 14.5 108.575 14.7919 109.139 15.3746C109.703 15.9574 109.985 16.6656 109.985 17.5C109.985 18.3402 109.704 19.0502 109.143 19.6292ZM105.495 19.1488C105.918 19.5794 106.435 19.7938 107.047 19.7938C107.66 19.7938 108.177 19.5785 108.6 19.1488C109.023 18.7182 109.235 18.1689 109.235 17.501C109.235 16.833 109.023 16.2828 108.6 15.8531C108.178 15.4225 107.66 15.2081 107.047 15.2081C106.435 15.2081 105.918 15.4234 105.495 15.8531C105.073 16.2837 104.86 16.833 104.86 17.501C104.86 18.1689 105.073 18.7182 105.495 19.1488Z" stroke="white" stroke-width="0.2" stroke-miterlimit="10"/>
<path d="M84.1975 17.7335C84.1975 18.5354 83.9613 19.1737 83.4879 19.6502C82.9508 20.2167 82.2498 20.5 81.3888 20.5C80.564 20.5 79.862 20.2129 79.2858 19.6388C78.7086 19.0636 78.4201 18.3517 78.4201 17.5019C78.4201 16.6512 78.7086 15.9392 79.2858 15.3651C79.862 14.79 80.564 14.5029 81.3888 14.5029C81.7983 14.5029 82.1898 14.5833 82.5612 14.7431C82.9336 14.9038 83.2317 15.1172 83.4546 15.3842L82.9527 15.8895C82.5746 15.4349 82.0536 15.2081 81.3878 15.2081C80.7859 15.2081 80.2659 15.4206 79.8268 15.8455C79.3887 16.2703 79.1696 16.8215 79.1696 17.501C79.1696 18.1804 79.3887 18.7316 79.8278 19.1574C80.2668 19.5823 80.7868 19.7947 81.3888 19.7947C82.0269 19.7947 82.5593 19.5813 82.9851 19.1536C83.2613 18.8751 83.4213 18.4876 83.4641 17.9909H81.3888V17.3H84.1575C84.1851 17.4502 84.1975 17.5947 84.1975 17.7335Z" stroke="white" stroke-width="0.2" stroke-miterlimit="10"/>
<path d="M88.5882 15.3354H85.9862V17.1555H88.333V17.8455H85.9862V19.6656H88.5882V20.3718H85.2518V14.6301H88.5882V15.3354Z" stroke="white" stroke-width="0.2" stroke-miterlimit="10"/>
<path d="M90.9493 20.3718H91.6836V15.3354H93.2799V14.6301H89.353V15.3354H90.9493V20.3718Z" stroke="white" stroke-width="0.2" stroke-miterlimit="10"/>
<path d="M96.1219 20.3718V14.6301H96.8562V20.3718H96.1219Z" stroke="white" stroke-width="0.2" stroke-miterlimit="10"/>
<path d="M99.3773 20.3718H100.112V15.3354H101.708V14.6301H97.7811V15.3354H99.3773V20.3718Z" stroke="white" stroke-width="0.2" stroke-miterlimit="10"/>
<path d="M111.015 14.6301V20.3718H111.747V16.7947L111.716 15.6885H111.747L114.653 20.3718H115.42V14.6301H114.686V17.9909L114.717 19.0971H114.686L111.908 14.6301H111.015Z" stroke="white" stroke-width="0.2" stroke-miterlimit="10"/>
<path d="M102.07 34.6446C100.017 34.6446 98.3435 36.2197 98.3435 38.3911C98.3435 40.5484 100.017 42.1376 102.07 42.1376C104.123 42.1376 105.796 40.5484 105.796 38.3911C105.796 36.2197 104.123 34.6446 102.07 34.6446ZM102.07 40.6621C100.945 40.6621 99.974 39.7257 99.974 38.3911C99.974 37.0425 100.945 36.1202 102.07 36.1202C103.195 36.1202 104.165 37.0425 104.165 38.3911C104.165 39.7248 103.195 40.6621 102.07 40.6621ZM93.9398 34.6446C91.8868 34.6446 90.2135 36.2197 90.2135 38.3911C90.2135 40.5484 91.8868 42.1376 93.9398 42.1376C95.9928 42.1376 97.6662 40.5484 97.6662 38.3911C97.667 36.2197 95.9928 34.6446 93.9398 34.6446ZM93.9398 40.6621C92.8147 40.6621 91.8449 39.7257 91.8449 38.3911C91.8449 37.0425 92.8156 36.1202 93.9398 36.1202C95.065 36.1202 96.0347 37.0425 96.0347 38.3911C96.0356 39.7248 95.065 40.6621 93.9398 40.6621ZM84.2701 35.7942V37.3834H88.0392C87.9266 38.2775 87.6315 38.9302 87.1811 39.3848C86.633 39.938 85.7749 40.5484 84.2701 40.5484C81.95 40.5484 80.1361 38.6607 80.1361 36.3192C80.1361 33.9778 81.95 32.09 84.2701 32.09C85.5218 32.09 86.4357 32.5869 87.1104 33.2255L88.2216 32.1041C87.2798 31.1959 86.0281 30.5 84.2701 30.5C81.0919 30.5 78.4201 33.111 78.4201 36.3184C78.4201 39.5257 81.0919 42.1367 84.2701 42.1367C85.9853 42.1367 87.2798 41.5694 88.2923 40.5044C89.3328 39.4544 89.6566 37.978 89.6566 36.7861C89.6566 36.417 89.6287 36.0761 89.572 35.7925H84.2701V35.7942ZM123.818 37.0284C123.509 36.1906 122.567 34.6438 120.64 34.6438C118.728 34.6438 117.139 36.1624 117.139 38.3902C117.139 40.4903 118.714 42.1367 120.824 42.1367C122.525 42.1367 123.509 41.0867 123.917 40.4762L122.651 39.6244C122.23 40.2489 121.653 40.6603 120.824 40.6603C119.994 40.6603 119.403 40.2771 119.024 39.5248L123.988 37.453L123.818 37.0284ZM118.756 38.2775C118.714 36.8302 119.867 36.092 120.696 36.092C121.343 36.092 121.891 36.4179 122.074 36.8865L118.756 38.2775ZM114.72 41.9103H116.351V30.8982H114.72V41.9103ZM112.048 35.4815H111.992C111.626 35.0419 110.923 34.6438 110.037 34.6438C108.181 34.6438 106.48 36.2902 106.48 38.4043C106.48 40.5044 108.181 42.1367 110.037 42.1367C110.923 42.1367 111.626 41.7394 111.992 41.2849H112.048V41.824C112.048 43.2572 111.288 44.0236 110.065 44.0236C109.066 44.0236 108.447 43.2995 108.194 42.6899L106.774 43.2863C107.181 44.28 108.265 45.5 110.065 45.5C111.977 45.5 113.594 44.3645 113.594 41.5976V34.871H112.048V35.4815V35.4815ZM110.178 40.6621C109.053 40.6621 108.111 39.7116 108.111 38.4052C108.111 37.0856 109.053 36.1202 110.178 36.1202C111.289 36.1202 112.16 37.0847 112.16 38.4052C112.16 39.7107 111.289 40.6621 110.178 40.6621ZM131.46 30.8982H127.557V41.9103H129.185V37.7384H131.459C133.264 37.7384 135.038 36.4197 135.038 34.3187C135.038 32.2178 133.265 30.8982 131.46 30.8982ZM131.502 36.2056H129.185V32.4309H131.502C132.719 32.4309 133.411 33.4484 133.411 34.3187C133.411 35.1714 132.719 36.2056 131.502 36.2056ZM141.568 34.6244C140.388 34.6244 139.167 35.1485 138.662 36.3104L140.108 36.92C140.417 36.3104 140.992 36.1122 141.596 36.1122C142.439 36.1122 143.295 36.6223 143.309 37.5287V37.6424C143.014 37.4723 142.382 37.2169 141.61 37.2169C140.052 37.2169 138.465 38.081 138.465 39.6966C138.465 41.1704 139.743 42.1191 141.175 42.1191C142.27 42.1191 142.873 41.6231 143.252 41.0426H143.308V41.8927H144.88V37.6705C144.88 35.7149 143.435 34.6244 141.568 34.6244ZM141.37 40.6594C140.837 40.6594 140.092 40.3899 140.092 39.7248C140.092 38.8747 141.019 38.5488 141.819 38.5488C142.535 38.5488 142.872 38.7047 143.307 38.917C143.182 39.9371 142.311 40.6594 141.37 40.6594ZM150.608 34.8649L148.741 39.6394H148.685L146.748 34.8649H144.994L147.899 41.5377L146.243 45.2498H147.941L152.42 34.8649H150.608V34.8649ZM135.937 41.9103H137.566V30.8982H135.937V41.9103Z" fill="white"/>
</g>
<defs>
<linearGradient id="paint0_linear_0_247" x1="47.0932" y1="14.6356" x2="24.2573" y2="37.4715" gradientUnits="userSpaceOnUse">
<stop stop-color="#00A0FF"/>
<stop offset="0.0066" stop-color="#00A1FF"/>
<stop offset="0.2601" stop-color="#00BEFF"/>
<stop offset="0.5122" stop-color="#00D2FF"/>
<stop offset="0.7604" stop-color="#00DFFF"/>
<stop offset="1" stop-color="#00E3FF"/>
</linearGradient>
<linearGradient id="paint1_linear_0_247" x1="63.4689" y1="30.0002" x2="30.5441" y2="30.0002" gradientUnits="userSpaceOnUse">
<stop stop-color="#FFE000"/>
<stop offset="0.4087" stop-color="#FFBD00"/>
<stop offset="0.7754" stop-color="#FFA500"/>
<stop offset="1" stop-color="#FF9C00"/>
</linearGradient>
<linearGradient id="paint2_linear_0_247" x1="51.2125" y1="33.1227" x2="20.2452" y2="64.0901" gradientUnits="userSpaceOnUse">
<stop stop-color="#FF3A44"/>
<stop offset="1" stop-color="#C31162"/>
</linearGradient>
<linearGradient id="paint3_linear_0_247" x1="27.3598" y1="3.02395" x2="41.1881" y2="16.8521" gradientUnits="userSpaceOnUse">
<stop stop-color="#32A071"/>
<stop offset="0.0685" stop-color="#2DA771"/>
<stop offset="0.4762" stop-color="#15CF74"/>
<stop offset="0.8009" stop-color="#06E775"/>
<stop offset="1" stop-color="#00F076"/>
</linearGradient>
<clipPath id="clip0_0_247">
<rect width="180.833" height="60" fill="white" transform="translate(0.833328)"/>
</clipPath>
</defs>
</svg>
