<svg width="565" height="381" viewBox="0 0 565 381" fill="none" xmlns="http://www.w3.org/2000/svg">
<g clip-path="url(#clip0_5_921)">
<path d="M561.312 314.675H281.787C280.809 314.674 279.872 314.285 279.181 313.595C278.489 312.904 278.101 311.967 278.099 310.99V3.68472C278.101 2.70781 278.489 1.77124 279.181 1.08046C279.872 0.389687 280.809 0.00111761 281.787 0H561.312C562.29 0.00111761 563.227 0.389687 563.919 1.08046C564.61 1.77124 564.999 2.70781 565 3.68472V310.99C564.999 311.967 564.61 312.904 563.919 313.595C563.227 314.285 562.29 314.674 561.312 314.675ZM281.787 1.47389C281.201 1.47453 280.638 1.70766 280.223 2.12213C279.809 2.5366 279.575 3.09857 279.575 3.68472V310.99C279.575 311.576 279.809 312.138 280.223 312.553C280.638 312.967 281.201 313.201 281.787 313.201H561.312C561.899 313.201 562.461 312.967 562.876 312.553C563.291 312.138 563.524 311.576 563.525 310.99V3.68472C563.524 3.09857 563.291 2.5366 562.876 2.12213C562.461 1.70766 561.899 1.47453 561.312 1.47389H281.787Z" fill="#3F3D56"/>
<path d="M402.374 117.174H333.046C332.068 117.173 331.131 116.784 330.439 116.094C329.748 115.403 329.359 114.466 329.358 113.489V44.2166C329.359 43.2397 329.748 42.3032 330.439 41.6124C331.131 40.9216 332.068 40.533 333.046 40.5319H402.374C403.352 40.533 404.289 40.9216 404.98 41.6124C405.672 42.3032 406.06 43.2397 406.062 44.2166V113.489C406.06 114.466 405.672 115.403 404.98 116.094C404.289 116.784 403.352 117.173 402.374 117.174ZM333.046 42.0058C332.459 42.0064 331.897 42.2396 331.482 42.6541C331.067 43.0685 330.834 43.6305 330.833 44.2166V113.489C330.834 114.076 331.067 114.637 331.482 115.052C331.897 115.466 332.459 115.7 333.046 115.7H402.374C402.96 115.7 403.523 115.466 403.938 115.052C404.352 114.637 404.586 114.076 404.586 113.489V44.2166C404.586 43.6305 404.352 43.0685 403.938 42.6541C403.523 42.2396 402.96 42.0064 402.374 42.0058H333.046Z" fill="#F2F2F2"/>
<path d="M382.46 125.649H313.132C312.252 125.648 311.409 125.298 310.787 124.677C310.164 124.055 309.814 123.212 309.813 122.333V53.06C309.814 52.1807 310.164 51.3378 310.787 50.7161C311.409 50.0944 312.252 49.7447 313.132 49.7437H382.46C383.34 49.7447 384.184 50.0944 384.806 50.7161C385.428 51.3378 385.778 52.1807 385.779 53.06V122.333C385.778 123.212 385.428 124.055 384.806 124.677C384.184 125.298 383.34 125.648 382.46 125.649Z" fill="#059B49"/>
<path d="M529.967 159.548H313.132C312.252 159.548 311.408 159.199 310.785 158.577C310.163 157.955 309.813 157.112 309.813 156.232C309.813 155.353 310.163 154.509 310.785 153.887C311.408 153.265 312.252 152.916 313.132 152.916H529.967C530.847 152.916 531.691 153.265 532.314 153.887C532.936 154.509 533.286 155.353 533.286 156.232C533.286 157.112 532.936 157.955 532.314 158.577C531.691 159.199 530.847 159.548 529.967 159.548Z" fill="#CCCCCC"/>
<path d="M477.602 182.394H313.132C312.252 182.394 311.408 182.044 310.785 181.422C310.163 180.8 309.813 179.957 309.813 179.077C309.813 178.198 310.163 177.354 310.785 176.732C311.408 176.111 312.252 175.761 313.132 175.761H477.602C478.482 175.761 479.327 176.111 479.949 176.732C480.571 177.354 480.921 178.198 480.921 179.077C480.921 179.957 480.571 180.8 479.949 181.422C479.327 182.044 478.482 182.394 477.602 182.394Z" fill="#CCCCCC"/>
<path d="M529.23 75.5367H433.35C432.47 75.5367 431.626 75.1873 431.003 74.5654C430.381 73.9435 430.031 73.1 430.031 72.2205C430.031 71.341 430.381 70.4975 431.003 69.8755C431.626 69.2536 432.47 68.9042 433.35 68.9042H529.23C530.11 68.9042 530.954 69.2536 531.576 69.8755C532.199 70.4975 532.549 71.341 532.549 72.2205C532.549 73.1 532.199 73.9435 531.576 74.5654C530.954 75.1873 530.11 75.5367 529.23 75.5367Z" fill="#CCCCCC"/>
<path d="M505.301 98.382H433.35C432.47 98.382 431.626 98.0326 431.003 97.4107C430.381 96.7888 430.031 95.9453 430.031 95.0658C430.031 94.1862 430.381 93.3427 431.003 92.7208C431.626 92.0989 432.47 91.7495 433.35 91.7495H505.301C506.182 91.7495 507.026 92.0989 507.648 92.7208C508.271 93.3427 508.62 94.1862 508.62 95.0658C508.62 95.9453 508.271 96.7888 507.648 97.4107C507.026 98.0326 506.182 98.382 505.301 98.382Z" fill="#CCCCCC"/>
<path d="M529.967 205.239H313.132C312.252 205.239 311.408 204.889 310.785 204.268C310.163 203.646 309.813 202.802 309.813 201.923C309.813 201.043 310.163 200.2 310.785 199.578C311.408 198.956 312.252 198.606 313.132 198.606H529.967C530.847 198.606 531.691 198.956 532.314 199.578C532.936 200.2 533.286 201.043 533.286 201.923C533.286 202.802 532.936 203.646 532.314 204.268C531.691 204.889 530.847 205.239 529.967 205.239Z" fill="#CCCCCC"/>
<path d="M477.602 228.084H313.132C312.252 228.084 311.408 227.735 310.785 227.113C310.163 226.491 309.813 225.647 309.813 224.768C309.813 223.888 310.163 223.045 310.785 222.423C311.408 221.801 312.252 221.452 313.132 221.452H477.602C478.482 221.452 479.327 221.801 479.949 222.423C480.571 223.045 480.921 223.888 480.921 224.768C480.921 225.647 480.571 226.491 479.949 227.113C479.327 227.735 478.482 228.084 477.602 228.084Z" fill="#CCCCCC"/>
<path d="M529.967 250.929H313.132C312.252 250.929 311.408 250.58 310.785 249.958C310.163 249.336 309.813 248.493 309.813 247.613C309.813 246.734 310.163 245.89 310.785 245.268C311.408 244.646 312.252 244.297 313.132 244.297H529.967C530.847 244.297 531.691 244.646 532.314 245.268C532.936 245.89 533.286 246.734 533.286 247.613C533.286 248.493 532.936 249.336 532.314 249.958C531.691 250.58 530.847 250.929 529.967 250.929Z" fill="#CCCCCC"/>
<path d="M529.967 273.775H313.132C312.252 273.775 311.408 273.425 310.785 272.803C310.163 272.182 309.813 271.338 309.813 270.458C309.813 269.579 310.163 268.735 310.785 268.113C311.408 267.492 312.252 267.142 313.132 267.142H529.967C530.847 267.142 531.691 267.492 532.314 268.113C532.936 268.735 533.286 269.579 533.286 270.458C533.286 271.338 532.936 272.182 532.314 272.803C531.691 273.425 530.847 273.775 529.967 273.775Z" fill="#CCCCCC"/>
<path d="M355.119 286.163H196.55C195.572 286.162 194.635 285.774 193.943 285.083C193.252 284.392 192.863 283.456 192.862 282.479V184.465C192.863 183.488 193.252 182.552 193.943 181.861C194.635 181.17 195.572 180.782 196.55 180.78H355.119C356.097 180.782 357.034 181.17 357.726 181.861C358.417 182.552 358.806 183.488 358.807 184.465V282.479C358.806 283.456 358.417 284.392 357.726 285.083C357.034 285.774 356.097 286.162 355.119 286.163Z" fill="#D0F6E2"/>
<path d="M355.119 286.163H196.55C195.572 286.162 194.635 285.774 193.943 285.083C193.252 284.392 192.863 283.456 192.862 282.479V184.465C192.863 183.488 193.252 182.552 193.943 181.861C194.635 181.17 195.572 180.782 196.55 180.78H355.119C356.097 180.782 357.034 181.17 357.726 181.861C358.417 182.552 358.806 183.488 358.807 184.465V282.479C358.806 283.456 358.417 284.392 357.726 285.083C357.034 285.774 356.097 286.162 355.119 286.163ZM196.55 182.254C195.963 182.255 195.401 182.488 194.986 182.903C194.571 183.317 194.338 183.879 194.337 184.465V282.479C194.338 283.065 194.571 283.627 194.986 284.041C195.401 284.456 195.963 284.689 196.55 284.69H355.119C355.706 284.689 356.268 284.456 356.683 284.041C357.098 283.627 357.331 283.065 357.332 282.479V184.465C357.331 183.879 357.098 183.317 356.683 182.903C356.268 182.488 355.706 182.255 355.119 182.254H196.55Z" fill="#3F3D56"/>
<path d="M323.774 225.366H227.895C227.015 225.366 226.171 225.016 225.548 224.394C224.926 223.772 224.576 222.929 224.576 222.049C224.576 221.17 224.926 220.326 225.548 219.704C226.171 219.082 227.015 218.733 227.895 218.733H323.774C324.655 218.733 325.499 219.082 326.121 219.704C326.744 220.326 327.093 221.17 327.093 222.049C327.093 222.929 326.744 223.772 326.121 224.394C325.499 225.016 324.655 225.366 323.774 225.366Z" fill="white"/>
<path d="M323.774 248.211H227.895C227.015 248.211 226.171 247.861 225.548 247.24C224.926 246.618 224.576 245.774 224.576 244.895C224.576 244.015 224.926 243.172 225.548 242.55C226.171 241.928 227.015 241.578 227.895 241.578H323.774C324.655 241.578 325.499 241.928 326.121 242.55C326.744 243.172 327.093 244.015 327.093 244.895C327.093 245.774 326.744 246.618 326.121 247.24C325.499 247.861 324.655 248.211 323.774 248.211Z" fill="white"/>
<path d="M169.88 372.076H178.922L183.223 337.228L169.878 337.229L169.88 372.076Z" fill="#A0616A"/>
<path d="M167.573 369.127L185.38 369.126H185.381C188.391 369.126 191.277 370.321 193.405 372.447C195.533 374.574 196.729 377.458 196.729 380.465V380.833L167.574 380.834L167.573 369.127Z" fill="#2F2E41"/>
<path d="M99.4756 368.165L108.416 369.515L117.883 335.702L106.163 333.709L99.4756 368.165Z" fill="#A0616A"/>
<path d="M97.6361 364.904L115.243 367.563L115.244 367.564C118.22 368.013 120.895 369.626 122.681 372.046C124.467 374.466 125.218 377.497 124.768 380.47L124.713 380.834L95.8851 376.481L97.6361 364.904Z" fill="#2F2E41"/>
<path d="M127.354 199.375L137.394 202.003L136.726 218.267L136.643 247.879C137.633 248.563 138.391 249.53 138.817 250.654C139.244 251.777 139.32 253.003 139.034 254.171C138.748 255.338 138.114 256.391 137.216 257.19C136.318 257.99 135.199 258.498 134.005 258.648C132.812 258.798 131.602 258.582 130.534 258.029C129.466 257.477 128.591 256.613 128.025 255.553C127.459 254.493 127.228 253.286 127.364 252.092C127.499 250.898 127.994 249.773 128.783 248.866L125.698 219.146L127.354 199.375Z" fill="#A0616A"/>
<path d="M125.607 180.746C125.662 179.174 126.169 177.652 127.068 176.36C127.966 175.069 129.218 174.063 130.673 173.464C132.035 172.855 133.546 172.657 135.019 172.893C136.492 173.13 137.864 173.792 138.967 174.797C139.759 175.504 140.388 176.376 140.808 177.351C141.229 178.326 141.431 179.381 141.402 180.442C141.428 189.97 139.276 203.857 139.254 203.996L139.22 204.217L124.545 209.155L125.607 180.746Z" fill="#059B49"/>
<path d="M151.846 207.792L174.291 201.987L184.666 236.901L185.035 366.972L167.871 366.865L160.696 261.589L114.969 358.866L96.5305 356.655L136.726 252.377C136.726 252.377 134.513 233.954 141.52 224.742L140.045 215.162L151.846 207.792Z" fill="#2F2E41"/>
<path d="M136.711 216.479C136.398 216.098 136.17 215.654 136.043 215.177C135.916 214.7 135.894 214.201 135.978 213.715L125.74 183.025C125.262 181.59 125.211 180.048 125.593 178.585C125.976 177.122 126.776 175.801 127.895 174.784L132.339 170.747L135.351 158.709L152.662 162.937L151.236 168.638L159.07 167.215L175.572 203.938L141.079 217.714L139.381 217.741C138.87 217.742 138.365 217.629 137.903 217.411C137.442 217.192 137.034 216.874 136.711 216.479Z" fill="#059B49"/>
<path d="M160.739 190.567L170.63 187.426L178.766 201.528L194.537 226.598C195.738 226.648 196.897 227.061 197.858 227.782C198.82 228.504 199.54 229.5 199.923 230.639C200.306 231.778 200.333 233.007 200.002 234.162C199.671 235.317 198.996 236.345 198.068 237.109C197.14 237.873 196.001 238.337 194.803 238.44C193.605 238.544 192.404 238.281 191.358 237.687C190.312 237.093 189.472 236.197 188.947 235.115C188.423 234.034 188.24 232.819 188.422 231.631L169.915 208.161L160.739 190.567Z" fill="#A0616A"/>
<path d="M149.296 175.755C148.502 174.397 148.116 172.84 148.185 171.269C148.253 169.698 148.773 168.179 149.682 166.895C150.508 165.654 151.678 164.68 153.05 164.093C154.422 163.506 155.935 163.332 157.404 163.592C158.452 163.767 159.45 164.168 160.327 164.767C161.204 165.367 161.939 166.15 162.482 167.062C167.601 175.1 173.211 187.988 173.267 188.116L173.356 188.322L163.596 200.332L149.296 175.755Z" fill="#059B49"/>
<path d="M148.159 156.469C155.755 156.469 161.913 150.316 161.913 142.726C161.913 135.136 155.755 128.983 148.159 128.983C140.563 128.983 134.405 135.136 134.405 142.726C134.405 150.316 140.563 156.469 148.159 156.469Z" fill="#A0616A"/>
<path d="M123.852 136.929C131.169 136.929 137.101 131.002 137.101 123.691C137.101 116.38 131.169 110.453 123.852 110.453C116.535 110.453 110.604 116.38 110.604 123.691C110.604 131.002 116.535 136.929 123.852 136.929Z" fill="#2F2E41"/>
<path d="M112.425 134.653C114.139 135.891 116.126 136.701 118.218 137.015C120.311 137.329 122.448 137.138 124.451 136.457C126.454 135.777 128.265 134.627 129.732 133.103C131.2 131.58 132.28 129.728 132.884 127.702C132.656 129.518 132.053 131.266 131.114 132.837C130.175 134.409 128.92 135.768 127.429 136.831C125.937 137.893 124.241 138.635 122.449 139.009C120.656 139.383 118.805 139.382 117.012 139.006C115.22 138.629 113.525 137.886 112.035 136.822C110.545 135.758 109.292 134.396 108.354 132.824C107.417 131.252 106.817 129.502 106.59 127.686C106.364 125.87 106.517 124.027 107.039 122.273C106.743 124.629 107.086 127.022 108.033 129.2C108.981 131.379 110.498 133.262 112.425 134.653Z" fill="#2F2E41"/>
<path d="M164.71 134.668C162.397 130.53 161.512 128.802 158.53 126.286C155.893 124.061 152.649 123.407 150.033 125.516C146.938 124.179 143.494 123.876 140.212 124.652C136.931 125.427 133.988 127.239 131.819 129.819C129.651 132.399 128.373 135.609 128.176 138.972C127.979 142.335 128.873 145.673 130.725 148.488C132.577 151.303 135.288 153.446 138.456 154.599C141.625 155.752 145.08 155.853 148.31 154.887C151.541 153.921 154.373 151.94 156.386 149.237C158.4 146.535 159.487 143.256 159.487 139.887C159.485 139.295 159.449 138.704 159.38 138.116C161.654 137.797 162.436 134.987 164.71 134.668Z" fill="#2F2E41"/>
<path d="M281.738 381H0.737533C0.541927 381 0.354332 380.922 0.216018 380.784C0.0777036 380.646 0 380.459 0 380.263C0 380.068 0.0777036 379.88 0.216018 379.742C0.354332 379.604 0.541927 379.526 0.737533 379.526H281.738C281.933 379.526 282.121 379.604 282.259 379.742C282.398 379.88 282.475 380.068 282.475 380.263C282.475 380.459 282.398 380.646 282.259 380.784C282.121 380.922 281.933 381 281.738 381Z" fill="#CCCCCC"/>
</g>
<defs>
<clipPath id="clip0_5_921">
<rect width="565" height="381" fill="white"/>
</clipPath>
</defs>
</svg>
