<svg width="565" height="380" viewBox="0 0 565 380" fill="none" xmlns="http://www.w3.org/2000/svg">
<g clip-path="url(#clip0_5_689)">
<path d="M76.0599 154.595C88.3524 154.595 98.3174 144.638 98.3174 132.356C98.3174 120.075 88.3524 110.118 76.0599 110.118C63.7675 110.118 53.8025 120.075 53.8025 132.356C53.8025 144.638 63.7675 154.595 76.0599 154.595Z" fill="#2F2E41"/>
<path d="M77.9296 154.637C87.9934 154.637 96.1518 146.486 96.1518 136.43C96.1518 126.375 87.9934 118.224 77.9296 118.224C67.8657 118.224 59.7074 126.375 59.7074 136.43C59.7074 146.486 67.8657 154.637 77.9296 154.637Z" fill="#A0616A"/>
<path d="M147.327 191.81C147.037 192.101 146.771 192.414 146.531 192.747L109.761 191.449L105.555 183.568L92.822 188.355L98.9102 203.033C99.402 204.218 100.265 205.212 101.371 205.866C102.476 206.519 103.764 206.797 105.041 206.657L146.651 202.092C147.618 203.343 148.943 204.271 150.45 204.751C151.958 205.231 153.576 205.242 155.089 204.781C156.603 204.32 157.94 203.409 158.922 202.17C159.905 200.932 160.487 199.423 160.591 197.846C160.695 196.268 160.315 194.697 159.503 193.34C158.691 191.983 157.485 190.906 156.045 190.251C154.605 189.596 152.999 189.395 151.442 189.674C149.885 189.953 148.449 190.699 147.327 191.814V191.81Z" fill="#A0616A"/>
<path d="M87.9239 195.442C87.4553 195.232 87.0375 194.924 86.6991 194.538C86.3607 194.152 86.1096 193.697 85.963 193.206L80.8438 176.031C80.2876 174.853 79.9693 173.576 79.907 172.275C79.8448 170.973 80.0398 169.672 80.481 168.446C80.9222 167.22 81.6009 166.093 82.4783 165.129C83.3557 164.165 84.4146 163.384 85.5945 162.829C86.7745 162.274 88.0522 161.957 89.3548 161.896C90.6574 161.835 91.9593 162.031 93.186 162.473C94.4128 162.914 95.5404 163.593 96.5044 164.471C97.4683 165.348 98.2498 166.407 98.8041 167.586L108.725 182.586C109.008 183.014 109.195 183.498 109.274 184.005C109.353 184.512 109.322 185.03 109.183 185.524C109.043 186.018 108.799 186.476 108.466 186.867C108.134 187.258 107.721 187.573 107.255 187.79L90.9027 195.417C90.4375 195.634 89.9308 195.749 89.4172 195.753C88.9036 195.756 88.3953 195.65 87.9268 195.439L87.9239 195.442Z" fill="#CCCCCC"/>
<path d="M124.141 369.811L132.129 365.465L119.157 332.61L107.367 339.023L124.141 369.811Z" fill="#A0616A"/>
<path d="M120.683 368.312L136.415 359.755C137.732 359.039 139.177 358.589 140.668 358.431C142.158 358.273 143.666 358.409 145.103 358.833C146.541 359.257 147.881 359.96 149.047 360.901C150.213 361.842 151.182 363.004 151.899 364.319L152.077 364.645L126.317 378.655L120.683 368.312Z" fill="#2F2E41"/>
<path d="M36.2332 369.846H45.3284L49.6559 334.793H36.2273L36.2332 369.846Z" fill="#A0616A"/>
<path d="M33.9125 366.88H51.826C54.8535 366.88 57.757 368.081 59.8977 370.22C62.0385 372.359 63.2411 375.26 63.2411 378.285V378.656H33.9132L33.9125 366.88Z" fill="#2F2E41"/>
<path d="M92.753 214.271L95.7207 249.852L128.824 349.076C129.073 349.822 129.015 350.637 128.663 351.34C128.311 352.043 127.694 352.578 126.947 352.827C126.865 352.854 126.781 352.878 126.696 352.898L116.551 355.312C115.901 355.467 115.218 355.398 114.612 355.117C114.006 354.835 113.513 354.358 113.212 353.762L70.891 269.881C70.7531 269.608 70.5338 269.384 70.2634 269.24C69.993 269.096 69.6847 269.04 69.3807 269.078C69.0768 269.116 68.7921 269.247 68.5659 269.454C68.3396 269.66 68.1828 269.931 68.117 270.23L49.4949 355.004C49.3498 355.664 48.9833 356.255 48.4561 356.679C47.929 357.103 47.2728 357.333 46.5963 357.333H37.1546C36.7656 357.334 36.3802 357.258 36.0205 357.11C35.6608 356.962 35.3339 356.745 35.0583 356.47C34.7826 356.196 34.5638 355.87 34.4143 355.511C34.2647 355.152 34.1874 354.768 34.1866 354.379C34.1866 354.362 34.1868 354.345 34.187 354.328C35.0521 295.545 32.1987 228.568 54.9131 217.973L58.6227 208.337L92.753 214.271Z" fill="#3F3D56"/>
<path d="M57.5566 210.861L53.7328 187.75C53.0996 183.96 53.4316 180.071 54.6983 176.443C55.9649 172.815 58.1254 169.564 60.9805 166.99C63.7712 164.44 67.1594 162.633 70.8328 161.736C74.5062 160.839 78.3465 160.88 81.9997 161.856C82.2163 161.914 82.4337 161.974 82.6511 162.035C87.1454 163.322 91.1362 165.955 94.0846 169.58C97.0329 173.205 98.7968 177.647 99.138 182.306C99.868 192.343 99.2121 206.904 91.9577 219.273L91.8167 219.514L57.5566 210.861Z" fill="#CCCCCC"/>
<path d="M96.0568 126.754C91.8928 129.622 86.9503 131.148 81.8929 131.127C83.697 132.377 85.7508 133.221 87.9128 133.602C81.1889 135.043 74.2395 135.082 67.4998 133.717C66.0016 133.477 64.556 132.981 63.2263 132.25C62.5638 131.881 61.9865 131.376 61.5321 130.768C61.0777 130.161 60.7563 129.465 60.5888 128.726C60.1437 126.169 62.1342 123.847 64.2064 122.282C67.3784 119.922 71.0358 118.296 74.9139 117.522C78.792 116.747 82.7939 116.844 86.63 117.804C89.1348 118.452 91.6439 119.544 93.2709 121.555C94.8979 123.565 95.3802 126.663 93.8296 128.733L96.0568 126.754Z" fill="#2F2E41"/>
<path d="M75.7676 110.008C77.8799 101.484 70.3093 92.0191 61.5228 92.1962C52.6102 92.3764 46.051 100.424 41.5423 108.107C37.0337 115.79 32.554 124.502 24.2787 127.81C21.5397 128.905 18.5716 129.303 15.6406 128.97C12.7096 128.636 9.90716 127.581 7.48463 125.899C5.06211 124.217 3.0952 121.961 1.76022 119.333C0.425242 116.704 -0.236066 113.786 -0.164417 110.839C-1.27729 120.174 0.263677 130.275 6.29025 137.496C12.3168 144.716 23.5271 147.97 31.5895 143.118C36.1894 140.346 39.1341 135.529 41.5594 130.738C43.9847 125.947 46.1429 120.895 49.8176 116.977C53.4924 113.059 59.1747 110.46 64.2894 112.108C66.3193 112.762 68.1407 114.035 70.2381 114.425C72.3355 114.815 74.976 113.817 75.2624 111.705L75.7676 110.008Z" fill="#2F2E41"/>
<path d="M31.8463 264.522C31.09 263.637 30.5372 262.596 30.2269 261.474C29.9167 260.352 29.8564 259.175 30.0504 258.027C30.2444 256.88 30.688 255.788 31.3499 254.83C32.0118 253.872 32.8759 253.07 33.8813 252.482L49.6878 181.69L65.7229 188.266L45.1443 255.782C46.0265 257.536 46.2332 259.552 45.7252 261.448C45.2172 263.344 44.0298 264.987 42.3887 266.066C40.7476 267.144 38.7672 267.583 36.8236 267.299C34.88 267.014 33.1087 266.026 31.8463 264.522Z" fill="#A0616A"/>
<path d="M43.4268 191.847C43.1741 191.4 43.021 190.903 42.978 190.392C42.935 189.88 43.003 189.365 43.1776 188.882L49.2561 172.021C49.7677 169.442 51.284 167.17 53.4716 165.708C55.6592 164.245 58.3387 163.71 60.9208 164.221C63.5029 164.732 65.776 166.248 67.2401 168.433C68.7041 170.619 69.2392 173.296 68.7276 175.876L67.8039 193.831C67.7776 194.344 67.641 194.844 67.4034 195.299C67.1659 195.754 66.833 196.153 66.4275 196.468C66.0219 196.782 65.5532 197.006 65.0533 197.124C64.5534 197.241 64.034 197.25 63.5305 197.149L45.8359 193.59C45.3323 193.489 44.8564 193.281 44.4408 192.979C44.0252 192.678 43.6796 192.29 43.4276 191.843L43.4268 191.847Z" fill="#CCCCCC"/>
<path d="M222.285 2.21364C221.948 1.41486 221.384 0.732249 220.663 0.250191C219.942 -0.231867 219.095 -0.492225 218.228 -0.498688H137.24C136.076 -0.498098 134.959 -0.0357955 134.136 0.786637C133.313 1.60907 132.85 2.72436 132.85 3.88746V106.254C132.85 107.417 133.313 108.533 134.136 109.355C134.959 110.177 136.076 110.64 137.24 110.64H218.228C219.392 110.639 220.507 110.176 221.33 109.354C222.153 108.532 222.616 107.417 222.618 106.254V3.88894C222.62 3.31389 222.507 2.74425 222.285 2.21364ZM221.643 106.253C221.641 107.157 221.281 108.024 220.641 108.663C220.002 109.302 219.135 109.662 218.23 109.663H137.24C136.335 109.663 135.467 109.304 134.827 108.665C134.187 108.025 133.827 107.158 133.827 106.253V3.88894C133.829 2.98512 134.189 2.11882 134.829 1.47973C135.468 0.840636 136.335 0.480821 137.24 0.479057H218.228C218.91 0.481858 219.577 0.687878 220.141 1.07079C220.706 1.45371 221.144 1.99612 221.398 2.62876C221.448 2.75462 221.491 2.88305 221.527 3.01349C221.604 3.3006 221.644 3.5967 221.644 3.89412L221.643 106.253Z" fill="#CCCCCC"/>
<path d="M205.382 23.6714H180.988C180.47 23.6714 179.974 23.466 179.608 23.1003C179.242 22.7346 179.036 22.2386 179.036 21.7215C179.036 21.2043 179.242 20.7084 179.608 20.3427C179.974 19.977 180.47 19.7715 180.988 19.7715H205.381C205.892 19.7815 206.379 19.9913 206.737 20.3559C207.094 20.7205 207.295 21.2108 207.295 21.7215C207.295 22.2321 207.094 22.7224 206.737 23.087C206.379 23.4516 205.893 23.6615 205.382 23.6714Z" fill="#CCCCCC"/>
<path d="M205.382 33.9085H180.988C180.47 33.9085 179.974 33.703 179.608 33.3374C179.242 32.9717 179.036 32.4757 179.036 31.9585C179.036 31.4414 179.242 30.9454 179.608 30.5797C179.974 30.214 180.47 30.0086 180.988 30.0086H205.381C205.892 30.0186 206.379 30.2284 206.737 30.593C207.094 30.9576 207.295 31.4479 207.295 31.9585C207.295 32.4692 207.094 32.9595 206.737 33.3241C206.379 33.6887 205.893 33.8985 205.382 33.9085Z" fill="#CCCCCC"/>
<path d="M168.474 39.7371H150.644C150.062 39.7365 149.504 39.5053 149.092 39.094C148.681 38.6828 148.449 38.1252 148.449 37.5437V16.5248C148.449 15.9432 148.681 15.3856 149.092 14.9744C149.504 14.5632 150.062 14.3319 150.644 14.3313H168.474C169.056 14.3321 169.614 14.5635 170.026 14.9746C170.437 15.3858 170.669 15.9433 170.67 16.5248V37.5437C170.669 38.1252 170.438 38.6828 170.026 39.094C169.614 39.5053 169.056 39.7365 168.474 39.7371Z" fill="#CCCCCC"/>
<path d="M205.212 54.8688H150.082C149.565 54.8688 149.068 54.6634 148.702 54.2977C148.336 53.932 148.131 53.436 148.131 52.9189C148.131 52.4017 148.336 51.9058 148.702 51.5401C149.068 51.1744 149.565 50.969 150.082 50.969H205.212C205.729 50.969 206.226 51.1744 206.592 51.5401C206.958 51.9058 207.163 52.4017 207.163 52.9189C207.163 53.436 206.958 53.932 206.592 54.2977C206.226 54.6634 205.729 54.8688 205.212 54.8688Z" fill="#CCCCCC"/>
<path d="M205.212 65.1088H150.082C149.565 65.1088 149.068 64.9034 148.702 64.5377C148.336 64.172 148.131 63.6761 148.131 63.1589C148.131 62.6417 148.336 62.1458 148.702 61.7801C149.068 61.4144 149.565 61.209 150.082 61.209H205.212C205.729 61.209 206.226 61.4144 206.592 61.7801C206.958 62.1458 207.163 62.6417 207.163 63.1589C207.163 63.6761 206.958 64.172 206.592 64.5377C206.226 64.9034 205.729 65.1088 205.212 65.1088Z" fill="#CCCCCC"/>
<path d="M205.212 75.3422H150.082C149.565 75.3422 149.068 75.1367 148.702 74.771C148.336 74.4054 148.131 73.9094 148.131 73.3922C148.131 72.8751 148.336 72.3791 148.702 72.0134C149.068 71.6477 149.565 71.4423 150.082 71.4423H205.212C205.729 71.4423 206.226 71.6477 206.592 72.0134C206.958 72.3791 207.163 72.8751 207.163 73.3922C207.163 73.9094 206.958 74.4054 206.592 74.771C206.226 75.1367 205.729 75.3422 205.212 75.3422Z" fill="#CCCCCC"/>
<path d="M205.212 85.5815H150.082C149.565 85.5815 149.068 85.376 148.702 85.0103C148.336 84.6447 148.131 84.1487 148.131 83.6315C148.131 83.1144 148.336 82.6184 148.702 82.2527C149.068 81.887 149.565 81.6816 150.082 81.6816H205.212C205.729 81.6816 206.226 81.887 206.592 82.2527C206.958 82.6184 207.163 83.1144 207.163 83.6315C207.163 84.1487 206.958 84.6447 206.592 85.0103C206.226 85.376 205.729 85.5815 205.212 85.5815Z" fill="#CCCCCC"/>
<path d="M205.212 95.8155H150.082C149.565 95.8155 149.068 95.6101 148.702 95.2444C148.336 94.8787 148.131 94.3828 148.131 93.8656C148.131 93.3484 148.336 92.8525 148.702 92.4868C149.068 92.1211 149.565 91.9156 150.082 91.9156H205.212C205.729 91.9156 206.226 92.1211 206.592 92.4868C206.958 92.8525 207.163 93.3484 207.163 93.8656C207.163 94.3828 206.958 94.8787 206.592 95.2444C206.226 95.6101 205.729 95.8155 205.212 95.8155Z" fill="#CCCCCC"/>
<path d="M271.198 62.6564C270.77 61.641 270.053 60.7733 269.137 60.1606C268.22 59.548 267.144 59.2173 266.041 59.2094H163.119C161.64 59.2102 160.221 59.7978 159.175 60.843C158.129 61.8882 157.541 63.3056 157.54 64.7838V194.878C157.541 196.356 158.129 197.774 159.175 198.819C160.221 199.864 161.64 200.452 163.119 200.452H266.045C267.524 200.45 268.942 199.863 269.988 198.818C271.034 197.773 271.622 196.356 271.624 194.878V64.7838C271.627 64.0536 271.483 63.3302 271.201 62.6564H271.198Z" fill="#E6E6E6"/>
<path d="M262.817 193.148H166.632C165.246 193.147 164.161 191.632 164.161 189.699V69.0194C164.162 67.0851 165.248 65.5704 166.632 65.5704H262.817C264.204 65.5722 265.289 67.0869 265.289 69.0194V189.699C265.288 191.633 264.202 193.148 262.817 193.148Z" fill="white"/>
<path d="M271.198 62.6564C270.77 61.641 270.053 60.7733 269.137 60.1606C268.22 59.548 267.144 59.2173 266.041 59.2094H163.119C161.64 59.2102 160.221 59.7978 159.175 60.843C158.129 61.8882 157.541 63.3056 157.54 64.7838V194.878C157.541 196.356 158.129 197.774 159.175 198.819C160.221 199.864 161.64 200.452 163.119 200.452H266.045C267.524 200.45 268.942 199.863 269.988 198.818C271.034 197.773 271.622 196.356 271.624 194.878V64.7838C271.627 64.0536 271.483 63.3302 271.201 62.6564H271.198ZM270.382 194.878C270.38 196.028 269.923 197.13 269.109 197.943C268.295 198.756 267.192 199.213 266.041 199.215H163.119C161.968 199.214 160.865 198.758 160.051 197.945C159.237 197.132 158.78 196.029 158.779 194.88V64.7846C158.781 63.635 159.238 62.5329 160.052 61.72C160.866 60.907 161.969 60.4497 163.119 60.4481H266.045C266.912 60.4514 267.758 60.7126 268.476 61.1985C269.193 61.6844 269.749 62.3728 270.074 63.176C270.137 63.336 270.191 63.4994 270.237 63.6652C270.335 64.0302 270.385 64.4066 270.385 64.7846L270.382 194.878Z" fill="#3F3D56"/>
<path d="M249.719 89.9242H218.718C218.06 89.9242 217.429 89.6631 216.964 89.1984C216.499 88.7337 216.237 88.1034 216.237 87.4461C216.237 86.7889 216.499 86.1586 216.964 85.6939C217.429 85.2291 218.06 84.968 218.718 84.968H249.719C250.377 84.968 251.008 85.2291 251.473 85.6939C251.938 86.1586 252.199 86.7889 252.199 87.4461C252.199 88.1034 251.938 88.7337 251.473 89.1984C251.008 89.6631 250.377 89.9242 249.719 89.9242Z" fill="#3F3D56"/>
<path d="M249.719 102.934H218.718C218.06 102.934 217.429 102.673 216.964 102.208C216.499 101.743 216.237 101.113 216.237 100.456C216.237 99.7984 216.499 99.168 216.964 98.7033C217.429 98.2386 218.06 97.9775 218.718 97.9775H249.719C250.377 97.9775 251.008 98.2386 251.473 98.7033C251.938 99.168 252.199 99.7984 252.199 100.456C252.199 101.113 251.938 101.743 251.473 102.208C251.008 102.673 250.377 102.934 249.719 102.934Z" fill="#3F3D56"/>
<path d="M202.811 110.341H180.155C179.415 110.34 178.706 110.046 178.183 109.524C177.66 109.001 177.366 108.292 177.365 107.553V80.8406C177.366 80.1015 177.66 79.3928 178.183 78.8701C178.706 78.3474 179.415 78.0535 180.155 78.0527H202.811C203.551 78.0535 204.26 78.3474 204.783 78.8701C205.306 79.3928 205.6 80.1015 205.601 80.8406V107.553C205.6 108.292 205.306 109.001 204.783 109.524C204.26 110.046 203.551 110.34 202.811 110.341Z" fill="#059B49"/>
<path d="M249.504 129.572H179.441C178.783 129.572 178.152 129.311 177.687 128.846C177.222 128.382 176.96 127.751 176.96 127.094C176.96 126.437 177.222 125.807 177.687 125.342C178.152 124.877 178.783 124.616 179.441 124.616H249.504C250.162 124.616 250.793 124.877 251.258 125.342C251.723 125.807 251.984 126.437 251.984 127.094C251.984 127.751 251.723 128.382 251.258 128.846C250.793 129.311 250.162 129.572 249.504 129.572Z" fill="#E6E6E6"/>
<path d="M249.504 142.582H179.441C178.783 142.583 178.151 142.324 177.685 141.861C177.218 141.397 176.955 140.768 176.954 140.11C176.952 139.453 177.211 138.822 177.675 138.356C178.139 137.89 178.769 137.627 179.427 137.625H249.504C250.162 137.625 250.793 137.886 251.258 138.351C251.723 138.816 251.984 139.446 251.984 140.103C251.984 140.761 251.723 141.391 251.258 141.856C250.793 142.32 250.162 142.582 249.504 142.582Z" fill="#E6E6E6"/>
<path d="M249.504 155.591H179.441C178.783 155.591 178.152 155.33 177.687 154.865C177.222 154.4 176.96 153.77 176.96 153.113C176.96 152.456 177.222 151.825 177.687 151.361C178.152 150.896 178.783 150.635 179.441 150.635H249.504C250.162 150.633 250.794 150.892 251.26 151.356C251.726 151.819 251.989 152.449 251.991 153.106C251.993 153.763 251.734 154.394 251.27 154.86C250.806 155.326 250.176 155.589 249.518 155.591H249.504Z" fill="#E6E6E6"/>
<path d="M249.504 168.6H179.441C179.115 168.601 178.792 168.538 178.491 168.414C178.19 168.291 177.916 168.109 177.685 167.88C177.454 167.65 177.27 167.377 177.145 167.077C177.019 166.777 176.954 166.455 176.954 166.129C176.953 165.804 177.016 165.481 177.14 165.18C177.263 164.879 177.445 164.606 177.675 164.375C177.905 164.144 178.178 163.961 178.478 163.836C178.779 163.71 179.101 163.645 179.427 163.644H249.504C250.162 163.644 250.793 163.905 251.258 164.37C251.723 164.835 251.984 165.465 251.984 166.122C251.984 166.78 251.723 167.41 251.258 167.875C250.793 168.339 250.162 168.6 249.504 168.6Z" fill="#E6E6E6"/>
<path d="M249.504 181.61H179.441C178.783 181.612 178.151 181.352 177.685 180.889C177.218 180.425 176.955 179.796 176.954 179.139C176.952 178.481 177.211 177.85 177.675 177.384C178.139 176.918 178.769 176.655 179.427 176.654H249.504C250.162 176.654 250.793 176.915 251.258 177.379C251.723 177.844 251.984 178.475 251.984 179.132C251.984 179.789 251.723 180.419 251.258 180.884C250.793 181.349 250.162 181.61 249.504 181.61Z" fill="#E6E6E6"/>
<path d="M284.063 89.6618C306.19 89.6618 324.127 71.7403 324.127 49.6329C324.127 27.5255 306.19 9.60388 284.063 9.60388C261.937 9.60388 244 27.5255 244 49.6329C244 71.7403 261.937 89.6618 284.063 89.6618Z" fill="#059B49"/>
<path d="M290.373 50.9604V28.877H278.991V50.9604H273.677L279.179 60.4821L284.682 70.0053L290.186 60.4821L295.688 50.9589L290.373 50.9604Z" fill="white"/>
<path d="M298.956 379.501H16.2868C16.0901 379.501 15.9013 379.423 15.7622 379.284C15.6231 379.145 15.5449 378.957 15.5449 378.76C15.5449 378.563 15.6231 378.375 15.7622 378.236C15.9013 378.097 16.0901 378.019 16.2868 378.019H298.956C299.153 378.019 299.342 378.097 299.481 378.236C299.62 378.375 299.698 378.563 299.698 378.76C299.698 378.957 299.62 379.145 299.481 379.284C299.342 379.423 299.153 379.501 298.956 379.501Z" fill="#E6E6E6"/>
<path d="M274.806 372.909C267.684 378.035 258.455 378.292 249.535 377.663C248.289 377.575 247.052 377.472 245.825 377.361H245.8C245.742 377.355 245.683 377.35 245.626 377.346L244.869 377.272L244.929 377.385L245.114 377.735C245.047 377.618 244.981 377.503 244.914 377.386C244.895 377.351 244.872 377.315 244.853 377.28C242.542 373.262 240.253 369.097 239.666 364.508C239.061 359.745 240.76 354.353 244.955 352.012C245.505 351.706 246.087 351.462 246.692 351.285C246.942 351.211 247.197 351.147 247.454 351.093C249.028 350.743 250.666 350.819 252.2 351.312C253.735 351.805 255.11 352.698 256.185 353.898C257.259 355.099 257.995 356.563 258.315 358.142C258.635 359.72 258.529 361.355 258.006 362.879C261.563 359.235 260.9 353.324 259.673 348.383C258.446 343.443 256.955 337.945 259.455 333.508C260.163 332.318 261.115 331.291 262.249 330.495C263.383 329.698 264.672 329.151 266.033 328.888C266.116 328.871 266.201 328.852 266.285 328.836C269.553 328.175 272.95 328.77 275.798 330.502C281.043 333.804 283.737 340.065 284.611 346.198C286.02 356.067 282.903 367.082 274.806 372.909Z" fill="#F2F2F2"/>
<path d="M562.376 142.322H550.867C550.28 142.322 549.718 142.089 549.303 141.674C548.888 141.259 548.654 140.697 548.654 140.111V128.612C548.654 128.026 548.888 127.464 549.303 127.049C549.718 126.634 550.28 126.401 550.867 126.401H562.376C562.963 126.401 563.525 126.634 563.94 127.049C564.355 127.464 564.589 128.026 564.589 128.612V140.111C564.589 140.697 564.355 141.259 563.94 141.674C563.525 142.089 562.963 142.322 562.376 142.322ZM550.867 127.285C550.515 127.285 550.177 127.425 549.928 127.674C549.679 127.923 549.539 128.26 549.539 128.612V140.111C549.539 140.463 549.679 140.8 549.928 141.049C550.177 141.298 550.515 141.438 550.867 141.438H562.376C562.728 141.438 563.066 141.298 563.315 141.049C563.564 140.8 563.704 140.463 563.704 140.111V128.612C563.704 128.26 563.564 127.923 563.315 127.674C563.066 127.425 562.728 127.285 562.376 127.285H550.867Z" fill="#E6E6E6"/>
<path d="M428.251 73.7697H416.742C416.155 73.769 415.593 73.5358 415.178 73.1213C414.763 72.7067 414.53 72.1446 414.529 71.5583V60.0592C414.53 59.4729 414.763 58.9108 415.178 58.4962C415.593 58.0816 416.155 57.8484 416.742 57.8478H428.251C428.838 57.8484 429.401 58.0816 429.816 58.4962C430.23 58.9108 430.464 59.4729 430.465 60.0592V71.5583C430.464 72.1446 430.23 72.7067 429.816 73.1213C429.401 73.5358 428.838 73.769 428.251 73.7697ZM416.742 58.7323C416.39 58.7327 416.053 58.8726 415.804 59.1214C415.555 59.3701 415.415 59.7074 415.414 60.0592V71.5583C415.415 71.9101 415.555 72.2474 415.804 72.4961C416.053 72.7448 416.39 72.8848 416.742 72.8851H428.251C428.603 72.8848 428.941 72.7448 429.19 72.4961C429.439 72.2474 429.579 71.9101 429.579 71.5583V60.0592C429.579 59.7074 429.439 59.3701 429.19 59.1214C428.941 58.8726 428.603 58.7327 428.251 58.7323H416.742Z" fill="#E6E6E6"/>
<path d="M555.293 136.573H543.784C543.198 136.572 542.635 136.339 542.22 135.924C541.805 135.51 541.572 134.948 541.571 134.361V122.862C541.572 122.276 541.805 121.714 542.22 121.299C542.635 120.885 543.198 120.652 543.784 120.651H555.293C555.88 120.652 556.443 120.885 556.858 121.299C557.273 121.714 557.506 122.276 557.507 122.862V134.361C557.506 134.948 557.273 135.51 556.858 135.924C556.443 136.339 555.88 136.572 555.293 136.573ZM543.784 121.535C543.432 121.536 543.095 121.676 542.846 121.924C542.597 122.173 542.457 122.51 542.456 122.862V134.361C542.457 134.713 542.597 135.05 542.846 135.299C543.095 135.548 543.432 135.688 543.784 135.688H555.293C555.646 135.688 555.983 135.548 556.232 135.299C556.481 135.05 556.621 134.713 556.621 134.361V122.862C556.621 122.51 556.481 122.173 556.232 121.924C555.983 121.676 555.646 121.536 555.293 121.535H543.784Z" fill="#E6E6E6"/>
<path d="M355.213 232.547H343.704C343.117 232.546 342.555 232.313 342.14 231.898C341.725 231.484 341.491 230.922 341.491 230.335V218.836C341.491 218.25 341.725 217.688 342.14 217.273C342.555 216.859 343.117 216.625 343.704 216.625H355.213C355.8 216.625 356.362 216.859 356.777 217.273C357.192 217.688 357.426 218.25 357.426 218.836V230.335C357.426 230.922 357.192 231.484 356.777 231.898C356.362 232.313 355.8 232.546 355.213 232.547ZM343.704 217.509C343.352 217.51 343.014 217.65 342.765 217.898C342.516 218.147 342.376 218.484 342.376 218.836V230.335C342.376 230.687 342.516 231.024 342.765 231.273C343.014 231.522 343.352 231.662 343.704 231.662H355.213C355.565 231.662 355.903 231.522 356.152 231.273C356.401 231.024 356.541 230.687 356.541 230.335V218.836C356.541 218.484 356.401 218.147 356.152 217.898C355.903 217.65 355.565 217.51 355.213 217.509H343.704Z" fill="#E6E6E6"/>
<path d="M348.131 226.797H336.621C336.035 226.796 335.472 226.563 335.057 226.149C334.642 225.734 334.409 225.172 334.408 224.586V213.086C334.409 212.5 334.642 211.938 335.057 211.523C335.472 211.109 336.035 210.876 336.621 210.875H348.131C348.717 210.876 349.28 211.109 349.695 211.523C350.11 211.938 350.343 212.5 350.344 213.086V224.586C350.343 225.172 350.11 225.734 349.695 226.149C349.28 226.563 348.717 226.796 348.131 226.797ZM336.621 211.76C336.269 211.76 335.932 211.9 335.683 212.149C335.434 212.397 335.294 212.735 335.294 213.086V224.586C335.294 224.937 335.434 225.275 335.683 225.523C335.932 225.772 336.269 225.912 336.621 225.912H348.131C348.483 225.912 348.82 225.772 349.069 225.523C349.318 225.275 349.458 224.937 349.459 224.586V213.086C349.458 212.735 349.318 212.397 349.069 212.149C348.82 211.9 348.483 211.76 348.131 211.76H336.621Z" fill="#E6E6E6"/>
<path d="M375.323 95.9005H481.833C486.972 95.9005 491.959 97.6476 495.973 100.855C499.987 104.062 502.79 108.538 503.92 113.548L557.737 352.052C558.324 354.654 558.335 357.352 557.768 359.958C557.201 362.564 556.07 365.014 554.455 367.137C552.84 369.26 550.779 371.005 548.418 372.248C546.057 373.492 543.452 374.204 540.786 374.335L431.294 379.725C425.431 380.014 419.663 378.161 415.066 374.513C410.47 370.865 407.359 365.671 406.314 359.899L375.786 191.274L373.515 191.922L367.673 159.961L370.011 159.377L361.49 112.308C361.125 110.292 361.209 108.22 361.737 106.24C362.266 104.261 363.225 102.422 364.546 100.855C365.867 99.288 367.518 98.0316 369.38 97.1752C371.243 96.3188 373.272 95.8836 375.323 95.9005Z" fill="#3F3D56"/>
<path d="M467.811 101.042H480.244C483.814 101.042 487.277 102.262 490.058 104.5C492.839 106.737 494.77 109.858 495.531 113.343L547.188 349.902C547.486 351.264 547.486 352.674 547.188 354.036C546.89 355.398 546.301 356.679 545.462 357.793C544.623 358.907 543.553 359.827 542.325 360.489C541.098 361.152 539.742 361.542 538.35 361.634L429.211 368.78C426.132 368.982 423.087 368.044 420.656 366.145C418.225 364.246 416.579 361.519 416.032 358.485L371.953 113.979C371.667 112.396 371.733 110.77 372.145 109.216C372.558 107.662 373.306 106.217 374.338 104.983C375.371 103.749 376.661 102.757 378.119 102.076C379.577 101.395 381.167 101.042 382.776 101.042H394.571C395.713 101.042 396.822 101.418 397.728 102.112C398.634 102.806 399.286 103.779 399.583 104.88C399.845 105.852 400.421 106.711 401.22 107.324C402.02 107.936 403 108.268 404.008 108.268H460.001C461.974 108.268 463.875 107.524 465.323 106.184C466.771 104.844 467.659 103.008 467.811 101.042Z" fill="white"/>
<path d="M380.444 141.264H498.844L511.458 198.049L391.511 200.26L380.444 141.264Z" fill="#059B49"/>
<path d="M492.879 248.802H520.754L521.639 254.134H493.764L492.879 248.802Z" fill="#059B49"/>
<path d="M515.558 221.603L397.341 224.104L397.352 224.66L515.57 222.159L515.558 221.603Z" fill="#2F2E41"/>
<path d="M519.174 238L398.731 240.78L398.744 241.335L519.187 238.556L519.174 238Z" fill="#2F2E41"/>
<path d="M504.388 305.856H532.263L533.148 311.187H505.273L504.388 305.856Z" fill="#059B49"/>
<path d="M527.067 278.657L408.85 281.158L408.862 281.714L527.079 279.212L527.067 278.657Z" fill="#2F2E41"/>
<path d="M530.683 295.054L410.24 297.833L410.253 298.389L530.696 295.61L530.683 295.054Z" fill="#2F2E41"/>
</g>
<defs>
<clipPath id="clip0_5_689">
<rect width="565" height="380" fill="white"/>
</clipPath>
</defs>
</svg>
