<svg width="547" height="381" viewBox="0 0 547 381" fill="none" xmlns="http://www.w3.org/2000/svg">
<g clip-path="url(#clip0_5_956)">
<path d="M250.047 101.116C249.822 101.576 249.634 102.054 249.484 102.544L205.506 115.799L197.363 108.169L184.242 118.954L197.345 133.861C198.403 135.066 199.824 135.894 201.393 136.222C202.963 136.55 204.597 136.361 206.049 135.682L253.386 113.545C255.032 114.636 256.971 115.199 258.945 115.16C260.919 115.122 262.834 114.483 264.436 113.33C266.039 112.176 267.252 110.562 267.914 108.702C268.576 106.842 268.657 104.824 268.145 102.918C267.632 101.011 266.552 99.3054 265.047 98.0277C263.542 96.7501 261.683 95.961 259.718 95.7654C257.754 95.5698 255.776 95.9769 254.049 96.9327C252.321 97.8884 250.925 99.3475 250.047 101.116Z" fill="#FFB6B6"/>
<path d="M204.046 116.335L187.866 129.8C187.405 130.184 186.868 130.463 186.29 130.62C185.712 130.776 185.107 130.806 184.516 130.708C183.925 130.61 183.362 130.385 182.866 130.05C182.37 129.715 181.952 129.276 181.64 128.765L170.725 110.841C168.779 108.474 167.852 105.433 168.145 102.383C168.438 99.3338 169.928 96.525 172.289 94.5723C174.649 92.6196 177.687 91.6823 180.738 91.9657C183.788 92.2491 186.602 93.7302 188.562 96.0844L204.158 110.025C204.605 110.424 204.96 110.915 205.199 111.464C205.439 112.013 205.558 112.607 205.547 113.206C205.536 113.805 205.397 114.394 205.138 114.934C204.879 115.474 204.506 115.952 204.046 116.335Z" fill="#3F3D56"/>
<path d="M247.495 340.528L254.538 336.042C254.861 332.103 254.962 328.149 254.84 324.199L251.187 325.132L254.793 322.835C254.594 317.952 254.153 314.731 254.153 314.731C254.153 314.731 239.914 323.98 230.832 336.517L232.381 347.12L228.688 339.705C227.743 341.217 226.894 342.787 226.147 344.406C218.665 360.752 217.938 376.446 224.523 379.461C231.108 382.475 242.512 371.668 249.995 355.322C252.252 350.065 253.689 344.493 254.258 338.8L247.495 340.528Z" fill="#E6E6E6"/>
<path d="M261.961 356.306L270.309 356.105C272.622 352.901 274.752 349.568 276.69 346.124L273.08 345.034L277.354 344.932C279.708 340.649 280.995 337.664 280.995 337.664C280.995 337.664 264.025 338.221 249.771 344.259L245.616 354.136L246.287 345.879C244.697 346.685 243.159 347.591 241.682 348.59C226.828 358.716 218.093 371.775 222.172 377.76C226.251 383.744 241.6 380.387 256.454 370.262C261.104 366.928 265.215 362.902 268.644 358.322L261.961 356.306Z" fill="#E6E6E6"/>
<path d="M212.624 371.047L221.738 371.046L225.157 335.598L212.623 335.894L212.624 371.047Z" fill="#FFB6B6"/>
<path d="M210.299 368.071L228.247 368.071C231.281 368.071 234.191 369.276 236.336 371.421C238.481 373.566 239.686 376.475 239.686 379.508V379.88L210.3 379.881L210.299 368.071Z" fill="#2F2E41"/>
<path d="M105.105 344.739L111.082 351.618L140.462 331.836L131.64 321.683L105.105 344.739Z" fill="#FFB6B6"/>
<path d="M105.827 341.032L117.598 354.581C119.588 356.871 120.587 359.858 120.374 362.884C120.162 365.91 118.756 368.727 116.466 370.717L116.186 370.961L96.912 348.778L105.827 341.032Z" fill="#2F2E41"/>
<path d="M57.8851 381H306.39C306.624 381 306.849 380.907 307.015 380.741C307.181 380.575 307.275 380.35 307.275 380.115C307.275 379.88 307.181 379.655 307.015 379.489C306.849 379.323 306.624 379.23 306.39 379.23H57.8851C57.7687 379.229 57.6533 379.252 57.5456 379.296C57.4379 379.341 57.3401 379.406 57.2576 379.488C57.1751 379.57 57.1097 379.668 57.0651 379.776C57.0204 379.883 56.9974 379.998 56.9974 380.115C56.9974 380.231 57.0204 380.347 57.0651 380.454C57.1097 380.562 57.1751 380.659 57.2576 380.742C57.3401 380.824 57.4379 380.889 57.5456 380.933C57.6533 380.978 57.7687 381 57.8851 381Z" fill="#CACACA"/>
<path d="M192.601 287.604L211.776 358.643H226.643L223.378 280.95L214.759 205.255L183.451 203.592L192.601 287.604Z" fill="#2F2E41"/>
<path d="M159.329 205.255C159.329 205.255 157.665 216.069 164.32 227.714C170.974 239.359 166.815 278.454 166.815 278.454L110.677 334.855C110.677 334.855 119.402 349.99 123.561 349.158C127.72 348.326 193.433 295.091 193.433 295.091L214.759 208.583L159.329 205.255Z" fill="#2F2E41"/>
<path d="M190.282 79.3346C200.849 79.3346 209.414 70.7691 209.414 60.203C209.414 49.6369 200.849 41.0714 190.282 41.0714C179.716 41.0714 171.151 49.6369 171.151 60.203C171.151 70.7691 179.716 79.3346 190.282 79.3346Z" fill="#FFB6B6"/>
<path d="M189.475 90.2856C189.475 90.2856 167.174 81.8432 167.174 84.3386C167.174 86.834 145.188 107.934 150.179 135.383C155.17 162.833 160.992 176.142 158.497 191.115C156.002 206.087 157.665 209.414 157.665 209.414C157.665 209.414 215.59 214.405 216.422 208.583C217.254 202.76 214.006 193.879 214.006 191.384C214.006 188.889 191.022 96.7072 189.475 90.2856Z" fill="#3F3D56"/>
<path d="M181.623 71.699C183.172 70.8801 184.971 70.7113 186.648 70.2023C192.645 68.3813 196.663 61.6011 195.381 55.4657C195.144 54.6788 195.037 53.8583 195.066 53.037C195.29 51.2198 197.149 50.0473 198.932 49.631C200.715 49.2146 202.612 49.2751 204.316 48.6056C206.947 47.5719 208.695 44.8679 209.074 42.0664C209.346 39.2302 208.715 36.3806 207.27 33.925L206.626 35.7782C205.643 34.9468 204.914 33.8564 204.521 32.631C203.789 32.754 203.101 33.0628 202.523 33.5279C201.945 33.993 201.495 34.5988 201.218 35.2873C200.184 35.8968 200.035 33.3935 198.894 33.0242C198.391 32.9615 197.884 33.0867 197.468 33.3757C195.168 34.4489 192.494 33.5313 190.026 32.9365C185.752 31.9113 181.297 31.9061 177.021 32.9212C174.18 33.5988 171.367 34.7789 169.334 36.8759C167.744 38.6812 166.523 40.7801 165.739 43.0543C163.558 48.5418 162.118 54.4795 162.838 60.3403C163.437 65.1363 165.444 69.6473 168.604 73.3043C170.25 75.2011 175.622 81.8186 178.567 80.6904C182.267 79.2728 177.263 74.0045 181.623 71.699Z" fill="#2F2E41"/>
<path opacity="0.2" d="M214.078 237.65L192.189 295.041L193.295 295.463L215.184 238.072L214.078 237.65Z" fill="black"/>
<path d="M261.33 92.5165C259.938 92.5181 258.603 93.072 257.618 94.0566C256.633 95.0412 256.08 96.3762 256.078 97.7686V156.154C256.08 157.547 256.633 158.882 257.618 159.866C258.603 160.851 259.938 161.405 261.33 161.407H540.88C542.272 161.405 543.607 160.851 544.592 159.866C545.576 158.882 546.13 157.547 546.132 156.154V97.7686C546.13 96.3762 545.576 95.0412 544.592 94.0566C543.607 93.072 542.272 92.5181 540.88 92.5165L261.33 92.5165Z" fill="#145A34"/>
<path d="M263.219 96.6119C262.411 96.6127 261.637 96.9338 261.066 97.5047C260.495 98.0756 260.174 98.8496 260.173 99.657V154.266C260.174 155.073 260.495 155.847 261.066 156.418C261.637 156.989 262.411 157.31 263.218 157.311H538.991C539.798 157.31 540.572 156.989 541.143 156.418C541.714 155.847 542.035 155.073 542.036 154.266V99.657C542.035 98.8497 541.714 98.0757 541.143 97.5048C540.572 96.9339 539.798 96.6128 538.991 96.6119H263.219Z" fill="white"/>
<path d="M521.676 142.336C522.985 142.333 524.24 141.811 525.165 140.885C526.09 139.959 526.61 138.704 526.612 137.395C526.614 136.086 526.097 134.83 525.174 133.901C524.251 132.973 522.999 132.447 521.69 132.441C521.685 132.441 521.681 132.441 521.676 132.441H288.421C287.113 132.446 285.859 132.97 284.936 133.897C284.012 134.824 283.494 136.08 283.494 137.389C283.494 138.697 284.012 139.953 284.936 140.88C285.859 141.807 287.113 142.331 288.421 142.336H521.676Z" fill="#E6E6E6"/>
<path d="M388.792 120.841C389.442 120.842 390.086 120.714 390.687 120.466C391.288 120.218 391.834 119.853 392.294 119.394C392.754 118.934 393.119 118.388 393.368 117.788C393.617 117.187 393.745 116.543 393.745 115.893C393.745 115.243 393.617 114.599 393.368 113.998C393.119 113.397 392.754 112.852 392.294 112.392C391.834 111.933 391.288 111.568 390.687 111.32C390.086 111.072 389.442 110.944 388.792 110.945H288.421C287.771 110.944 287.127 111.072 286.526 111.32C285.925 111.568 285.379 111.933 284.919 112.392C284.459 112.852 284.094 113.397 283.845 113.998C283.596 114.599 283.467 115.243 283.467 115.893C283.467 116.543 283.596 117.187 283.845 117.788C284.094 118.388 284.459 118.934 284.919 119.394C285.379 119.853 285.925 120.218 286.526 120.466C287.127 120.714 287.771 120.842 288.421 120.841H388.792Z" fill="#059B49"/>
<path d="M302.188 205.17C301.203 205.172 300.258 205.564 299.561 206.26C298.864 206.957 298.472 207.902 298.471 208.887V250.206C298.472 251.191 298.864 252.136 299.561 252.833C300.258 253.53 301.203 253.922 302.188 253.923H500.021C501.007 253.922 501.951 253.53 502.648 252.833C503.345 252.136 503.737 251.191 503.738 250.206V208.887C503.737 207.902 503.345 206.957 502.648 206.26C501.951 205.564 501.007 205.172 500.021 205.17H302.188Z" fill="#145A34"/>
<path d="M303.525 208.069C302.953 208.069 302.405 208.297 302.001 208.701C301.597 209.105 301.37 209.652 301.369 210.224V248.87C301.37 249.441 301.597 249.989 302.001 250.393C302.405 250.797 302.953 251.024 303.524 251.025H498.685C499.256 251.024 499.804 250.797 500.208 250.393C500.612 249.989 500.839 249.441 500.839 248.87V210.224C500.839 209.652 500.612 209.105 500.208 208.701C499.804 208.297 499.256 208.069 498.685 208.069H303.525Z" fill="#D0F6E2"/>
<path d="M486.431 240.427C487.36 240.428 488.25 240.06 488.908 239.404C489.565 238.749 489.935 237.859 489.936 236.931C489.937 236.002 489.57 235.111 488.914 234.454C488.259 233.796 487.369 233.426 486.441 233.424C486.438 233.424 486.435 233.424 486.431 233.424H321.36C320.433 233.426 319.543 233.795 318.888 234.452C318.232 235.108 317.864 235.998 317.864 236.926C317.864 237.854 318.232 238.743 318.888 239.4C319.543 240.056 320.433 240.426 321.36 240.427H486.431Z" fill="white"/>
<path d="M392.391 225.215C392.851 225.216 393.307 225.126 393.732 224.95C394.158 224.774 394.544 224.517 394.87 224.191C395.196 223.866 395.454 223.48 395.63 223.055C395.807 222.63 395.897 222.174 395.897 221.714C395.897 221.253 395.807 220.798 395.63 220.372C395.454 219.947 395.196 219.561 394.87 219.236C394.544 218.911 394.158 218.653 393.732 218.477C393.307 218.301 392.851 218.211 392.391 218.212H321.36C320.9 218.211 320.444 218.301 320.019 218.477C319.593 218.653 319.207 218.911 318.881 219.236C318.555 219.561 318.297 219.947 318.121 220.372C317.944 220.798 317.854 221.253 317.854 221.714C317.854 222.174 317.944 222.63 318.121 223.055C318.297 223.48 318.555 223.866 318.881 224.191C319.207 224.517 319.593 224.774 320.019 224.95C320.444 225.126 320.9 225.216 321.36 225.215H392.391Z" fill="white"/>
<path d="M302.188 0C301.203 0.00115681 300.258 0.393126 299.561 1.08992C298.864 1.78672 298.472 2.73144 298.471 3.71686V45.0356C298.472 46.0211 298.864 46.9658 299.561 47.6626C300.258 48.3594 301.203 48.7513 302.188 48.7525H500.021C501.007 48.7513 501.951 48.3594 502.648 47.6626C503.345 46.9658 503.737 46.0211 503.738 45.0356V3.71686C503.737 2.73144 503.345 1.78672 502.648 1.08992C501.951 0.393126 501.007 0.00115681 500.021 0H302.188Z" fill="#145A34"/>
<path d="M303.525 2.89832C302.953 2.89889 302.405 3.12609 302.001 3.53009C301.597 3.9341 301.37 4.4819 301.369 5.05329V43.6992C301.37 44.2705 301.597 44.8183 302.001 45.2223C302.405 45.6263 302.953 45.8535 303.524 45.8541H498.685C499.256 45.8535 499.804 45.6262 500.208 45.2222C500.612 44.8182 500.839 44.2705 500.839 43.6992V5.05329C500.839 4.48198 500.612 3.93421 500.208 3.5302C499.804 3.12618 499.256 2.89894 498.685 2.89832H303.525Z" fill="#D0F6E2"/>
<path d="M486.431 35.2569C487.36 35.2577 488.25 34.8898 488.908 34.234C489.565 33.5783 489.935 32.6885 489.936 31.7602C489.937 30.8318 489.57 29.941 488.914 29.2835C488.259 28.626 487.369 28.2557 486.441 28.2539C486.438 28.2539 486.435 28.2539 486.431 28.2539H321.36C320.433 28.2553 319.543 28.6248 318.888 29.2813C318.232 29.9378 317.864 30.8276 317.864 31.7554C317.864 32.6832 318.232 33.573 318.888 34.2296C319.543 34.8861 320.433 35.2556 321.36 35.2569H486.431Z" fill="white"/>
<path d="M392.391 20.0446C392.851 20.0453 393.307 19.9552 393.732 19.7796C394.158 19.6039 394.544 19.3461 394.87 19.0209C395.196 18.6957 395.454 18.3094 395.63 17.8843C395.807 17.4591 395.897 17.0034 395.897 16.5431C395.897 16.0829 395.807 15.6271 395.63 15.202C395.454 14.7768 395.196 14.3906 394.87 14.0654C394.544 13.7402 394.158 13.4824 393.732 13.3067C393.307 13.131 392.851 13.041 392.391 13.0416H321.36C320.9 13.041 320.444 13.131 320.019 13.3067C319.593 13.4824 319.207 13.7402 318.881 14.0654C318.555 14.3906 318.297 14.7768 318.121 15.202C317.944 15.6271 317.854 16.0829 317.854 16.5431C317.854 17.0034 317.944 17.4591 318.121 17.8843C318.297 18.3094 318.555 18.6957 318.881 19.0209C319.207 19.3461 319.593 19.6039 320.019 19.7796C320.444 19.9552 320.9 20.0453 321.36 20.0446H392.391Z" fill="white"/>
<path d="M243.926 134.635C243.556 134.989 243.214 135.373 242.904 135.781L197.054 133.038L192.045 123.066L176.008 128.657L183.159 147.172C183.736 148.668 184.784 149.936 186.143 150.786C187.503 151.636 189.102 152.021 190.699 151.885L242.768 147.453C243.936 149.044 245.562 150.242 247.428 150.888C249.293 151.533 251.312 151.595 253.214 151.065C255.115 150.536 256.811 149.439 258.075 147.923C259.339 146.406 260.111 144.54 260.288 142.574C260.466 140.607 260.041 138.634 259.069 136.915C258.097 135.196 256.626 133.814 254.849 132.952C253.073 132.09 251.077 131.79 249.125 132.09C247.174 132.391 245.36 133.278 243.926 134.635Z" fill="#FFB6B6"/>
<path d="M195.498 133.037L175.664 140.088C175.1 140.289 174.499 140.366 173.903 140.313C173.306 140.26 172.728 140.08 172.207 139.784C171.687 139.487 171.236 139.083 170.886 138.597C170.536 138.11 170.295 137.555 170.179 136.967L166.123 116.376C165.115 113.484 165.294 110.31 166.622 107.549C167.951 104.789 170.319 102.668 173.208 101.65C176.097 100.632 179.272 100.801 182.037 102.12C184.801 103.439 186.931 105.8 187.958 108.686L197.782 127.154C198.063 127.682 198.227 128.266 198.263 128.864C198.298 129.461 198.204 130.06 197.987 130.618C197.771 131.177 197.436 131.682 197.007 132.099C196.577 132.516 196.063 132.836 195.498 133.037Z" fill="#3F3D56"/>
<path d="M263.651 111.222C270.63 111.222 276.288 105.564 276.288 98.5846C276.288 91.6052 270.63 85.9473 263.651 85.9473C256.671 85.9473 251.013 91.6052 251.013 98.5846C251.013 105.564 256.671 111.222 263.651 111.222Z" fill="#059B49"/>
<path d="M25.427 95.457C22.0195 95.457 18.6886 94.4465 15.8553 92.5534C13.0221 90.6603 10.8139 87.9696 9.50994 84.8215C8.20595 81.6734 7.86477 78.2094 8.52953 74.8674C9.1943 71.5254 10.8351 68.4556 13.2446 66.0461C15.654 63.6367 18.7239 61.9958 22.0659 61.331C25.4078 60.6663 28.8719 61.0075 32.02 62.3115C35.1681 63.6154 37.8588 65.8236 39.7519 68.6569C41.645 71.4901 42.6554 74.821 42.6554 78.2285C42.6503 82.7962 40.8335 87.1753 37.6036 90.4052C34.3738 93.635 29.9947 95.4518 25.427 95.457ZM25.427 62.0442C22.226 62.0442 19.0969 62.9934 16.4354 64.7717C13.7739 66.5501 11.6996 69.0777 10.4746 72.035C9.24965 74.9923 8.92915 78.2464 9.55362 81.3859C10.1781 84.5253 11.7195 87.4091 13.9829 89.6725C16.2463 91.936 19.1301 93.4774 22.2696 94.1018C25.409 94.7263 28.6631 94.4058 31.6204 93.1808C34.5777 91.9559 37.1054 89.8815 38.8837 87.22C40.6621 84.5585 41.6113 81.4294 41.6113 78.2285C41.6113 73.9361 39.9062 69.8196 36.871 66.7844C33.8359 63.7493 29.7193 62.0442 25.427 62.0442Z" fill="#3F3D56"/>
<path d="M114.18 112.685C110.772 112.685 107.441 111.675 104.608 109.782C101.775 107.889 99.5666 105.198 98.2626 102.05C96.9586 98.9019 96.6175 95.4378 97.2822 92.0958C97.947 88.7539 99.5878 85.684 101.997 83.2746C104.407 80.8651 107.477 79.2243 110.819 78.5595C114.161 77.8948 117.625 78.2359 120.773 79.5399C123.921 80.8439 126.612 83.0521 128.505 85.8853C130.398 88.7185 131.408 92.0495 131.408 95.457C131.403 100.025 129.586 104.404 126.356 107.634C123.126 110.863 118.747 112.68 114.18 112.685ZM114.18 79.2726C110.979 79.2726 107.85 80.2218 105.188 82.0002C102.527 83.7785 100.452 86.3062 99.2273 89.2635C98.0023 92.2208 97.6818 95.4749 98.3063 98.6144C98.9308 101.754 100.472 104.638 102.736 106.901C104.999 109.164 107.883 110.706 111.022 111.33C114.162 111.955 117.416 111.634 120.373 110.409C123.33 109.184 125.858 107.11 127.636 104.448C129.415 101.787 130.364 98.6579 130.364 95.457C130.364 91.1646 128.659 87.0481 125.624 84.0129C122.589 80.9778 118.472 79.2726 114.18 79.2726Z" fill="#3F3D56"/>
<path d="M49.9644 169.07C46.557 169.07 43.226 168.059 40.3928 166.166C37.5596 164.273 35.3514 161.582 34.0474 158.434C32.7434 155.286 32.4022 151.822 33.067 148.48C33.7318 145.138 35.3726 142.068 37.7821 139.659C40.1915 137.249 43.2613 135.608 46.6033 134.944C49.9453 134.279 53.4094 134.62 56.5575 135.924C59.7056 137.228 62.3963 139.436 64.2894 142.269C66.1825 145.103 67.1929 148.434 67.1929 151.841C67.1878 156.409 65.371 160.788 62.1411 164.018C58.9113 167.248 54.5321 169.064 49.9644 169.07ZM49.9644 135.657C46.7635 135.657 43.6344 136.606 40.9729 138.384C38.3114 140.163 36.237 142.69 35.0121 145.648C33.7871 148.605 33.4666 151.859 34.0911 154.998C34.7156 158.138 36.257 161.022 38.5204 163.285C40.7838 165.549 43.6676 167.09 46.807 167.714C49.9465 168.339 53.2006 168.018 56.1579 166.793C59.1152 165.568 61.6429 163.494 63.4212 160.833C65.1996 158.171 66.1488 155.042 66.1488 151.841C66.1488 147.549 64.4436 143.432 61.4085 140.397C58.3733 137.362 54.2568 135.657 49.9644 135.657Z" fill="#3F3D56"/>
<path d="M0 106.457V77.2691H25.5029V106.457H0Z" fill="#059B49"/>
<path d="M37.2902 181V151.812H62.7931V181H37.2902Z" fill="#059B49"/>
<path d="M114.311 123.455V94.2678H139.814V123.455H114.311Z" fill="#059B49"/>
</g>
<defs>
<clipPath id="clip0_5_956">
<rect width="547" height="381" fill="white"/>
</clipPath>
</defs>
</svg>
