<svg width="566" height="381" viewBox="0 0 566 381" fill="none" xmlns="http://www.w3.org/2000/svg">
<g clip-path="url(#clip0_5_750)">
<path d="M550.705 345.651C550.397 357.136 548.474 368.521 544.992 379.469C544.915 379.723 544.829 379.974 544.746 380.228H523.429C523.451 380 523.474 379.746 523.497 379.469C524.918 363.121 516.798 264.81 507 247.794C507.858 249.175 552.358 293.707 550.705 345.651Z" fill="#D5CECE"/>
<path d="M549.105 379.469C548.927 379.723 548.742 379.977 548.552 380.228H532.559C532.68 380.011 532.821 379.757 532.984 379.469C535.625 374.699 543.445 360.437 550.703 345.651C558.5 329.762 565.66 313.271 565.057 307.302C565.244 308.647 570.641 349.686 549.105 379.469Z" fill="#F0F0F0"/>
<path d="M402.433 309.942H0V0H402.433V309.942Z" fill="white"/>
<path d="M402.433 309.942H0V0H402.433V309.942ZM5.94591 303.994H396.487V5.94876H5.94591V303.994Z" fill="#E5E5E5"/>
<path d="M105.323 233.637H74.8538C74.0288 233.636 73.2377 233.308 72.6543 232.725C72.0709 232.141 71.7427 231.349 71.7417 230.524V188.502C71.7427 187.677 72.0709 186.885 72.6543 186.302C73.2377 185.718 74.0288 185.39 74.8538 185.389H105.323C106.148 185.39 106.939 185.718 107.522 186.302C108.106 186.885 108.434 187.677 108.435 188.502V230.524C108.434 231.349 108.106 232.141 107.522 232.725C106.939 233.308 106.148 233.636 105.323 233.637Z" fill="#E6E6E6"/>
<path d="M160.887 233.637H130.418C129.593 233.637 128.802 233.308 128.218 232.725C127.635 232.141 127.307 231.35 127.306 230.524V148.645C127.307 147.819 127.635 147.028 128.218 146.444C128.802 145.861 129.593 145.532 130.418 145.531H160.887C161.712 145.532 162.503 145.861 163.086 146.444C163.67 147.028 163.998 147.819 163.999 148.645V230.524C163.998 231.35 163.67 232.141 163.086 232.725C162.503 233.308 161.712 233.637 160.887 233.637Z" fill="#E6E6E6"/>
<path d="M216.451 233.637H185.982C185.157 233.636 184.366 233.308 183.782 232.725C183.199 232.141 182.871 231.349 182.87 230.524V188.502C182.871 187.677 183.199 186.885 183.782 186.302C184.366 185.718 185.157 185.39 185.982 185.389H216.451C217.276 185.39 218.067 185.718 218.65 186.302C219.234 186.885 219.562 187.677 219.563 188.502V230.524C219.562 231.349 219.234 232.141 218.65 232.725C218.067 233.308 217.276 233.636 216.451 233.637Z" fill="#E6E6E6"/>
<path d="M272.015 233.637H241.546C240.74 233.655 239.959 233.352 239.376 232.795C238.793 232.237 238.454 231.472 238.434 230.665V132.77C238.454 131.964 238.793 131.198 239.376 130.641C239.959 130.084 240.74 129.781 241.546 129.798H272.015C272.821 129.781 273.601 130.084 274.185 130.641C274.768 131.198 275.107 131.964 275.127 132.77V230.665C275.107 231.472 274.768 232.237 274.185 232.795C273.601 233.352 272.821 233.655 272.015 233.637Z" fill="#E6E6E6"/>
<path d="M327.579 233.637H297.11C296.285 233.636 295.494 233.308 294.91 232.725C294.327 232.141 293.999 231.349 293.998 230.524V104.592C293.999 103.766 294.327 102.975 294.91 102.391C295.494 101.807 296.285 101.479 297.11 101.478H327.579C328.404 101.479 329.195 101.807 329.778 102.391C330.362 102.975 330.69 103.766 330.691 104.592V230.524C330.69 231.349 330.362 232.141 329.778 232.725C329.195 233.308 328.404 233.636 327.579 233.637Z" fill="#F2F2F2"/>
<path d="M90.0883 172.802C93.5623 172.802 96.3786 169.985 96.3786 166.509C96.3786 163.033 93.5623 160.216 90.0883 160.216C86.6143 160.216 83.798 163.033 83.798 166.509C83.798 169.985 86.6143 172.802 90.0883 172.802Z" fill="#3F3D56"/>
<path d="M145.652 131.896C149.126 131.896 151.943 129.078 151.943 125.603C151.943 122.127 149.126 119.309 145.652 119.309C142.178 119.309 139.362 122.127 139.362 125.603C139.362 129.078 142.178 131.896 145.652 131.896Z" fill="#3F3D56"/>
<path d="M201.216 172.802C204.69 172.802 207.507 169.985 207.507 166.509C207.507 163.033 204.69 160.216 201.216 160.216C197.742 160.216 194.926 163.033 194.926 166.509C194.926 169.985 197.742 172.802 201.216 172.802Z" fill="#3F3D56"/>
<path d="M256.78 111.967C260.254 111.967 263.071 109.149 263.071 105.674C263.071 102.198 260.254 99.3805 256.78 99.3805C253.306 99.3805 250.49 102.198 250.49 105.674C250.49 109.149 253.306 111.967 256.78 111.967Z" fill="#3F3D56"/>
<path d="M312.344 88.8916C315.818 88.8916 318.635 86.074 318.635 82.5983C318.635 79.1227 315.818 76.3051 312.344 76.3051C308.87 76.3051 306.054 79.1227 306.054 82.5983C306.054 86.074 308.87 88.8916 312.344 88.8916Z" fill="#3F3D56"/>
<path d="M201.349 167.919L145.652 126.182L90.7172 167.348L89.4599 165.669L145.652 123.56L201.084 165.099L256.168 104.79L256.389 104.7L311.952 82.3022L312.736 84.2483L257.393 106.557L201.349 167.919Z" fill="#3F3D56"/>
<path d="M390.069 370.723L380.605 370.723L376.102 334.199L390.071 334.2L390.069 370.723Z" fill="#FFB6B6"/>
<path d="M392.483 379.902L361.965 379.901V379.515C361.966 376.363 363.217 373.34 365.445 371.112C367.672 368.883 370.693 367.631 373.844 367.631H373.844L392.483 367.632L392.483 379.902Z" fill="#2F2E41"/>
<path d="M356.245 216.135L361.618 301.787L379.659 362.077L393.636 363.09L386.617 289.612L389.695 240.816C389.695 240.816 404.284 229.936 396.217 216.839L356.245 216.135Z" fill="#2F2E41"/>
<path d="M396.245 370.723L386.78 370.723L382.278 334.199L396.247 334.2L396.245 370.723Z" fill="#FFB6B6"/>
<path d="M398.659 379.902L368.141 379.901V379.515C368.142 376.363 369.393 373.34 371.621 371.112C373.848 368.883 376.869 367.631 380.02 367.631H380.02L398.659 367.632L398.659 379.902Z" fill="#2F2E41"/>
<path d="M362.421 216.135L367.794 301.787L385.835 362.077L399.812 363.09L392.793 289.612L395.871 240.816C395.871 240.816 410.459 229.936 402.393 216.839L362.421 216.135Z" fill="#2F2E41"/>
<path d="M391.549 229.399C375.432 229.399 356.462 219.544 355.363 218.965L355.057 218.804L392.048 124.39L410.368 115.731C411.778 115.065 413.341 114.787 414.895 114.926C416.449 115.066 417.937 115.617 419.207 116.525C420.476 117.432 421.481 118.661 422.117 120.087C422.753 121.512 422.997 123.081 422.824 124.633L415.554 189.883L407.965 223.678L407.885 223.757C403.697 227.897 397.839 229.399 391.549 229.399Z" fill="#3F3D56"/>
<path d="M332.439 166.898C333.397 166.29 334.477 165.9 335.603 165.754C336.728 165.609 337.872 165.713 338.953 166.057C340.034 166.402 341.027 166.98 341.861 167.75C342.695 168.52 343.35 169.464 343.78 170.515L371.326 169.009L364.098 181.396L339.048 180.926C337.236 181.532 335.265 181.452 333.508 180.7C331.751 179.949 330.33 178.579 329.516 176.85C328.701 175.12 328.548 173.152 329.087 171.318C329.626 169.484 330.818 167.911 332.439 166.898Z" fill="#FFB6B6"/>
<path d="M386.799 186.287L359.194 185.582L359.55 167.313L372.603 163.157L394.015 133.111C395.087 131.607 396.449 130.333 398.022 129.364C399.595 128.396 401.346 127.753 403.171 127.473C404.997 127.193 406.86 127.283 408.65 127.736C410.44 128.189 412.122 128.996 413.595 130.111C415.068 131.225 416.303 132.624 417.226 134.224C418.149 135.824 418.743 137.593 418.971 139.426C419.199 141.26 419.057 143.121 418.555 144.898C418.052 146.676 417.197 148.335 416.042 149.777L386.799 186.287Z" fill="#3F3D56"/>
<path d="M402.782 112.252C412.912 112.252 421.125 104.036 421.125 93.901C421.125 83.7659 412.912 75.5497 402.782 75.5497C392.652 75.5497 384.439 83.7659 384.439 93.901C384.439 104.036 392.652 112.252 402.782 112.252Z" fill="#FFB6B6"/>
<path d="M379.576 78.6083C381.427 76.7093 383.833 75.4465 386.447 75.0013C388.994 74.4529 391.789 74.283 393.827 72.6842C396.143 70.8383 397.162 67.3317 400.003 66.5517C401.239 66.3032 402.519 66.4048 403.701 66.8452C408.24 68.2152 412.271 70.9034 415.28 74.5688C415.99 75.6192 416.894 76.5237 417.944 77.2335C418.572 77.4994 419.185 77.7985 419.781 78.1294C420.435 78.6458 420.95 79.3175 421.279 80.0835C423.327 84.2205 423.799 88.9623 422.607 93.4222C421.896 96.056 420.615 98.4966 419.858 101.146C419.102 103.795 415.603 108.835 414.785 107.583C413.966 106.332 412.916 105.166 412.469 103.722C411.595 100.881 412.384 98.0216 410.162 96.0482C408.788 94.8279 406.302 94.0092 405.368 95.5848C404.998 96.195 405.021 96.9673 404.704 97.6007C404.079 98.8364 402.272 99.0836 401.076 98.373C399.923 97.5764 399.112 96.3739 398.806 95.0055C397.007 88.9193 393.943 85.0884 387.435 87.6912C385.011 88.6644 382.154 89.3209 379.823 87.6526C376.75 85.4591 377.376 81.1107 379.576 78.6083Z" fill="#2F2E41"/>
<path d="M338.387 243.678H307.918C307.093 243.677 306.302 243.349 305.718 242.765C305.135 242.182 304.807 241.39 304.806 240.565V114.632C304.807 113.807 305.135 113.015 305.718 112.432C306.302 111.848 307.093 111.52 307.918 111.519H338.387C339.212 111.52 340.003 111.848 340.586 112.432C341.17 113.015 341.498 113.807 341.499 114.632V240.565C341.498 241.39 341.17 242.182 340.586 242.765C340.003 243.349 339.212 243.677 338.387 243.678Z" fill="#059B49"/>
<path d="M331.667 177.711C332.625 177.103 333.705 176.713 334.831 176.568C335.956 176.422 337.1 176.526 338.181 176.871C339.262 177.215 340.255 177.793 341.089 178.563C341.923 179.333 342.578 180.277 343.008 181.328L370.554 179.822L363.326 192.209L338.276 191.739C336.464 192.345 334.493 192.265 332.736 191.513C330.979 190.762 329.558 189.392 328.744 187.663C327.929 185.933 327.776 183.965 328.315 182.131C328.854 180.297 330.046 178.725 331.667 177.711Z" fill="#FFB6B6"/>
<path d="M386.027 197.1L358.422 196.395L358.778 178.126L371.831 173.97L393.243 143.924C394.315 142.42 395.677 141.146 397.25 140.177C398.823 139.209 400.574 138.566 402.399 138.286C404.225 138.006 406.088 138.096 407.878 138.549C409.668 139.002 411.35 139.809 412.823 140.924C414.296 142.038 415.531 143.437 416.454 145.037C417.377 146.637 417.971 148.406 418.199 150.239C418.427 152.073 418.286 153.934 417.783 155.711C417.28 157.489 416.425 159.148 415.271 160.59L386.027 197.1Z" fill="#3F3D56"/>
<path d="M565.073 381H212.927C212.805 381 212.685 380.975 212.572 380.925C212.46 380.875 212.358 380.801 212.272 380.708C212.186 380.615 212.117 380.505 212.071 380.383C212.024 380.262 212 380.132 212 380C212 379.868 212.024 379.738 212.071 379.617C212.117 379.495 212.186 379.385 212.272 379.292C212.358 379.199 212.46 379.125 212.572 379.075C212.685 379.025 212.805 379 212.927 379H565.073C565.195 379 565.315 379.025 565.428 379.075C565.54 379.125 565.642 379.199 565.728 379.292C565.814 379.385 565.883 379.495 565.929 379.617C565.976 379.738 566 379.868 566 380C566 380.132 565.976 380.262 565.929 380.383C565.883 380.505 565.814 380.615 565.728 380.708C565.642 380.801 565.54 380.875 565.428 380.925C565.315 380.975 565.195 381 565.073 381Z" fill="#CACACA"/>
</g>
<defs>
<clipPath id="clip0_5_750">
<rect width="566" height="381" fill="white"/>
</clipPath>
</defs>
</svg>
